<svg width="523" height="364" viewBox="0 0 523 364" fill="none" xmlns="http://www.w3.org/2000/svg">
<path d="M179.492 335.799C182.602 325.47 176.455 303.919 167.394 297.517C163.054 294.441 159.797 294.767 156.227 292.902C141.14 285.057 137.269 264.978 148.094 251.893C157.255 240.804 172.465 245.536 175.284 225.543C176.942 213.781 165.401 206.861 159.91 199.866C154.33 192.767 156.194 183.55 147.632 176.23C124.294 156.303 111.274 186.236 93.3875 196.245C38.1382 227.103 -22.2451 164.847 9.80539 109.915C35.766 65.401 103.518 71.7115 121.505 119.813C126.897 134.204 123.596 154.658 145.556 157.087C164.407 159.176 175.696 131.764 203.872 142.248C217.422 147.296 229.934 164.102 245.786 152.103C258.475 142.508 253.212 126.555 269.076 117.927C269.42 117.74 269.757 117.573 270.093 117.405C280.082 112.046 295.023 108.894 291.024 93.8746C288.331 83.7692 281.45 82.0971 276.77 74.6486C253.822 38.0625 294.379 -6.22989 332.562 14.7978C340.849 19.3675 347.691 28.5053 358.182 27.1888C374.39 25.1703 369.784 10.2264 379.106 3.98757C391.274 -4.16819 406.816 2.91766 407.913 17.683C408.829 30.0026 393.363 34.2393 404.635 49.4804C406.821 52.4197 410.205 53.5197 412.697 55.1058C414.06 55.8595 415.235 57.1093 416.011 58.9874C417.993 63.7666 413.665 66.5177 412.654 71.0491C410.159 82.2795 418.544 86.3589 427.398 89.4857C433.114 91.506 438.586 89.8148 440.923 83.8744C441.497 82.4128 441.561 81.1116 441.718 79.6948C441.953 75.898 443.945 72.0258 447.006 70.1775C447.577 69.8214 448.143 69.5296 448.686 69.2941C449.553 68.8643 450.483 68.5493 451.421 68.3708C452.539 68.1353 453.596 68.0954 454.581 68.2245C456.152 68.3802 457.701 68.9028 459.125 69.7713C463.36 72.0503 466.932 75.687 472.168 73.7186C480.088 70.7387 477.885 60.1545 487.218 54.5179C492.6 51.2611 502.323 53.5379 503.64 44.4652C504.349 39.6516 501.51 38.2064 500.227 34.3874C498.424 28.9755 501.01 23.6497 505.739 20.736C514.326 15.4482 525.338 24.4028 522.384 34.3105C519.721 43.3226 511.703 40.4167 507.082 45.8995C501.926 52.0194 508.764 57.9237 510.967 63.0178C516.754 76.4249 502.489 90.4234 489.1 84.8905C483.173 82.4269 479.985 75.3219 473.059 76.2653C463.761 77.5332 466.034 86.9072 458.151 90.4784C456.367 91.2954 454.495 91.588 452.67 91.4576C452.56 91.4555 452.432 91.4454 452.33 91.4245C452.274 91.4007 452.22 91.4223 452.164 91.3985C452.062 91.3776 451.971 91.3834 451.869 91.3624C451.492 91.3134 451.104 91.2376 450.723 91.1431C450.723 91.1431 450.705 91.1352 450.686 91.1272C450.592 91.0875 450.501 91.0933 450.407 91.0536C446.92 90.1977 443.554 88.3749 439.487 90.3512C431.168 94.3796 435.583 103.133 432.68 109.785C425.278 126.754 399.926 121.207 400.364 102.708C400.618 92.1224 408.972 91.0973 411.267 83.634C412.531 79.4976 411.173 73.7651 408.304 70.5587C406.065 68.0613 403.476 67.8515 401.999 64.7027C399.747 60.5618 403.123 54.8841 402.402 50.4173C401.492 44.8298 397.906 39.0839 392.401 37.0867C390.373 36.3389 387.581 36.6627 385.421 36.0146C378.214 33.8061 373.392 29.4634 365.297 33.587C352.507 40.129 357.156 55.1798 353.676 65.8608C350.207 76.5686 340.576 86.7279 330.316 91.2635C320.544 95.5852 307.388 92.4309 301.177 103.395C294.26 115.611 311.308 129.333 307.198 146.522C306.186 151.318 303.657 156.092 299.207 160.386C277.607 181.264 259.173 148.492 239.749 161.769C227.486 170.15 230.869 190.178 220.003 203.046C207.431 217.96 184.624 213.822 180.747 233.965C177.424 251.176 203.599 257.028 190.52 282.132C187.442 288.047 182.658 290.516 180.582 297.253C178.542 303.85 180.566 317.104 183.149 323.444C187.233 333.452 189.666 332.356 196.373 338.205C212.222 352.04 190.03 373.531 177.236 357.757C170.026 348.862 177.182 343.455 179.484 335.818L179.492 335.799Z" fill="url(#paint0_linear_25_570)"/>
<defs>
<linearGradient id="paint0_linear_25_570" x1="324.954" y1="-60.5616" x2="151.632" y2="349.027" gradientUnits="userSpaceOnUse">
<stop stop-color="#F5B636"/>
<stop offset="1" stop-color="#FF5050"/>
</linearGradient>
</defs>
</svg>
