<svg width="479" height="364" viewBox="0 0 479 364" fill="none" xmlns="http://www.w3.org/2000/svg">
<path d="M135.492 335.799C138.602 325.47 132.455 303.919 123.394 297.517C119.054 294.441 115.797 294.767 112.227 292.902C97.1397 285.057 93.2687 264.978 104.094 251.893C113.255 240.804 128.465 245.536 131.284 225.543C132.942 213.781 121.401 206.861 115.91 199.866C110.33 192.767 112.194 183.55 103.632 176.23C80.2939 156.303 67.2735 186.236 49.3875 196.245C-5.86181 227.103 -66.2451 164.847 -34.1946 109.915C-8.234 65.401 59.5176 71.7115 77.5046 119.813C82.8973 134.204 79.5964 154.658 101.556 157.087C120.407 159.176 131.696 131.764 159.872 142.248C173.422 147.296 185.934 164.102 201.786 152.103C214.475 142.508 209.212 126.555 225.076 117.927C225.42 117.74 225.757 117.573 226.093 117.405C236.082 112.046 251.023 108.894 247.024 93.8746C244.331 83.7692 237.45 82.0971 232.77 74.6486C209.822 38.0625 250.379 -6.22989 288.562 14.7978C296.849 19.3675 303.691 28.5053 314.182 27.1888C330.39 25.1703 325.784 10.2264 335.106 3.98757C347.274 -4.16819 362.816 2.91766 363.913 17.683C364.829 30.0026 349.363 34.2393 360.635 49.4804C362.821 52.4197 366.205 53.5197 368.697 55.1058C370.06 55.8595 371.235 57.1093 372.011 58.9874C373.993 63.7666 369.665 66.5177 368.654 71.0491C366.159 82.2795 374.544 86.3589 383.398 89.4857C389.114 91.506 394.586 89.8148 396.923 83.8744C397.497 82.4128 397.561 81.1116 397.718 79.6948C397.953 75.898 399.945 72.0258 403.006 70.1775C403.577 69.8214 404.143 69.5296 404.686 69.2941C405.553 68.8643 406.483 68.5493 407.421 68.3708C408.539 68.1353 409.596 68.0954 410.581 68.2245C412.152 68.3802 413.701 68.9028 415.125 69.7713C419.36 72.0503 422.932 75.687 428.168 73.7186C436.088 70.7387 433.885 60.1545 443.218 54.5179C448.6 51.2611 458.323 53.5379 459.64 44.4652C460.349 39.6516 457.51 38.2064 456.227 34.3874C454.424 28.9755 457.01 23.6497 461.739 20.736C470.326 15.4482 481.338 24.4028 478.384 34.3105C475.721 43.3226 467.703 40.4167 463.082 45.8995C457.926 52.0194 464.764 57.9237 466.967 63.0178C472.754 76.4249 458.489 90.4234 445.1 84.8905C439.173 82.4269 435.985 75.3219 429.059 76.2653C419.761 77.5332 422.034 86.9072 414.151 90.4784C412.367 91.2954 410.495 91.588 408.67 91.4576C408.56 91.4555 408.432 91.4454 408.33 91.4245C408.274 91.4007 408.22 91.4223 408.164 91.3985C408.062 91.3776 407.971 91.3834 407.869 91.3624C407.492 91.3134 407.104 91.2376 406.723 91.1431C406.723 91.1431 406.705 91.1352 406.686 91.1272C406.592 91.0875 406.501 91.0933 406.407 91.0536C402.92 90.1977 399.554 88.3749 395.487 90.3512C387.168 94.3796 391.583 103.133 388.68 109.785C381.278 126.754 355.926 121.207 356.364 102.708C356.618 92.1224 364.972 91.0973 367.267 83.634C368.531 79.4976 367.173 73.7651 364.304 70.5587C362.065 68.0613 359.476 67.8515 357.999 64.7027C355.747 60.5618 359.123 54.8841 358.402 50.4173C357.492 44.8298 353.906 39.0839 348.401 37.0867C346.373 36.3389 343.581 36.6627 341.421 36.0146C334.214 33.8061 329.392 29.4634 321.297 33.587C308.507 40.129 313.156 55.1798 309.676 65.8608C306.207 76.5686 296.576 86.7279 286.316 91.2635C276.544 95.5852 263.388 92.4309 257.177 103.395C250.26 115.611 267.308 129.333 263.198 146.522C262.186 151.318 259.657 156.092 255.207 160.386C233.607 181.264 215.173 148.492 195.749 161.769C183.486 170.15 186.869 190.178 176.003 203.046C163.431 217.96 140.624 213.822 136.747 233.965C133.424 251.176 159.599 257.028 146.52 282.132C143.442 288.047 138.658 290.516 136.582 297.253C134.542 303.85 136.566 317.104 139.149 323.444C143.233 333.452 145.666 332.356 152.373 338.205C168.222 352.04 146.03 373.531 133.236 357.757C126.026 348.862 133.182 343.455 135.484 335.818L135.492 335.799Z" fill="url(#paint0_linear_25_571)"/>
<defs>
<linearGradient id="paint0_linear_25_571" x1="280.954" y1="-60.5616" x2="107.632" y2="349.027" gradientUnits="userSpaceOnUse">
<stop stop-color="#F5B636"/>
<stop offset="1" stop-color="#FF5050"/>
</linearGradient>
</defs>
</svg>
