<svg width="460" height="321" viewBox="0 0 460 321" fill="none" xmlns="http://www.w3.org/2000/svg">
<path d="M157.418 295.878C160.156 286.786 154.745 267.815 146.769 262.18C142.948 259.472 140.081 259.759 136.939 258.117C123.657 251.211 120.25 233.536 129.779 222.017C137.843 212.256 151.233 216.422 153.714 198.822C155.174 188.469 145.015 182.377 140.18 176.219C135.268 169.97 136.91 161.857 129.373 155.413C108.829 137.872 97.3669 164.221 81.6222 173.032C32.9875 200.196 -20.1666 145.393 8.04676 97.0376C30.8993 57.8528 90.5396 63.4078 106.373 105.751C111.12 118.419 108.215 136.423 127.545 138.562C144.139 140.4 154.077 116.271 178.879 125.5C190.807 129.943 201.821 144.737 215.775 134.175C226.945 125.728 222.312 111.686 236.277 104.09C236.58 103.926 236.876 103.778 237.172 103.631C245.966 98.9138 259.117 96.1385 255.597 82.9175C253.227 74.022 247.17 72.5501 243.05 65.9933C222.849 33.7874 258.551 -5.20224 292.162 13.308C299.458 17.3306 305.48 25.3744 314.715 24.2155C328.983 22.4387 324.928 9.28392 333.134 3.79198C343.845 -3.38736 357.527 2.85015 358.492 15.8478C359.298 26.6924 345.684 30.4219 355.607 43.8383C357.53 46.4258 360.51 47.394 362.704 48.7903C363.903 49.4537 364.937 50.5539 365.62 52.2071C367.365 56.4142 363.555 58.8359 362.666 62.8248C360.469 72.7107 367.85 76.3016 375.644 79.0541C380.676 80.8325 385.493 79.3438 387.55 74.1146C388.055 72.828 388.112 71.6825 388.25 70.4354C388.457 67.0931 390.211 63.6845 392.905 62.0575C393.408 61.744 393.906 61.4872 394.383 61.2799C395.147 60.9015 395.966 60.6243 396.792 60.4671C397.775 60.2598 398.706 60.2247 399.573 60.3383C400.956 60.4754 402.319 60.9354 403.573 61.7C407.301 63.7062 410.445 66.9074 415.054 65.1746C422.026 62.5515 420.087 53.2345 428.302 48.2727C433.041 45.4058 441.599 47.41 442.759 39.4236C443.383 35.1862 440.883 33.9141 439.755 30.5523C438.167 25.7883 440.443 21.1001 444.606 18.5352C452.165 13.8806 461.859 21.763 459.259 30.4845C456.915 38.4178 449.856 35.8597 445.788 40.6862C441.25 46.0733 447.269 51.2708 449.208 55.755C454.302 67.5569 441.746 79.8796 429.959 75.0091C424.742 72.8404 421.936 66.586 415.839 67.4164C407.654 68.5326 409.655 76.7843 402.715 79.9279C401.145 80.6471 399.498 80.9047 397.891 80.79C397.794 80.7881 397.681 80.7792 397.592 80.7607C397.542 80.7398 397.495 80.7589 397.445 80.7379C397.356 80.7195 397.276 80.7246 397.186 80.7062C396.854 80.663 396.512 80.5963 396.177 80.5131C396.177 80.5131 396.161 80.5061 396.144 80.4991C396.062 80.4641 395.982 80.4692 395.899 80.4343C392.829 79.6809 389.866 78.0763 386.286 79.816C378.963 83.362 382.85 91.0674 380.294 96.9234C373.778 111.861 351.461 106.977 351.847 90.6932C352.07 81.3752 359.424 80.4727 361.445 73.903C362.557 70.2618 361.362 65.2156 358.837 62.3931C356.865 60.1947 354.587 60.01 353.286 57.2381C351.304 53.593 354.275 48.5951 353.641 44.6631C352.84 39.7445 349.683 34.6865 344.838 32.9284C343.052 32.2701 340.594 32.5552 338.693 31.9847C332.349 30.0405 328.104 26.2177 320.979 29.8477C309.719 35.6064 313.812 48.8553 310.749 58.2577C307.695 67.6835 299.217 76.6264 290.185 80.619C281.583 84.4233 270.002 81.6466 264.535 91.2985C258.446 102.051 273.453 114.131 269.835 129.262C268.944 133.484 266.718 137.687 262.801 141.466C243.786 159.845 227.56 130.996 210.461 142.683C199.666 150.061 202.645 167.691 193.08 179.019C182.012 192.148 161.936 188.504 158.523 206.236C155.598 221.387 178.639 226.538 167.126 248.637C164.416 253.843 160.205 256.017 158.377 261.947C156.582 267.755 158.364 279.422 160.638 285.002C164.233 293.812 166.374 292.847 172.278 297.996C186.23 310.175 166.695 329.093 155.432 315.207C149.086 307.377 155.384 302.618 157.411 295.895L157.418 295.878Z" fill="url(#paint0_linear_26_613)"/>
<defs>
<linearGradient id="paint0_linear_26_613" x1="285.465" y1="-53.0293" x2="132.894" y2="307.523" gradientUnits="userSpaceOnUse">
<stop stop-color="#F5B636"/>
<stop offset="1" stop-color="#FF5050"/>
</linearGradient>
</defs>
</svg>
