<svg width="170" height="284" viewBox="0 0 170 284" fill="none" xmlns="http://www.w3.org/2000/svg">
<g clip-path="url(#clip0_9_1333)">
<path d="M56.6571 119.566L56.7589 119.354V67.3193L56.1067 67.0547C54.4292 66.3773 53.0385 65.4189 51.9803 64.2075L51.9347 64.162C49.5585 61.7693 48.2502 58.6972 48.2502 55.5109C48.2502 53.8828 48.5875 52.2527 49.2523 50.6712C49.8822 49.1952 50.8115 47.8133 51.9308 46.6795C54.2111 44.4137 57.2832 43.1655 60.58 43.1655H108.548C111.919 43.1655 115.138 44.4447 117.382 46.6737C119.614 48.92 120.894 52.1423 120.894 55.5109C120.894 58.5916 119.673 61.684 117.541 64.0021L117.385 64.1581C116.095 65.448 114.669 66.3948 113.027 67.0547L112.374 67.3174V119.356L112.476 119.568C113.553 121.816 169.035 232.156 169.035 247.556C169.035 256.887 165.218 266.053 158.563 272.704L158.382 272.896C151.669 279.429 142.565 283.175 133.403 283.175H35.7304C31.0013 283.175 26.3661 282.226 21.9557 280.357C17.7663 278.564 13.9355 275.99 10.5698 272.704C3.82486 265.783 0.109344 256.851 0.109344 247.556C0.109344 232.172 53.9844 125.183 56.6581 119.566H56.6571Z" fill="#BF2D00"/>
<path d="M95.939 33.3691C93.8995 31.3296 93.8995 28.0229 95.939 25.9834C97.9785 23.9439 101.285 23.9439 103.325 25.9834C105.364 28.0229 105.364 31.3296 103.325 33.3691C101.285 35.4086 97.9785 35.4086 95.939 33.3691Z" fill="url(#paint0_linear_9_1333)"/>
<path d="M91.3048 19.4506C89.5904 17.7362 89.5904 14.9566 91.3048 13.2422C93.0192 11.5278 95.7988 11.5278 97.5132 13.2422C99.2276 14.9566 99.2276 17.7362 97.5132 19.4506C95.7988 21.165 93.0192 21.165 91.3048 19.4506Z" fill="url(#paint1_linear_9_1333)"/>
<path d="M84.5994 37.694C83.0557 37.0545 82.3226 35.2847 82.962 33.7409C83.6015 32.1972 85.3713 31.4641 86.915 32.1035C88.4588 32.743 89.1919 34.5128 88.5524 36.0566C87.913 37.6003 86.1432 38.3334 84.5994 37.694Z" fill="url(#paint2_linear_9_1333)"/>
<path d="M19.9836 213.55C32.0469 221.647 35.6984 225.355 50.3861 226.012C61.1179 226.492 77.5247 214.392 88.3815 213.659C88.6732 213.64 88.959 213.623 89.2382 213.608C90.8226 213.527 92.2433 213.531 93.5797 213.612C100.85 214.038 105.672 216.657 120.629 219.744C138.829 223.497 149.262 213.658 149.262 213.658C157.089 231.505 161.048 242.885 161.048 247.556C161.048 254.834 158.176 261.714 152.963 266.931L152.793 267.104C147.576 272.317 140.689 275.19 133.403 275.19H35.7304C28.5504 275.19 21.6678 272.257 16.3514 266.932C11.0281 261.617 8.0976 254.735 8.0976 247.557C8.0976 244.241 10.2877 235.589 19.9836 213.55Z" fill="url(#paint3_linear_9_1333)"/>
<path d="M145.214 251.225C147.442 251.225 149.249 249.418 149.249 247.19C149.249 244.962 147.442 243.152 145.214 243.152C142.986 243.152 141.177 244.96 141.177 247.19C141.177 249.419 142.984 251.225 145.214 251.225Z" fill="#BF2D00"/>
<path d="M144.845 226.012C144.845 223.986 143.202 222.344 141.177 222.344C139.151 222.344 137.511 223.986 137.511 226.012C137.511 228.037 139.153 229.678 141.177 229.678C143.2 229.678 144.845 228.035 144.845 226.012Z" fill="#BF2D00"/>
<path d="M132.761 269.53C136.342 269.53 139.246 266.629 139.246 263.048C139.246 259.467 136.342 256.564 132.761 256.564C129.18 256.564 126.279 259.467 126.279 263.048C126.279 266.629 129.18 269.53 132.761 269.53Z" fill="#BF2D00"/>
<path d="M133.18 235.27C133.18 231.457 130.089 228.367 126.279 228.367C122.469 228.367 119.376 231.457 119.376 235.27C119.376 239.082 122.467 242.171 126.279 242.171C130.091 242.171 133.18 239.08 133.18 235.27Z" fill="#BF2D00"/>
<path d="M120.947 255.172C123.127 255.172 124.894 253.404 124.894 251.225C124.894 249.045 123.127 247.28 120.947 247.28C118.768 247.28 117.002 249.045 117.002 251.225C117.002 253.404 118.769 255.172 120.947 255.172Z" fill="#BF2D00"/>
<path d="M89.2382 213.608L93.5797 213.612C92.2433 213.531 90.8226 213.527 89.2382 213.608Z" fill="url(#paint4_linear_9_1333)"/>
<path d="M125.698 211.768C123.092 210.688 121.854 207.7 122.934 205.094C124.013 202.487 127.001 201.25 129.608 202.329C132.214 203.409 133.452 206.397 132.372 209.003C131.293 211.61 128.304 212.847 125.698 211.768Z" fill="url(#paint5_linear_9_1333)"/>
<path d="M126.17 190.333C124.469 188.632 124.469 185.874 126.17 184.174C127.871 182.473 130.628 182.473 132.329 184.174C134.03 185.874 134.03 188.632 132.329 190.333C130.628 192.033 127.871 192.033 126.17 190.333Z" fill="url(#paint6_linear_9_1333)"/>
<path d="M109.135 181.31C105.892 181.31 103.264 178.682 103.264 175.44C103.264 172.197 105.892 169.569 109.135 169.569C112.377 169.569 115.005 172.197 115.005 175.44C115.005 178.682 112.377 181.31 109.135 181.31Z" fill="url(#paint7_linear_9_1333)"/>
<path d="M109.158 197.13C108.113 196.084 108.113 194.39 109.158 193.344C110.204 192.299 111.898 192.299 112.944 193.344C113.989 194.39 113.989 196.084 112.944 197.13C111.898 198.175 110.204 198.175 109.158 197.13Z" fill="url(#paint8_linear_9_1333)"/>
<path d="M111.051 152.043C108.523 152.043 106.475 149.994 106.475 147.467C106.475 144.939 108.523 142.891 111.051 142.891C113.578 142.891 115.627 144.939 115.627 147.467C115.627 149.994 113.578 152.043 111.051 152.043Z" fill="url(#paint9_linear_9_1333)"/>
<path d="M94.5219 157.574C93.9904 155.322 95.3851 153.066 97.637 152.534C99.8888 152.003 102.145 153.397 102.677 155.649C103.208 157.901 101.814 160.158 99.5617 160.689C97.3098 161.221 95.0534 159.826 94.5219 157.574Z" fill="url(#paint10_linear_9_1333)"/>
<path d="M93.0469 130.88C90.8628 128.696 90.8628 125.155 93.0469 122.971C95.2309 120.786 98.772 120.786 100.956 122.971C103.14 125.155 103.14 128.696 100.956 130.88C98.772 133.064 95.2309 133.064 93.0469 130.88Z" fill="url(#paint11_linear_9_1333)"/>
<path d="M98.5977 113.09C95.8258 113.09 93.5787 110.843 93.5787 108.071C93.5787 105.299 95.8258 103.052 98.5977 103.052C101.37 103.052 103.617 105.299 103.617 108.071C103.617 110.843 101.37 113.09 98.5977 113.09Z" fill="url(#paint12_linear_9_1333)"/>
<path d="M93.5797 92.731C90.2373 92.731 87.5277 90.0214 87.5277 86.679C87.5277 83.3365 90.2373 80.627 93.5797 80.627C96.9221 80.627 99.6317 83.3365 99.6317 86.679C99.6317 90.0214 96.9221 92.731 93.5797 92.731Z" fill="url(#paint13_linear_9_1333)"/>
<path d="M84.5729 106.066C82.9084 106.066 81.559 104.716 81.559 103.052C81.559 101.387 82.9084 100.038 84.5729 100.038C86.2374 100.038 87.5868 101.387 87.5868 103.052C87.5868 104.716 86.2374 106.066 84.5729 106.066Z" fill="url(#paint14_linear_9_1333)"/>
<path d="M87.5858 144.718C86.5759 144.718 85.7571 143.899 85.7571 142.889C85.7571 141.88 86.5759 141.061 87.5858 141.061C88.5958 141.061 89.4145 141.88 89.4145 142.889C89.4145 143.899 88.5958 144.718 87.5858 144.718Z" fill="url(#paint15_linear_9_1333)"/>
</g>
<defs>
<linearGradient id="paint0_linear_9_1333" x1="104.854" y1="29.6759" x2="94.4091" y2="29.6759" gradientUnits="userSpaceOnUse">
<stop stop-color="#F15A24"/>
<stop offset="0.24" stop-color="#F05024"/>
<stop offset="0.64" stop-color="#EE3724"/>
<stop offset="0.99" stop-color="#ED1C24"/>
</linearGradient>
<linearGradient id="paint1_linear_9_1333" x1="98.7987" y1="16.3464" x2="90.0187" y2="16.3464" gradientUnits="userSpaceOnUse">
<stop stop-color="#F15A24"/>
<stop offset="0.24" stop-color="#F05024"/>
<stop offset="0.64" stop-color="#EE3724"/>
<stop offset="0.99" stop-color="#ED1C24"/>
</linearGradient>
<linearGradient id="paint2_linear_9_1333" x1="88.7823" y1="34.8984" x2="82.7303" y2="34.8984" gradientUnits="userSpaceOnUse">
<stop stop-color="#F15A24"/>
<stop offset="0.24" stop-color="#F05024"/>
<stop offset="0.64" stop-color="#EE3724"/>
<stop offset="0.99" stop-color="#ED1C24"/>
</linearGradient>
<linearGradient id="paint3_linear_9_1333" x1="161.048" y1="244.369" x2="8.0976" y2="244.369" gradientUnits="userSpaceOnUse">
<stop stop-color="#F7931E"/>
<stop offset="0.15" stop-color="#F6891E"/>
<stop offset="0.4" stop-color="#F4701F"/>
<stop offset="0.71" stop-color="#F04721"/>
<stop offset="0.99" stop-color="#ED1C24"/>
</linearGradient>
<linearGradient id="paint4_linear_9_1333" x1="93.5797" y1="213.581" x2="89.2382" y2="213.581" gradientUnits="userSpaceOnUse">
<stop stop-color="#F15A24"/>
<stop offset="0.24" stop-color="#F05024"/>
<stop offset="0.64" stop-color="#EE3724"/>
<stop offset="0.99" stop-color="#ED1C24"/>
</linearGradient>
<linearGradient id="paint5_linear_9_1333" x1="132.761" y1="207.048" x2="122.544" y2="207.048" gradientUnits="userSpaceOnUse">
<stop stop-color="#F7931E"/>
<stop offset="0.15" stop-color="#F6891E"/>
<stop offset="0.4" stop-color="#F4701F"/>
<stop offset="0.71" stop-color="#F04721"/>
<stop offset="0.99" stop-color="#ED1C24"/>
</linearGradient>
<linearGradient id="paint6_linear_9_1333" x1="133.604" y1="187.253" x2="124.894" y2="187.253" gradientUnits="userSpaceOnUse">
<stop stop-color="#F7931E"/>
<stop offset="0.15" stop-color="#F6891E"/>
<stop offset="0.4" stop-color="#F4701F"/>
<stop offset="0.71" stop-color="#F04721"/>
<stop offset="0.99" stop-color="#ED1C24"/>
</linearGradient>
<linearGradient id="paint7_linear_9_1333" x1="115.005" y1="175.44" x2="103.264" y2="175.44" gradientUnits="userSpaceOnUse">
<stop stop-color="#F7931E"/>
<stop offset="0.15" stop-color="#F6891E"/>
<stop offset="0.4" stop-color="#F4701F"/>
<stop offset="0.71" stop-color="#F04721"/>
<stop offset="0.99" stop-color="#ED1C24"/>
</linearGradient>
<linearGradient id="paint8_linear_9_1333" x1="113.727" y1="195.237" x2="108.375" y2="195.237" gradientUnits="userSpaceOnUse">
<stop stop-color="#F7931E"/>
<stop offset="0.15" stop-color="#F6891E"/>
<stop offset="0.4" stop-color="#F4701F"/>
<stop offset="0.71" stop-color="#F04721"/>
<stop offset="0.99" stop-color="#ED1C24"/>
</linearGradient>
<linearGradient id="paint9_linear_9_1333" x1="115.627" y1="147.467" x2="106.474" y2="147.467" gradientUnits="userSpaceOnUse">
<stop stop-color="#F7931E"/>
<stop offset="0.15" stop-color="#F6891E"/>
<stop offset="0.4" stop-color="#F4701F"/>
<stop offset="0.71" stop-color="#F04721"/>
<stop offset="0.99" stop-color="#ED1C24"/>
</linearGradient>
<linearGradient id="paint10_linear_9_1333" x1="102.795" y1="156.615" x2="94.417" y2="156.615" gradientUnits="userSpaceOnUse">
<stop stop-color="#F7931E"/>
<stop offset="0.15" stop-color="#F6891E"/>
<stop offset="0.4" stop-color="#F4701F"/>
<stop offset="0.71" stop-color="#F04721"/>
<stop offset="0.99" stop-color="#ED1C24"/>
</linearGradient>
<linearGradient id="paint11_linear_9_1333" x1="102.594" y1="126.925" x2="91.4085" y2="126.925" gradientUnits="userSpaceOnUse">
<stop stop-color="#F7931E"/>
<stop offset="0.15" stop-color="#F6891E"/>
<stop offset="0.4" stop-color="#F4701F"/>
<stop offset="0.71" stop-color="#F04721"/>
<stop offset="0.99" stop-color="#ED1C24"/>
</linearGradient>
<linearGradient id="paint12_linear_9_1333" x1="103.617" y1="108.071" x2="93.5797" y2="108.071" gradientUnits="userSpaceOnUse">
<stop stop-color="#F7931E"/>
<stop offset="0.15" stop-color="#F6891E"/>
<stop offset="0.4" stop-color="#F4701F"/>
<stop offset="0.71" stop-color="#F04721"/>
<stop offset="0.99" stop-color="#ED1C24"/>
</linearGradient>
<linearGradient id="paint13_linear_9_1333" x1="99.6317" y1="86.679" x2="87.5277" y2="86.679" gradientUnits="userSpaceOnUse">
<stop stop-color="#F7931E"/>
<stop offset="0.15" stop-color="#F6891E"/>
<stop offset="0.4" stop-color="#F4701F"/>
<stop offset="0.71" stop-color="#F04721"/>
<stop offset="0.99" stop-color="#ED1C24"/>
</linearGradient>
<linearGradient id="paint14_linear_9_1333" x1="87.5858" y1="103.052" x2="81.559" y2="103.052" gradientUnits="userSpaceOnUse">
<stop stop-color="#F7931E"/>
<stop offset="0.15" stop-color="#F6891E"/>
<stop offset="0.4" stop-color="#F4701F"/>
<stop offset="0.71" stop-color="#F04721"/>
<stop offset="0.99" stop-color="#ED1C24"/>
</linearGradient>
<linearGradient id="paint15_linear_9_1333" x1="89.4155" y1="142.889" x2="85.7571" y2="142.889" gradientUnits="userSpaceOnUse">
<stop stop-color="#F7931E"/>
<stop offset="0.15" stop-color="#F6891E"/>
<stop offset="0.4" stop-color="#F4701F"/>
<stop offset="0.71" stop-color="#F04721"/>
<stop offset="0.99" stop-color="#ED1C24"/>
</linearGradient>
<clipPath id="clip0_9_1333">
<rect width="168.926" height="283.176" fill="white" transform="matrix(-1 0 0 1 169.035 0)"/>
</clipPath>
</defs>
</svg>
