<svg width="410" height="495" viewBox="0 0 410 495" fill="none" xmlns="http://www.w3.org/2000/svg">
<path d="M-44.4915 263.151C-32.7879 262.172 -13.4176 247.335 -10.5547 235.599C-9.17356 229.974 -10.8058 226.805 -10.3438 222.445C-8.4276 204.029 10.3612 192.084 27.9401 197.818C42.8318 202.665 44.1183 219.961 65.4938 214.825C78.069 211.804 80.4655 197.35 85.3552 188.992C90.3147 180.504 100.395 178.709 104.387 167.112C115.241 135.511 79.7218 134.287 62.4367 120.172C9.10296 76.5479 48.0237 -9.48886 116.468 1.0182C171.927 9.52096 192.612 80.6616 151.084 118.103C138.663 129.316 116.629 134.147 122.945 157.358C128.363 177.285 160.637 177.764 161.28 210.49C161.583 226.231 149.562 245.62 168.049 256.88C182.839 265.896 196.892 254.19 211.971 266.809C212.298 267.083 212.602 267.357 212.906 267.63C222.325 275.606 231.489 289.477 245.103 279.425C254.261 272.659 253.205 265.022 258.878 257.305C286.761 219.441 347.829 242.816 341.792 289.891C340.476 300.111 333.955 310.692 339.481 320.791C348.003 336.4 361.298 325.763 371.342 332.711C384.465 341.775 383.5 360.348 368.984 367.36C356.873 373.211 346.401 359.24 335.47 376.748C333.366 380.136 333.605 384.003 332.994 387.162C332.776 388.843 331.979 390.532 330.387 392.069C326.339 395.986 321.823 392.702 316.83 393.49C304.458 395.451 303.678 405.573 304.049 415.79C304.288 422.386 308.188 427.253 315.138 427.246C316.848 427.243 318.191 426.788 319.689 426.381C323.628 425.101 328.346 425.572 331.441 427.933C332.03 428.369 332.552 428.826 333.007 429.281C333.789 429.988 334.48 430.803 335.036 431.683C335.721 432.72 336.183 433.774 336.446 434.824C336.917 436.477 337.006 438.255 336.696 440.045C336.08 445.245 333.825 450.316 337.911 454.832C344.094 461.663 353.933 455.202 363.372 462.401C368.822 466.551 370.401 477.308 380.116 475.015C385.275 473.81 385.604 470.357 388.959 467.532C393.72 463.543 400.147 464.033 404.988 467.658C413.775 474.241 409.107 488.973 397.892 489.941C387.7 490.846 387.439 481.564 380.039 479.075C371.78 476.298 368.533 485.584 364.254 489.85C352.989 501.07 333.11 492.217 333.363 476.446C333.489 469.458 339.411 463.39 335.688 456.752C330.688 447.842 322.102 453.89 315.335 447.333C313.794 445.853 312.75 444.075 312.152 442.174C312.111 442.062 312.07 441.928 312.05 441.816C312.052 441.75 312.008 441.704 312.01 441.638C311.991 441.526 311.948 441.436 311.929 441.325C311.828 440.923 311.749 440.499 311.693 440.076C311.693 440.076 311.694 440.054 311.694 440.032C311.697 439.921 311.655 439.831 311.657 439.721C311.13 435.846 311.631 431.709 308.005 428.38C300.6 421.564 293.499 429.534 285.601 429.252C265.457 428.537 260.943 400.644 279.854 393.695C290.676 389.721 295.053 397.772 303.529 397.114C308.224 396.741 313.487 393.075 315.588 388.888C317.222 385.622 316.4 382.916 318.999 380.162C322.293 376.226 329.392 377.376 333.628 374.861C338.924 371.706 343.31 365.778 343.133 359.404C343.079 357.051 341.635 354.353 341.429 351.906C340.785 343.724 343.257 337.105 335.845 330.555C324.108 320.215 310.722 330.939 298.514 331.683C286.282 332.449 272.144 326.755 263.45 318.176C255.168 310.007 253.105 295.421 239.518 293.513C224.382 291.389 217.297 314.14 198.245 316.847C192.983 317.739 187.137 317.085 181.011 314.295C151.232 300.761 177.056 268.994 155.847 254.628C142.458 245.557 123.526 256.988 106.15 251.126C86.021 244.353 81.0978 219.601 59.1476 223.724C40.3875 227.237 44.9218 256.085 14.2693 252.872C7.049 252.118 2.63589 248.26 -5.01693 248.85C-12.5139 249.421 -25.1283 256.768 -30.5168 261.917C-39.0204 270.053 -36.9383 272.079 -40.1816 281.209C-47.8596 302.791 -78.4952 288.904 -67.6321 269.641C-61.5044 258.785 -53.1689 263.871 -44.5137 263.15L-44.4915 263.151Z" fill="url(#paint0_linear_52_470)"/>
<defs>
<linearGradient id="paint0_linear_52_470" x1="415.075" y1="252.068" x2="-69.0233" y2="240.221" gradientUnits="userSpaceOnUse">
<stop stop-color="#F5B636"/>
<stop offset="1" stop-color="#FF5050"/>
</linearGradient>
</defs>
</svg>
