<svg width="601" height="470" viewBox="0 0 601 470" fill="none" xmlns="http://www.w3.org/2000/svg">
<path d="M249.343 438.2C251.111 425.353 239.792 400.903 227.837 394.989C222.108 392.145 218.3 393.139 213.713 391.59C194.331 385.086 185.989 361.96 196.406 344.4C205.219 329.522 224.167 332.305 223.786 308.034C223.563 293.755 208.565 287.688 200.738 280.404C192.787 273.014 193.283 261.719 181.749 254.621C150.314 235.306 140.431 273.286 121.055 288.508C61.1894 335.461 -22.1367 272.779 5.68638 201.56C28.2191 143.85 109.864 138.711 140.197 192.487C149.285 208.574 149.179 233.482 175.713 232.273C198.492 231.238 206.789 196.577 242.207 203.774C259.242 207.243 277.237 224.87 293.827 207.664C307.108 193.901 297.883 175.935 315.115 162.729C315.489 162.444 315.858 162.182 316.226 161.92C327.091 153.693 344.248 147.162 336.698 130.07C331.615 118.57 323.131 117.867 316.183 109.893C282.105 70.7193 322.016 10.5506 371.286 28.4051C381.982 32.2871 391.811 41.8644 404.026 38.3445C422.9 32.9247 414.643 16.0348 424.551 6.88671C437.482 -5.06887 457.263 0.448877 461.319 17.781C464.704 32.2423 447.125 40.1581 463.355 56.158C466.499 59.2415 470.723 59.9169 473.98 61.3359C475.738 61.9769 477.367 63.2423 478.639 65.3281C481.884 70.6349 477.257 74.7094 476.902 80.2796C476.032 94.0834 486.751 97.3649 497.85 99.4276C505.015 100.761 511.2 97.7321 512.867 90.241C513.277 88.398 513.11 86.8406 513.032 85.1286C512.603 80.5753 514.248 75.6048 517.539 72.8388C518.151 72.3094 518.768 71.8573 519.368 71.4765C520.319 70.8042 521.364 70.2567 522.446 69.8698C523.729 69.3816 524.976 69.1372 526.171 69.1068C528.066 68.9988 530.003 69.3307 531.857 70.0965C537.311 72.0137 542.232 75.6669 548.083 72.3526C556.935 67.3366 552.345 55.1765 562.378 46.7416C568.163 41.8699 580.135 42.761 580.008 31.7399C579.953 25.8905 576.31 24.7036 574.075 20.4068C570.925 14.3154 573.003 7.50771 578.075 3.16545C587.288 -4.71612 602.037 3.8658 600.377 16.1838C598.894 27.3842 588.829 25.4279 584.363 32.8016C579.38 41.0316 588.603 46.7691 592.169 52.4085C601.542 67.253 587.211 86.5389 570.277 82.4642C562.778 80.6433 557.667 72.7992 549.617 75.2111C538.81 78.4508 543.257 89.1605 534.56 94.872C532.594 96.1749 530.426 96.8716 528.233 97.0571C528.103 97.075 527.948 97.0869 527.823 97.0811C527.752 97.0633 527.693 97.099 527.621 97.0812C527.497 97.0753 527.39 97.0991 527.265 97.0932C526.808 97.1054 526.332 97.0879 525.863 97.0465C525.863 97.0465 525.839 97.0406 525.815 97.0346C525.696 97.005 525.59 97.0288 525.471 96.9991C521.169 96.6329 516.831 95.0956 512.37 98.2011C503.24 104.537 510.117 114.11 507.909 122.552C502.282 144.087 471.136 142.225 468.208 120.172C466.535 107.553 476.266 104.777 477.601 95.4854C478.33 90.337 475.649 83.7816 471.644 80.5084C468.518 77.9598 465.404 78.1934 463.063 74.7289C459.616 70.2308 462.567 62.8579 460.878 57.6871C458.755 51.2206 453.424 45.0649 446.514 43.7192C443.965 43.2093 440.709 44.1147 438.024 43.7476C429.052 42.4684 422.515 38.2097 413.67 44.6168C399.699 54.7717 408.027 71.7805 405.886 85.1153C403.762 98.4799 394.218 112.342 382.878 119.642C372.078 126.597 355.863 125.304 350.532 139.485C344.594 155.283 367.401 168.402 365.725 189.583C365.417 195.468 363.304 201.61 358.82 207.539C337.058 236.364 309.053 200.879 288.459 220.269C275.457 232.51 283.21 255.666 272.704 272.976C260.553 293.034 232.694 292.371 231.845 317.018C231.108 338.08 263.287 340.149 252.434 372.404C249.881 380.003 244.66 383.828 243.45 392.216C242.258 400.432 247.133 415.796 251.383 422.844C258.1 433.969 260.785 432.214 269.841 437.91C291.245 451.386 268.896 481.05 250.758 464.7C240.537 455.48 248.027 447.724 249.338 438.224L249.343 438.2Z" fill="url(#paint0_linear_64_456)"/>
<defs>
<linearGradient id="paint0_linear_64_456" x1="348.198" y1="-59.6804" x2="218.721" y2="459.107" gradientUnits="userSpaceOnUse">
<stop stop-color="#F5B636"/>
<stop offset="1" stop-color="#FF5050"/>
</linearGradient>
</defs>
</svg>
