<svg width="412" height="323" viewBox="0 0 412 323" fill="none" xmlns="http://www.w3.org/2000/svg">
<path d="M171.289 300.856C172.499 292.054 164.745 275.303 156.554 271.251C152.629 269.302 150.02 269.984 146.878 268.923C133.598 264.466 127.883 248.622 135.02 236.592C141.058 226.399 154.039 228.306 153.779 211.677C153.626 201.895 143.351 197.738 137.988 192.748C132.541 187.684 132.881 179.946 124.979 175.083C103.442 161.85 96.6714 187.871 83.396 198.3C42.3816 230.468 -14.7063 187.524 4.3557 138.731C19.7932 99.1925 75.7294 95.6719 96.5107 132.515C102.737 143.536 102.664 160.601 120.843 159.772C136.449 159.063 142.134 135.316 166.399 140.247C178.07 142.624 190.399 154.701 201.765 142.912C210.864 133.483 204.543 121.175 216.35 112.127C216.606 111.931 216.858 111.752 217.111 111.573C224.554 105.936 236.309 101.462 231.136 89.7515C227.654 81.8727 221.841 81.3912 217.081 75.9282C193.734 49.0896 221.077 7.86716 254.833 20.0996C262.161 22.7592 268.895 29.3207 277.263 26.9092C290.195 23.196 284.538 11.6245 291.326 5.35699C300.185 -2.83396 313.737 0.946339 316.516 12.8208C318.835 22.7285 306.791 28.1516 317.911 39.1134C320.065 41.226 322.959 41.6887 325.19 42.6609C326.395 43.1001 327.51 43.9669 328.382 45.396C330.605 49.0317 327.435 51.8232 327.192 55.6395C326.596 65.0966 333.94 67.3448 341.544 68.758C346.453 69.6717 350.69 67.5964 351.832 62.4642C352.113 61.2015 351.999 60.1345 351.945 58.9616C351.652 55.8421 352.778 52.4367 355.033 50.5417C355.452 50.179 355.875 49.8692 356.286 49.6083C356.937 49.1477 357.654 48.7727 358.394 48.5076C359.274 48.1731 360.128 48.0057 360.947 47.9849C362.245 47.9109 363.572 48.1382 364.842 48.6629C368.579 49.9764 371.95 52.4793 375.959 50.2086C382.023 46.772 378.879 38.441 385.752 32.6622C389.716 29.3245 397.919 29.935 397.831 22.3842C397.793 18.3767 395.298 17.5635 393.767 14.6198C391.608 10.4465 393.032 5.78246 396.507 2.8075C402.819 -2.59224 412.924 3.28735 411.786 11.7266C410.771 19.4001 403.875 18.0599 400.815 23.1116C397.401 28.7501 403.72 32.6809 406.163 36.5446C412.585 46.7147 402.766 59.9278 391.164 57.1361C386.027 55.8886 382.525 50.5146 377.01 52.167C369.606 54.3866 372.653 61.7239 366.695 65.6369C365.347 66.5296 363.862 67.0069 362.36 67.1339C362.27 67.1462 362.164 67.1544 362.079 67.1504C362.03 67.1382 361.989 67.1627 361.941 67.1505C361.855 67.1464 361.782 67.1627 361.696 67.1587C361.383 67.1671 361.057 67.155 360.736 67.1267C360.736 67.1267 360.719 67.1226 360.703 67.1186C360.622 67.0982 360.548 67.1146 360.467 67.0942C357.52 66.8433 354.548 65.7901 351.492 67.9177C345.236 72.2585 349.948 78.8171 348.435 84.6011C344.58 99.3546 323.242 98.0791 321.235 82.9705C320.089 74.3248 326.756 72.4233 327.671 66.0572C328.17 62.53 326.333 58.0388 323.589 55.7962C321.448 54.0502 319.315 54.2101 317.71 51.8366C315.349 48.7549 317.371 43.7037 316.214 40.161C314.759 35.7307 311.107 31.5134 306.373 30.5914C304.626 30.2421 302.396 30.8624 300.556 30.6109C294.409 29.7345 289.931 26.8168 283.871 31.2064C274.299 38.1637 280.005 49.8166 278.538 58.9525C277.083 68.1087 270.544 77.6057 262.774 82.6071C255.376 87.3721 244.267 86.4862 240.614 96.2016C236.546 107.025 252.171 116.013 251.023 130.525C250.812 134.557 249.364 138.765 246.292 142.827C231.383 162.575 212.196 138.264 198.087 151.548C189.179 159.935 194.491 175.799 187.293 187.659C178.969 201.4 159.882 200.946 159.3 217.832C158.795 232.262 180.841 233.679 173.406 255.778C171.657 260.984 168.08 263.604 167.251 269.351C166.434 274.98 169.774 285.507 172.686 290.335C177.288 297.957 179.127 296.754 185.332 300.657C199.996 309.89 184.684 330.213 172.258 319.011C165.255 312.694 170.387 307.381 171.284 300.872L171.289 300.856Z" fill="url(#paint0_linear_64_457)"/>
<defs>
<linearGradient id="paint0_linear_64_457" x1="239.015" y1="-40.249" x2="150.309" y2="315.179" gradientUnits="userSpaceOnUse">
<stop stop-color="#F5B636"/>
<stop offset="1" stop-color="#FF5050"/>
</linearGradient>
</defs>
</svg>
