<svg width="221" height="322" viewBox="0 0 221 322" fill="none" xmlns="http://www.w3.org/2000/svg">
<path d="M247.179 21.9228C245.822 30.7578 253.358 47.7306 261.534 51.9358C265.451 53.958 268.086 53.3136 271.231 54.4307C284.519 59.1232 290.018 75.1513 282.649 87.1407C276.414 97.2992 263.386 95.1759 263.386 111.908C263.385 121.751 273.656 126.094 278.971 131.199C284.371 136.378 283.907 144.157 291.779 149.173C313.235 162.824 320.457 136.756 333.975 126.475C375.741 94.7626 432.491 138.863 412.546 187.645C396.393 227.174 340.069 229.833 319.745 192.444C313.655 181.259 313.998 164.094 295.698 164.641C279.988 165.107 273.895 188.906 249.563 183.563C237.86 180.988 225.649 168.645 214.03 180.324C204.727 189.666 210.891 202.147 198.872 211.062C198.611 211.255 198.355 211.431 198.098 211.608C190.521 217.16 178.626 221.476 183.645 233.337C187.024 241.318 192.863 241.894 197.565 247.464C220.628 274.831 192.472 315.867 158.708 303.029C151.379 300.238 144.708 293.531 136.252 295.825C123.186 299.356 128.694 311.086 121.766 317.284C112.725 325.383 99.1525 321.367 96.5441 309.378C94.368 299.375 106.568 294.11 95.5559 282.907C93.4226 280.748 90.5184 280.237 88.2896 279.224C87.0844 278.763 85.9759 277.873 85.1218 276.422C82.9425 272.73 86.1756 269.972 86.4805 266.137C87.2292 256.633 79.8772 254.255 72.2503 252.714C67.3262 251.717 63.0314 253.738 61.8011 258.883C61.499 260.148 61.5971 261.223 61.6321 262.404C61.8786 265.547 60.6915 268.955 58.3936 270.825C57.9662 271.184 57.5355 271.489 57.1179 271.744C56.4557 272.198 55.7292 272.564 54.9798 272.819C54.0902 273.141 53.2277 273.296 52.4043 273.304C51.097 273.358 49.7656 273.108 48.4962 272.561C44.7577 271.18 41.4061 268.609 37.3376 270.83C31.1831 274.192 34.2149 282.622 27.2093 288.326C23.1693 291.621 14.9279 290.878 14.8967 298.475C14.8714 302.507 17.3688 303.364 18.8627 306.35C20.9682 310.582 19.4627 315.251 15.9196 318.189C9.48493 323.521 -0.586892 317.447 0.69059 308.976C1.83334 301.273 8.74898 302.73 11.9066 297.696C15.4296 292.078 9.13558 288.024 6.7387 284.099C0.439188 273.767 10.5248 260.63 22.1514 263.622C27.2995 264.958 30.7376 270.419 36.3115 268.844C43.7943 266.728 40.8453 259.299 46.9006 255.456C48.2698 254.58 49.7718 254.123 51.2847 254.019C51.375 254.008 51.4816 254.001 51.5675 254.007C51.6165 254.02 51.6578 253.996 51.7068 254.009C51.7927 254.014 51.8666 253.999 51.9526 254.004C52.268 254.001 52.5954 254.018 52.9184 254.052C52.9184 254.052 52.9347 254.056 52.951 254.061C53.0326 254.082 53.1066 254.067 53.1881 254.089C56.1488 254.388 59.1216 255.494 62.2298 253.402C68.5907 249.134 63.9549 242.462 65.5679 236.668C69.6786 221.887 91.1233 223.507 92.9034 238.737C93.9198 247.452 87.1832 249.26 86.1631 255.649C85.6047 259.19 87.3817 263.737 90.1068 266.036C92.2335 267.826 94.3816 267.699 95.9581 270.112C98.2852 273.249 96.1717 278.298 97.2796 281.88C98.6727 286.36 102.28 290.66 107.028 291.662C108.779 292.041 111.033 291.452 112.88 291.734C119.049 292.713 123.508 295.718 129.673 291.398C139.412 284.551 133.856 272.738 135.476 263.571C137.084 254.384 143.811 244.933 151.706 240.025C159.224 235.348 170.385 236.415 174.213 226.699C178.475 215.876 162.899 206.588 164.283 192.008C164.559 187.955 166.082 183.745 169.236 179.707C184.546 160.077 203.463 184.836 217.865 171.695C226.959 163.399 221.865 147.357 229.293 135.54C237.884 121.848 257.077 122.606 257.929 105.629C258.664 91.1213 236.509 89.3475 244.338 67.2351C246.179 62.0259 249.819 59.4461 250.743 53.678C251.654 48.0285 248.46 37.3871 245.607 32.4838C241.098 24.7444 239.229 25.9249 233.049 21.9015C218.443 12.3823 234.167 -7.81983 246.49 3.6441C253.435 10.1092 248.189 15.3733 247.183 21.9065L247.179 21.9228Z" fill="url(#paint0_linear_59_524)"/>
<defs>
<linearGradient id="paint0_linear_59_524" x1="173.668" y1="363.986" x2="268.509" y2="7.84548" gradientUnits="userSpaceOnUse">
<stop stop-color="#F5B636"/>
<stop offset="1" stop-color="#FF5050"/>
</linearGradient>
</defs>
</svg>
