<svg width="289" height="477" viewBox="0 0 289 477" fill="none" xmlns="http://www.w3.org/2000/svg">
<path d="M-29.6848 446.413C-28.6924 433.797 -41.1065 410.621 -53.0891 405.538C-58.8308 403.093 -62.4842 404.278 -67.0408 403.029C-86.2919 397.793 -95.7308 375.737 -86.5798 358.04C-78.8387 343.046 -60.2222 344.682 -61.9706 321.059C-62.9987 307.161 -77.9534 302.102 -85.9914 295.451C-94.157 288.702 -94.3147 277.671 -105.954 271.411C-137.673 254.38 -145.145 291.939 -163.157 307.868C-218.812 357.007 -303.544 300.673 -280.482 229.714C-261.806 172.215 -182.561 162.575 -149.96 213.24C-140.193 228.396 -138.883 252.667 -113.103 249.983C-90.9706 247.682 -84.8551 213.444 -49.9427 218.446C-33.151 220.858 -14.6201 237.009 0.564743 219.305C12.722 205.143 2.71487 188.166 18.7528 174.322C19.1012 174.023 19.4451 173.747 19.7891 173.471C29.9062 164.84 46.2495 157.504 37.9244 141.281C32.3201 130.367 24.0148 130.164 16.7941 122.79C-18.6273 86.562 16.8376 25.6817 65.8492 40.2786C76.4888 43.4533 86.608 52.2253 98.3074 48.1031C116.387 41.7519 107.384 25.7668 116.517 16.2925C128.436 3.91173 148.019 8.16426 152.954 24.8186C157.072 38.7143 140.397 47.4234 157.116 62.089C160.353 64.9144 164.507 65.3326 167.76 66.5301C169.509 67.0548 171.167 68.1951 172.525 70.1548C175.988 75.1403 171.711 79.3723 171.682 84.8188C171.618 98.3155 182.246 100.904 193.176 102.283C200.232 103.176 206.085 99.8739 207.284 92.4816C207.578 90.6629 207.327 89.1552 207.155 87.4919C206.478 83.0805 207.798 78.1449 210.847 75.2636C211.413 74.7131 211.989 74.2376 212.552 73.8326C213.44 73.1238 214.427 72.5311 215.459 72.0927C216.681 71.5444 217.882 71.2355 219.044 71.1381C220.884 70.9253 222.79 71.1386 224.64 71.7795C230.062 73.3375 235.063 76.6171 240.575 73.0563C248.913 67.6673 243.752 56.0818 253.047 47.2953C258.406 42.221 270.12 42.4096 269.37 31.6803C268.985 25.985 265.369 25.0355 262.948 20.9766C259.533 15.2212 261.17 8.47144 265.866 3.95339C274.394 -4.24757 289.248 3.27559 288.33 15.3697C287.522 26.365 277.605 25.0306 273.673 32.4673C269.286 40.7676 278.596 45.8335 282.391 51.1249C292.364 65.0539 279.498 84.6554 262.77 81.647C255.361 80.2988 249.937 72.9474 242.231 75.7539C231.888 79.5233 236.828 89.7041 228.68 95.7617C226.838 97.1426 224.765 97.9443 222.64 98.2495C222.514 98.2743 222.364 98.2947 222.242 98.2961C222.172 98.2828 222.116 98.321 222.045 98.3077C221.923 98.309 221.821 98.3383 221.699 98.3397C221.254 98.3775 220.79 98.3873 220.33 98.3737C220.33 98.3737 220.307 98.3693 220.283 98.3648C220.166 98.3427 220.063 98.372 219.945 98.3498C215.734 98.2372 211.421 96.9858 207.252 100.264C198.717 106.955 205.959 115.89 204.287 124.24C200.028 145.538 169.581 145.492 165.476 124.175C163.131 111.976 172.453 108.72 173.226 99.5923C173.644 94.5355 170.66 88.3015 166.572 85.3401C163.383 83.0348 160.363 83.439 157.885 80.197C154.272 76.0106 156.728 68.6607 154.789 63.7192C152.354 57.5401 146.812 51.846 140.003 50.9273C137.491 50.5753 134.371 51.642 131.734 51.4368C122.921 50.6999 116.312 46.9222 108.059 53.6659C95.0245 64.3516 104.103 80.4485 102.774 93.5606C101.464 106.7 92.9527 120.746 82.3197 128.502C72.1936 135.89 56.3246 135.551 51.9354 149.668C47.0481 165.395 70.0102 176.881 69.5798 197.61C69.6143 203.361 67.904 209.464 63.8721 215.495C44.3083 244.811 15.0124 211.831 -3.94897 231.889C-15.9209 244.552 -7.05334 266.67 -16.3054 284.13C-27.0041 304.359 -54.1816 305.295 -53.6099 329.353C-53.1327 349.913 -21.6672 350.102 -30.4087 382.141C-32.4643 389.688 -37.3339 393.711 -38.0364 401.951C-38.7314 410.023 -33.1094 424.713 -28.5692 431.338C-21.3946 441.794 -18.8785 439.932 -9.73294 444.967C11.8836 456.88 -8.20537 487.046 -26.8023 472.148C-37.2832 463.746 -30.4268 455.766 -29.6892 446.436L-29.6848 446.413Z" fill="url(#paint0_linear_59_523)"/>
<defs>
<linearGradient id="paint0_linear_59_523" x1="38.3574" y1="-44.2218" x2="-58.3296" y2="468.518" gradientUnits="userSpaceOnUse">
<stop stop-color="#F5B636"/>
<stop offset="1" stop-color="#FF5050"/>
</linearGradient>
</defs>
</svg>
