<svg width="271" height="265" viewBox="0 0 271 265" fill="none" xmlns="http://www.w3.org/2000/svg">
<g clip-path="url(#clip0_6_892)">
<path d="M270.77 132.501C267.757 309.182 3.16005 309.153 0.171265 132.494C3.18466 -44.181 267.781 -44.1541 270.77 132.501Z" fill="#CE301B"/>
<path d="M229.077 35.4482C229.907 36.5538 229.169 37.765 227.86 36.9605C226.502 36.5898 221.905 32.6483 222.688 31.1697C223.064 30.5742 225.068 32.1719 225.603 31.3338C226.124 29.9698 218.169 24.952 216.675 24.9789C209.019 24.5048 212.375 21.1768 209.118 20.7498C207.632 20.6892 204.355 23.2262 204.444 24.7115C204.601 27.2485 204.319 29.954 206.156 32.1203C207.722 33.8708 207.122 36.183 206.227 38.1582C206.943 38.2302 207.986 38.156 208.08 39.0256C208.068 39.4548 207.617 39.3694 207.319 39.4211C204.954 39.5447 203.48 41.0031 204.377 43.5041C204.872 45.8209 207.502 46.4613 207.702 48.5534C207.757 49.9152 208.203 51.2589 209.735 51.7398C210.807 52.2319 211.916 53.8633 212.458 51.8679C212.878 50.659 212.487 49.0905 213.632 48.2276C213.883 47.9939 214.218 47.9602 214.288 48.2905C214.632 49.9713 216.135 50.8522 216.766 52.2993C217.771 55.4902 221.272 55.4655 219.69 57.0295C218.751 58.0452 218.822 58.8609 219.771 59.8339C220.021 60.0923 220.272 60.4609 220.668 60.3777C221.538 59.9238 220.831 58.6834 221.661 58.0048C221.994 58.8564 222.746 60.7732 223.109 58.8047C223.453 56.8475 223.918 54.9959 226.091 54.3307C227.261 54.106 226.836 52.1533 225.648 52.9825C224.549 53.8701 224.138 52.6476 223.543 52.2027C221.831 50.9825 224.126 50.0343 223.225 48.3669C222.637 45.7939 219.397 46.2299 218.599 43.9154C218.261 42.7626 218.382 41.4525 217.442 40.511C217.344 40.4121 217.39 40.0211 217.498 39.8548C218.8 37.7987 218.411 36.1314 216.514 34.7426C214.346 31.6663 221.766 32.3337 220.035 38.9942C218.988 42.4165 223.31 41.6862 223.135 44.7333C223.109 45.1648 223.334 45.7175 223.735 45.7557C225.706 45.9512 227.325 48.45 229.641 46.6344C230.234 46.1692 231.299 46.4097 231.507 47.3961C231.827 49.614 228.894 47.0456 228.337 50.0702C227.623 52.1241 231.33 52.1825 231.178 53.1802C231.068 53.5353 230.735 53.3465 230.478 53.3218C226.704 53.0499 230.046 58.6519 231.956 59.171C229.73 63.4832 229.057 57.7419 226.766 60.762C224.728 63.2068 223.956 61.3013 221.688 61.5575C215.625 61.9979 219.811 54.2341 214.887 53.8611C213.657 53.8768 214.113 55.1262 213.84 55.8363C213.549 56.6812 213.25 58.1396 214.314 58.4519C216.176 58.9508 216.684 60.4227 217.348 62.0226C217.48 62.4473 218.359 62.4406 218.026 63.0361C217.563 63.6945 216.453 63.508 215.717 63.6315C212.182 63.7933 212.171 63.7933 212.995 67.3393C213.65 69.3549 210.449 68.4201 210.245 70.6942C210.068 71.7818 209.227 72.1414 208.661 72.829C207.657 74.0469 207.098 72.6717 206.339 72.5571C205.818 72.4807 205.221 72.0313 204.829 72.5751C204.458 73.0896 205.1 73.4762 205.308 73.9143C206.728 75.3682 205.348 76.0424 203.983 75.1817C203.42 74.7705 202.865 73.8919 202.158 74.602C200.619 75.3705 201.476 77.2086 202.959 77.1951C204.362 77.1906 205.176 77.8378 205.429 79.276C206.784 82.0264 211.547 79.5546 209.312 86.251C208.417 91.4913 202.174 85.5477 197.27 87.3341C191.563 89.6981 200.294 92.2261 196.565 96.3495C193.702 100.718 199.225 101.033 198.261 102.743C198.091 103.084 197.518 103.354 197.912 103.817C198.914 105.221 201.482 102.893 202.062 103.994C202.243 104.743 202.834 104.873 203.357 105.104C205.384 106.12 202.975 110.646 201.292 111.284C198.053 113.169 197.207 116.493 197.252 119.994C197.326 126.11 187.151 124.176 187.97 130.769C188.078 131.782 187.688 132.867 186.753 133.29C183.849 134.766 185.136 138.478 183.653 140.914C182.198 143.386 185.471 144.719 184.668 146.97C184.5 147.359 184.691 147.766 185.035 147.939C186.071 148.458 185.666 149.065 185.216 149.741C184.181 151.305 183.402 153.004 182.787 154.795C181.8 156.756 183.87 157.977 183.183 159.365C182.749 160.053 182.997 160.626 183.429 161.165C184.825 162.902 186.134 164.736 187.664 166.336C190.409 168.628 189.415 173.151 193.053 174.576C195.163 175.637 196.811 177.771 199.167 178.473C202.464 179.506 202.802 174.783 207.643 177.336C208.795 177.92 209.639 177.745 210.637 177.052C212.218 175.605 221.829 172.578 221.381 176.567C220.849 184.009 225.162 176.39 227.24 179.302C228.981 181.699 224.171 184.081 223.404 187.29C222.851 188.744 222.981 190.034 223.903 191.407C227.29 196.032 225.411 201.243 223.334 205.968C222.209 209.921 219.999 213.065 216.849 215.51C210.762 220.166 215.999 223.583 213.382 227.415C210.78 230.7 208.943 234.453 207.842 238.531C207.1 241.282 205.84 243.558 203.766 245.389C201.664 247.048 204.397 247.441 205.849 247.326C227.041 234.334 245.135 216.031 255.249 193.205C260.958 184.812 264.146 175.268 266.69 165.399C265.012 166.08 265.012 163.889 265.547 162.799C266.238 160.451 265.377 158.21 265.142 155.934C264.833 152.932 264.441 149.972 264.775 146.91C264.424 139.685 262.372 132.47 260.544 125.497C260.269 124.391 259.797 123.241 260.464 121.958C263.296 127.942 265.813 133.953 265.815 140.741C266.439 145.633 267.504 150.429 266.515 155.366C266.513 155.925 265.743 160.992 266.889 159.687C267.325 159.159 267.822 158.684 268.303 158.195C277.549 113.533 260.958 64.9102 229.082 35.4482H229.077ZM253.949 81.4646C253.994 79.0108 256.023 78.7569 256.484 81.1838C256.629 82.6983 253.728 83.1612 253.949 81.4646ZM250.289 81.3096C251.489 78.0018 253.31 83.1073 253.538 84.4488C253.893 86.1274 254.178 86.269 255.547 85.4375C256.486 84.8668 257.515 85.1926 257.914 86.4465C258.533 89.1026 261.213 90.1835 261.891 92.7362C262.784 95.6732 259.305 94.8013 258.245 93.2328C256.455 91.0261 254.694 92.498 253.319 94.3024C252.182 95.444 250.73 95.1676 251.489 93.3631C250.549 91.2284 250.596 89.0846 251.097 86.8645C250.867 85.1454 249.357 83.2107 250.287 81.3118L250.289 81.3096ZM243.039 212.887C241.791 214.071 239.243 213.642 241.428 211.919C242.918 210.474 243.614 208.636 244.084 206.645C244.182 206.227 244.048 205.433 244.724 205.519C246.791 206.494 244.005 211.316 243.039 212.887ZM247.75 196.515C245.073 199.589 246.256 203.492 244.84 203.081C244.008 202.896 242.795 202.065 243.111 201.225C244.086 198.609 243.755 195.553 245.587 193.261C245.983 192.769 246.35 191.877 247.175 192.349C248.983 193.214 249.055 195.209 247.753 196.515H247.75ZM252.448 185.306C251.634 187.955 249.41 185.236 250.26 183.778C251.339 182.419 252.14 181.828 253.732 182.463C252.851 183.263 252.976 184.441 252.448 185.306ZM262.412 115.711C262.578 119.045 259.072 115.448 258.303 118.086C258.097 118.704 257.421 118.466 256.981 118.257C254.401 117.041 251.591 116.263 249.527 114.057C249.184 113.812 246.408 114.762 245.885 115.308C245.254 115.965 245.8 116.522 246.043 117.095C246.298 117.935 247.536 119.084 246.817 119.877C246.319 120.358 245.63 119.791 245.066 119.52C243.173 117.917 241.115 116.574 239.847 114.365C239.677 114.066 239.218 114.019 238.838 114.079C236.343 114.473 234.334 112.949 232.14 112.192C231.657 112.025 231.082 111.616 231.142 110.985C231.193 110.448 231.833 110.486 232.231 110.3C233.35 109.772 233.704 108.201 232.759 107.399C230.129 105.399 234.56 104.062 232.238 103.401C230.256 102.819 228.397 102.673 226.444 103.684C224.518 104.68 222.33 104.107 220.267 104.293C217.898 104.504 215.654 104.826 213.536 106.169C212.48 107.064 205.711 108.918 205.972 106.565C206.026 105.56 207.08 104.772 207.979 104.972C209.97 105.414 212.999 103.819 213.818 101.884C214.786 99.2506 211.218 95.3451 215.491 94.2822C222.578 93.2575 215.556 87.6262 219.151 88.3678C219.997 88.4532 220.755 89.4531 221.578 88.9251C224.927 87.1633 225.039 83.2713 226.346 86.0083C228.164 88.6981 230.012 91.871 232.858 93.4935C235.29 94.3226 236.701 96.3338 238.249 98.2169C239.343 99.864 236.847 101.066 235.533 101.17C235.048 101.255 234.511 101.23 234.184 101.711C232.809 103.74 236.325 102.311 237.413 105.125C237.551 105.396 237.73 105.769 238.131 105.581C238.446 105.432 238.585 105.084 238.571 104.756C238.464 102.257 239.882 100.046 239.822 97.5562C239.822 96.2462 241.043 98.1922 241.929 96.4484C243.377 94.235 231.12 90.0621 230.728 83.9927C231.044 83.7275 231.267 83.9747 231.437 84.15C235.164 88.3633 242.149 90.4576 242.882 96.7158C242.943 97.7427 243.415 98.5607 244.09 99.3315C245.507 100.624 245.708 104.291 247.061 105.077C247.636 105.118 247.677 104.372 247.927 103.958C248.415 103.37 248.343 102.477 248.415 101.808C250.164 100.592 248.406 99.9584 247.97 99.1944C247.558 98.4776 246.894 97.9225 246.388 97.2574C245.444 94.9945 248.545 98.9697 249.014 94.5204C249.788 97.1136 251.932 99.0371 251.927 101.893C253.119 102.832 253.079 104.895 254.766 105.345C255.58 105.56 255.372 106.439 255.844 106.85C256.721 106.572 256.69 105.558 257.222 105.012C257.981 105.43 257.744 106.866 258.643 106.94C259.412 106.992 259.397 105.877 259.84 105.403C261.918 103.5 262.562 114.497 262.415 115.713L262.412 115.711ZM265.262 176.691C265.262 176.691 265.271 176.711 265.274 176.724L265.305 176.7C265.292 176.695 265.276 176.691 265.262 176.691Z" fill="url(#paint0_linear_6_892)"/>
<path d="M198.688 72.2335C199.091 70.7504 199.65 69.5212 200.78 68.719C199.362 67.2471 197.724 68.5572 197.963 65.2764C198.077 64.0944 200.753 64.9618 200.791 63.063C200.847 62.1417 199.646 60.953 198.534 60.744C198.176 60.6766 197.726 60.744 197.576 60.3485C196.896 58.58 195.35 57.6385 194.1 56.4542C192.722 55.1509 193.163 53.4184 192.834 51.8881C193.538 49.8275 198.901 49.4545 195.069 52.8409C195.975 53.2903 196.778 52.8634 197.588 52.778C199.424 52.1802 200.33 53.4521 199.212 55.0206C198.574 56.0498 198.903 56.5688 199.954 56.8228C201.062 57.0902 202.093 57.4385 201.885 59.007C201.86 59.1845 202.048 59.5081 202.212 59.5822C204.726 61.0339 206.221 63.6832 208.625 65.3169C209.576 66.3011 208.498 68.2831 208.431 69.5257C208.221 70.4672 207.46 70.4178 206.789 70.3504C204.76 70.0381 205.2 70.7729 203.831 71.283C202.107 71.474 200.337 71.3279 198.686 72.2335H198.688Z" fill="url(#paint1_linear_6_892)"/>
<path d="M196.388 65.3619C196.111 68.3191 194.637 66.4315 193.031 67.9708C191.686 69.3011 188.359 67.5034 190.286 65.809C193.089 63.2878 189.225 64.5372 188.876 62.8563C188.829 62.0496 189.574 61.6856 190.25 61.5463C191.183 61.353 190.845 60.8946 190.603 60.3463C190.118 59.243 190.487 58.6677 191.619 58.9261C192.977 59.2362 194.274 59.789 195.635 60.1441C196.451 60.3575 196.294 61.3463 195.854 61.7822C194.162 63.317 196.491 63.8451 196.388 65.3619Z" fill="url(#paint2_linear_6_892)"/>
<path d="M185.641 7.62899C185.487 7.61775 185.328 7.52787 185.183 7.44922C185.335 7.50989 185.487 7.56832 185.641 7.62899Z" fill="url(#paint3_linear_6_892)"/>
<path d="M173.305 3.1864C173.28 3.21153 173.257 3.2435 173.241 3.28005C173.255 3.2435 173.277 3.21153 173.305 3.1864Z" fill="url(#paint4_linear_6_892)"/>
<path d="M190.35 63.8585C193.368 64.6742 187.603 66.4472 190.507 68.0493C192.107 69.3639 193.216 67.2471 194.74 67.2336C196.147 67.3999 196.207 66.3348 196.388 65.3595C196.422 64.9124 196.306 64.4832 196.001 64.1933C193.702 62.3484 197.695 61.2721 195.637 60.1418C194.348 60.0406 189.458 57.2093 190.606 60.344C190.847 60.8923 191.185 61.3507 190.252 61.544C188.411 61.872 188.422 63.6832 190.35 63.8562V63.8585Z" fill="url(#paint5_linear_6_892)"/>
<path d="M194.1 56.4565C195.35 57.6407 196.896 58.5823 197.576 60.3508C197.726 60.744 198.178 60.6766 198.534 60.7463C199.646 60.9575 200.847 62.1462 200.791 63.0675C200.746 64.9731 198.066 64.099 197.963 65.2809C197.724 68.5595 199.364 67.2494 200.78 68.7235C199.65 69.5257 199.091 70.7549 198.688 72.238C200.337 71.3347 202.109 71.4785 203.834 71.2875C205.205 70.7751 204.755 70.0448 206.791 70.3549C207.464 70.4223 208.223 70.474 208.433 69.5302C208.502 68.2943 209.576 66.3011 208.628 65.3214C206.223 63.6877 204.726 61.0384 202.214 59.5867C202.051 59.5126 201.863 59.1912 201.887 59.0115C202.095 57.443 201.064 57.0947 199.957 56.8273C198.905 56.5734 198.576 56.0543 199.214 55.0251C200.337 53.4701 199.418 52.1735 197.59 52.7825C196.782 52.8679 195.979 53.2948 195.071 52.8454C198.903 49.459 193.541 49.832 192.836 51.8926C193.165 53.4252 192.724 55.1554 194.102 56.4588L194.1 56.4565Z" fill="url(#paint6_linear_6_892)"/>
<path d="M185.641 7.62899C185.487 7.61775 185.328 7.52787 185.183 7.44922C185.335 7.50989 185.487 7.56832 185.641 7.62899Z" fill="url(#paint7_linear_6_892)"/>
<path d="M8.51123 87.7274C14.9787 69.1977 25.7415 52.223 39.5959 38.3875C45.1015 38.8414 44.1015 34.846 46.8911 31.5563L46.8621 31.5832C47.5265 31.4866 47.6898 30.817 48.1305 30.4642C48.9135 29.6305 49.8039 28.9294 50.7345 28.2732C51.4772 28.471 52.0902 28.8372 52.1976 29.6687C52.6383 31.0776 49.6428 31.0844 51.0186 32.1607C52.4884 33.0573 52.9716 34.0213 54.2289 32.318C56.4638 30.7788 60.1662 33.4506 61.5509 30.3563C62.0722 29.0417 64.8059 26.7699 66.0229 28.1631C66.3428 28.7316 65.9088 29.199 65.5129 29.5698C64.7657 30.2687 63.9849 30.9316 63.1572 31.6619C68.6269 31.7248 65.4614 27.0373 69.3137 24.9318C71.6739 23.3678 73.9647 21.7049 75.817 19.5005C76.6515 18.4578 79.6514 16.9568 80.4657 18.6039C80.817 19.9072 79.1772 20.5364 78.1615 20.6892C73.1974 21.2442 72.6985 26.3362 69.8484 29.5855C70.8439 29.5788 71.8573 28.9069 72.4077 29.7338C72.5173 30.4754 70.7253 30.5585 70.3965 31.3091C68.8753 34.4505 75.1772 30.0215 75.3696 28.8822C76.5955 26.0396 80.8662 28.7092 78.8416 29.617C74.5553 30.199 78.0206 34.5135 74.9423 34.5584C72.5933 34.0955 72.0363 38.2414 71.0497 35.8954C70.7477 35.1629 70.1571 35.1 69.477 35.3921C66.882 36.5538 72.7052 38.8212 72.4166 40.6031C72.43 41.4525 71.647 42.0233 70.958 41.5289C69.7656 40.6773 68.8708 41.2166 67.8842 41.8301C66.2645 42.839 66.2466 42.8255 65.6605 41.0458C65.5308 40.6526 65.3764 40.3357 64.9156 40.5919C63.3697 41.7806 60.0141 40.538 59.5241 42.7716C59.4413 43.5424 58.9335 43.8907 58.2154 44.1176C54.7949 45.1985 52.2088 47.4613 49.9493 50.1534C47.8263 52.4162 51.8195 53.2679 49.6853 55.6161C49.1641 56.27 49.3766 56.6767 50.1305 56.5981C54.1014 56.3284 52.8217 60.4541 58.1975 60.6766C60.0991 60.962 60.0767 60.9822 59.6069 62.7911C59.325 63.8743 59.372 64.9349 60.0252 65.9079C61.0431 66.9371 59.9223 67.8876 58.8261 67.1303C59.1326 70.1325 61.1013 71.5504 62.8865 68.4337C65.1415 65.8113 62.4257 63.1012 65.2288 61.6968C70.5218 59.1014 70.9647 58.9239 70.5911 52.9128C70.5889 51.9646 70.8059 51.0927 71.7701 50.668C72.3025 50.432 72.2622 50.0051 72.3249 49.5556C72.6605 47.949 73.8976 43.5469 76.0765 44.3109C77.0318 44.6592 78.0116 44.6592 79.0049 44.4862C81.1525 43.9581 81.251 46.7917 83.1726 47.1198C87.5216 49.104 82.4948 51.5803 83.0563 52.7398C83.6268 53.3645 84.3181 51.7691 85.5127 53.351C87.0048 55.2701 90.5171 52.369 91.3314 50.7713C93.9622 46.922 95.5752 54.8813 95.7721 56.7554C95.9197 57.9441 94.9555 58.225 93.8907 58.9958C97.5595 58.9261 96.8593 61.4631 98.6669 61.6429C99.4812 61.7799 101.032 62.0923 100.989 63.0878C100.855 63.9507 97.875 62.7327 96.8414 63.8608C95.4119 64.7551 96.1501 66.4719 97.7452 65.6944C98.8123 65.3506 99.8481 64.8944 100.969 64.7304C103.282 64.045 105.629 67.9415 103.007 68.8853C100.727 69.5482 98.7005 70.6471 96.8459 72.1189C94.0942 73.5121 90.6916 72.2425 87.7207 73.2605C85.8371 73.8087 83.2733 72.038 81.9445 74.1413C80.4143 76.2401 78.4814 74.0739 76.4255 77.2199C75.9401 77.867 75.4412 78.5075 74.9871 79.1771C74.7723 79.4917 74.7253 79.8692 75.09 80.1434C75.8573 80.5411 76.4949 79.4018 76.9982 78.9614C77.9199 77.7727 78.8416 76.6289 80.5261 76.5547C80.8886 76.539 81.157 76.2446 81.3919 75.9548C82.4881 74.6065 85.4187 74.4357 86.6379 75.6604C87.4903 76.3884 86.8952 78.0446 85.714 77.7951C84.8348 77.6266 83.4657 77.2468 83.1212 78.4019C82.9154 79.3883 84.8147 79.067 84.667 80.1299C84.3561 82.1298 86.3874 82.4309 87.1883 83.6242C87.412 83.9567 87.8549 83.7927 88.1346 83.5006C88.9891 82.541 86.2912 82.1411 86.7923 81.3546C87.5104 80.5074 89.2151 81.4332 89.4589 82.4219C89.8661 83.4624 90.3314 83.4309 90.9086 82.5343C91.2195 82.0512 91.3113 81.0917 92.1569 81.4377C93.0652 81.813 93.8124 82.5455 94.2754 83.4376C94.8839 84.341 91.2822 84.0196 89.6826 85.9117C87.8885 86.9297 86.6357 85.2196 84.0943 87.6487C83.336 88.2959 81.7924 89.2936 81.0407 88.1701C80.7543 87.6195 81.119 87.224 81.4814 86.8735C82.3158 86.0713 83.3896 85.7117 84.421 85.2668C84.8125 85.0983 85.6447 85.1747 85.3561 84.4601C84.6133 82.4691 82.6917 84.2736 81.5731 84.9567C80.6537 85.4803 79.4702 85.5117 78.9333 86.7342C77.9937 87.8892 76.4926 85.2151 75.1369 87.3678C74.1906 89.188 70.5441 88.2802 71.6314 91.1655C72.1795 92.6351 74.3495 94.7069 71.128 94.0193C63.8686 92.4508 64.8261 100.884 61.5263 97.9742C61.4324 99.7157 63.1326 101.176 61.9581 102.617C60.8999 103.21 59.4123 101.507 60.117 100.439C60.3228 100.057 60.4995 99.709 60.0566 99.3764C59.3586 98.6057 58.8731 99.3247 58.9291 100.111C58.7725 101.97 58.9604 103.819 59.3563 105.621C60.0141 109.72 55.211 111.745 52.3967 113.612C46.3005 117.401 50.7323 121.722 50.786 126.942C50.7099 128.292 52.0499 130.825 50.0701 131.22C47.3833 131.879 48.0768 129.018 46.5265 127.623C45.3117 125.56 47.3833 122.899 45.6093 120.587C43.871 117.801 43.6608 123.223 41.6675 120.69C39.9114 118.358 37.795 119.789 35.3342 119.275C34.9382 119.266 34.4394 119.308 34.285 119.722C33.9987 120.398 35.8398 120.946 36.0837 121.731C36.7235 122.67 35.6854 123.812 34.7235 123.218C33.4081 122.569 32.936 120.937 31.4841 120.439C27.8019 118.459 28.3925 123.578 25.8153 124.758C22.8892 127.029 24.1151 135.62 24.6073 139.051C25.1397 141.856 27.039 143.849 28.7951 145.874C29.822 147.058 32.1642 146.249 33.115 144.588C33.5758 143.784 33.6452 142.872 33.8868 142.006C34.3946 140.2 37.106 138.838 38.8621 139.521C40.8174 140.323 38.2134 142.247 38.9158 146.296C38.1664 152.496 34.5848 152.478 43.0075 151.95C47.1954 151.651 46.5914 156.68 46.4549 159.538C46.2088 161.988 48.8755 166.594 51.6204 165.311C53.6741 163.725 56.5711 162.799 58.1215 165.484C58.3989 165.875 58.6114 166.439 59.2132 166.345C61.1997 165.246 60.1371 160.511 63.3183 160.952C66.8797 161.556 65.8462 157.837 69.3137 159.21C69.4122 160.275 67.6404 160.091 67.8686 161.17C67.9804 161.604 68.4994 161.633 68.8954 161.678C71.6851 162.037 69.967 159.422 71.4725 159.253C72.043 159.237 72.5889 160.109 73.2264 160.401C74.0944 160.799 74.8685 161.15 75.2734 162.152C75.5061 162.727 76.2935 162.635 76.8707 162.594C79.4411 162.006 81.0295 164.976 83.2062 163.17C84.3069 162.379 86.2017 160.696 87.4567 162.026C87.8236 162.579 87.3538 162.954 87.0205 163.3C85.0899 165.547 92.2509 162.835 89.5775 166.484C90.7587 167.313 92.4857 165.615 93.2329 167.475C97.0338 167.974 94.696 170.812 100.025 172.017C104.421 173.1 108.855 171.725 111.139 176.72C111.864 179.396 116.45 180.266 113.161 182.284C112.262 182.868 108.537 185.234 109.499 186.405C110.181 187.09 111.092 186.34 111.499 185.731C111.875 184.353 117.02 181.864 117.264 183.886C117.43 184.881 116.626 186.182 115.445 186.052C114.181 186.239 114.454 187.991 115.716 187.598C118.166 187.189 117.758 182.942 120.642 185.07C121.286 185.45 121.834 185.281 122.445 185.18C126.174 184.742 124.08 187.661 124.846 188.654C125.226 188.996 125.729 188.91 126.096 188.636C128.255 187.198 130.859 189.933 133.807 188.888C136.977 188.119 137.118 192.373 140.23 192.551C141.311 192.76 142.778 192.584 143.228 193.71C143.832 195.218 144.275 196.951 143.649 198.582C141.322 205.427 136.228 205.49 135.376 208.995C134.503 215.575 136.939 218.04 131.342 223.467C130.83 224.033 130.145 223.754 129.602 223.408C126.801 221.878 128.087 225.262 123.168 224.947C117.776 225.815 123.714 229.925 120.705 232.379C120.096 233.118 120.219 234.758 118.886 234.812C114.998 235.374 119.55 241.877 112.425 239.738C111.546 239.455 110.653 239.205 109.653 239.163C111.043 240.576 114.244 242.302 113.3 244.567C111.933 246.695 109.206 243.715 107.96 244.924C107.222 245.695 107.723 246.67 108.031 247.477C109.606 251.09 105.978 254.439 109.984 254.913C112.783 255.776 111.188 259.492 114.434 260.331C114.595 260.382 114.752 260.517 114.861 260.654C115.208 261.083 115.953 261.468 115.524 262.094C115.17 262.614 114.481 262.265 114.034 262.036C112.756 261.387 111.412 261.207 110.002 261.124C107.942 261.005 107.609 260.692 107.085 258.722C106.982 256.683 98.5528 257.85 101.768 255.227C105.946 251.868 91.9332 247.232 92.7654 241.214C92.7788 238.846 91.837 236.675 90.2509 235.093C83.1928 228.525 89.4276 215.24 77.6067 212.919C70.0028 211.761 68.5061 203.195 63.3988 198.62C61.4145 195.719 54.7233 194.099 57.9581 189.708C58.4548 189.108 58.2959 188.484 57.7747 188.018C55.0499 185.722 56.9783 182.733 57.3161 179.942C57.2892 179.473 57.8172 179.241 58.1751 178.969C59.7478 177.769 60.3787 175.954 59.3161 174.347C57.985 172.331 57.4257 170.098 56.7322 167.868C56.2512 166.327 54.994 165.801 53.8262 166.504C52.381 167.421 53.2557 170.898 50.6741 169.336C49.9895 168.943 49.5332 168.316 49.0813 167.704C47.9023 166.113 46.4124 165.039 44.4258 164.763C43.6473 164.655 43.361 164.298 43.229 163.462C42.8532 161.123 41.2022 159.509 39.6876 157.853C36.8353 157.033 32.8264 156.878 31.2246 153.923C26.9182 144.159 29.6341 156.377 24.2068 151.822C21.4238 149.763 18.925 147.337 15.9787 145.483C14.925 144.82 14.5917 143.703 14.8467 142.505C15.5425 139.24 14.8803 136.245 13.1935 133.425C11.1175 129.953 10.2472 126.106 9.64768 122.16C9.28527 119.778 8.44635 117.562 7.16225 115.495C5.76406 113.187 5.70589 110.486 5.81998 107.891C5.1399 100.909 9.33896 94.6844 8.50676 87.7274H8.51123ZM54.0566 85.1275C56.6315 87.5656 56.6808 84.0444 54.7635 83.323C52.4034 82.5276 50.3206 83.9904 50.6294 80.8063C51.1014 77.4918 47.012 74.0964 44.6205 77.1008C43.5042 78.9749 41.5444 78.8603 39.8711 79.813C38.6832 80.6512 40.54 82.2422 41.6093 81.5883C42.2872 81.2984 42.7816 80.7636 43.2894 80.2535C45.1954 78.2041 44.8285 83.2511 47.4795 81.2669C49.2177 79.8917 50.2602 82.1545 48.2625 82.7747C46.475 83.0848 43.4773 83.6286 43.7771 86.0533C43.9561 87.1229 43.701 88.1004 43.0299 88.8307C41.9382 90.0194 42.6652 91.4149 42.3834 92.6823C42.3028 93.0463 42.6048 93.1182 42.9136 93.0351C46.909 92.4104 43.1507 87.3364 46.6495 86.0982C48.9269 85.5117 48.4482 82.5388 50.0925 83.8871C51.3564 84.9589 51.0947 86.2578 49.4683 87.2375C49.0164 87.5094 48.1999 87.7184 48.645 88.5004C49.3833 89.9767 51.0388 86.6106 51.2155 88.8172C51.2177 89.2285 50.9739 89.8487 51.6182 89.9093C52.126 89.9565 52.3251 89.379 52.4392 88.9611C52.7971 87.6465 53.4705 86.4757 54.0611 85.1342L54.0566 85.1275ZM36.8443 71.6695C36.9606 72.2672 36.6944 73.1841 37.4572 73.2582C38.4818 73.5616 38.7883 66.7371 39.4953 65.5349C39.6653 64.9978 39.8107 64.2922 39.0366 64.0653C37.4886 63.6383 36.7458 66.009 36.9763 67.1528C37.3364 68.6988 37.0434 70.1752 36.8443 71.6672V71.6695ZM39.153 44.3805C37.9494 44.2412 37.0076 44.3333 36.7481 45.6479C36.4684 46.531 34.719 47.1198 35.5378 48.1961C36.4617 49.2433 40.5691 44.3109 42.2447 44.3244C42.6966 44.2322 43.2066 43.6704 42.927 43.1873C42.0948 42.0817 40.5087 45.0816 39.1552 44.3805H39.153ZM57.3161 90.9497C56.551 90.3655 55.7166 90.3205 54.9917 90.588C53.9 91.2756 49.5377 91.4846 49.569 92.6845C51.3587 96.1765 54.8262 91.0868 57.3183 90.9497H57.3161ZM58.6405 89.5408C60.4123 89.8666 60.8731 89.2105 61.6606 88.2599C62.7165 87.3723 61.9805 86.4892 60.8306 87.1117C58.3407 88.6487 56.1662 86.9836 56.2356 88.4712C56.2445 89.743 57.6986 89.7161 58.6427 89.5408H58.6405Z" fill="url(#paint8_linear_6_892)"/>
<path d="M99.0271 8.92103C102.112 7.47164 101.34 3.33021 105.503 3.69199C108.7 3.91221 111.284 1.42241 114.474 1.9707C117.526 2.08306 120.483 2.38867 123.396 3.4111C124.855 3.89423 126.828 2.98415 128.34 3.46728C131.555 4.9324 132.411 1.32353 135.772 2.07632C138.481 0.701083 141.322 1.83363 143.962 2.54147C145.572 3.20212 143.333 3.58188 144.076 4.5459C144.575 5.30542 146.06 3.16617 146.821 3.91895C147.615 4.69421 145.494 5.31666 146.143 6.04023C146.711 6.49414 147.181 6.03124 147.474 5.57507C148.423 3.07179 154.892 3.23358 152.935 5.56159C149.711 7.77051 152.707 8.21543 150.751 9.34798C149.027 10.7682 152.487 10.4963 153.266 10.5255C154.402 10.494 155.246 11.0153 155.941 11.8513C157.807 14.0377 151.53 11.667 151.55 13.1861C151.494 13.8018 152.094 13.8287 152.51 13.8939C157.44 13.4849 153.644 16.8017 157.451 17.4106C157.856 17.4825 158.447 17.487 158.503 18.0466C158.413 18.851 157.241 19.0533 156.731 19.5881C155.686 20.4532 154.7 20.9026 153.684 19.5117C152.95 18.3252 151.376 20.2083 152.465 20.9948C153.628 22.0801 155.051 22.788 156.469 23.4621C157.543 23.6868 158.832 25.68 157.143 25.9497C153.78 26.4822 154.861 22.8913 153.132 24.725C152.528 25.5025 151.964 26.2957 151.033 26.8597C153.422 27.3968 155.787 26.6935 158.387 26.9002C155.975 28.4664 154.375 30.7787 151.288 30.3113C149.928 30.3046 149.49 32.682 147.827 31.4843C146.282 30.5989 145.953 30.6911 144.81 32.145C143.217 33.8932 141.769 36.3763 139.282 36.8145C138.21 36.9785 137.517 36.756 137.411 35.2864C136.79 36.2999 136.64 37.7223 135.15 36.7965C134.561 36.6302 134.644 38.1178 133.441 38.0526C130.492 38.4234 135.165 40.5177 132.599 41.4907C131.349 42.7581 132.042 43.8749 129.414 43.9693C130.454 45.2546 130.409 46.1782 129.398 47.4725C128.476 48.6725 126.002 51.9443 124.942 49.3556C124.159 46.4771 121.042 49.6635 119.206 45.9894C119.112 45.7894 119.022 45.4951 118.859 45.4321C117.282 44.8142 117.21 43.0637 116.251 41.9738C115.62 41.257 115.664 40.4323 116.855 40.1829C117.577 40.12 117.707 39.1582 117.378 38.7313C116.725 38.5695 116.336 39.3425 115.823 39.6301C115.378 40.1672 114.667 39.8571 114.893 39.1649C115.183 38.3178 114.799 37.6819 114.497 36.9066C113.68 34.8482 113.6 30.6776 116.548 30.4214C119.727 30.4012 120.756 26.7519 118.06 27.671C116.998 28.2215 114.356 29.0417 114.322 27.1451C114.054 25.107 116.215 25.5295 117.521 25.7946C120.714 26.2575 119.152 21.7296 117.454 23.1183C116.942 23.5497 116.362 23.9205 115.765 24.2239C114.96 24.6329 114.32 24.1362 113.904 23.5587C113.483 22.9722 114.23 22.7498 114.528 22.4217C115.385 21.4891 116.72 20.9656 115.946 19.3971C115.338 17.8218 114.461 16.3837 113.897 14.804C113.624 13.3771 107.043 14.0197 105.754 14.2355C105.3 14.3276 104.712 14.6781 104.434 14.0557C104.175 13.4737 103.83 12.8377 104.322 12.1524C104.942 11.2917 105.325 10.2626 106.244 9.61539C106.472 9.4536 106.727 9.11653 106.407 8.81092C106.17 8.58396 105.826 8.74351 105.682 8.92328C105.027 9.74572 103.586 9.50753 103.264 10.8041C102.479 11.9501 101.611 9.57494 99.725 11.8153C98.3716 13.0243 96.7765 14.4399 94.8929 14.2062C93.3112 14.4422 87.1681 13.2625 87.0943 15.2624C87.4522 16.3455 90.0831 14.9231 90.9913 15.0017C94.0047 14.186 94.1949 16.9253 91.4768 17.2713C89.5081 17.3837 87.5059 18.0938 85.544 17.2376C84.752 16.8938 83.9489 18.1297 83.2823 17.3342C82.5507 16.4286 81.7744 16.6062 80.8885 17.0129C79.6715 17.7836 79.2532 16.0713 80.6894 15.9882C82.4344 15.9006 84.2039 15.977 85.2889 14.3501C86.5641 13.0535 84.1435 13.1231 84.4858 11.9232C84.6849 11.3816 85.2666 11.5142 85.676 11.5973C88.1256 12.0962 90.5618 12.222 93.007 11.5614C93.5618 11.4108 94.3291 11.5254 94.5103 10.894C94.7877 9.75696 91.479 9.31427 93.5886 8.32554C95.3783 7.58849 97.1412 6.82672 98.7116 5.65597C99.1098 5.35935 99.7452 5.0133 100.188 5.49643C100.951 6.16157 98.4566 8.53452 98.6244 9.06035C98.7653 9.18844 98.9286 9.09406 99.0226 8.92777L99.0271 8.92103ZM120.027 3.82907C116.846 3.52571 114.951 5.77282 112.166 6.4537C111.667 6.53909 110.955 6.4919 110.846 7.16378C110.533 9.34798 108.293 7.54804 108.32 8.69856C108.327 9.26034 108.712 9.32102 109.163 9.28281C110.501 8.98844 112.434 9.54348 113.371 8.35925C114.87 5.7481 118.11 5.87394 120.025 3.82907H120.027ZM117.913 32.8034C118.488 32.6348 119.284 32.7157 119.327 31.8798C119.351 31.3652 118.808 31.1472 118.356 31.1877C117.286 31.1787 116.342 32.7652 117.915 32.8011L117.913 32.8034ZM150.252 22.1768C150.237 21.7341 150.214 21.224 149.539 21.3723C149.04 21.4824 148.364 21.5161 148.396 22.2599C148.425 22.9722 149.08 23.0419 149.59 23.1116C150.257 23.2037 150.244 22.6689 150.252 22.1768Z" fill="url(#paint9_linear_6_892)"/>
<path d="M85.0608 20.0959C86.9869 19.9521 88.8907 19.669 90.7721 19.2173C91.1211 19.1341 91.6871 18.9274 91.8347 19.4128C91.9444 20.6127 89.4768 20.642 88.5529 21.0756C89.7319 21.9318 91.7609 20.5431 91.6714 22.7722C91.611 23.6958 92.4343 23.9564 93.1815 23.9362C95.1278 23.88 96.4387 25.289 98.0383 26.0103C99.5125 26.7069 98.7295 29.3653 97.0159 29.0934C95.734 28.79 94.3694 30.0708 95.9533 30.8079C97.2016 31.2506 98.215 32.3404 99.6937 32.1674C100.011 32.1292 100.434 32.2348 100.284 32.664C99.8279 34.01 101.043 33.482 101.687 33.5696C102.163 33.6078 102.859 33.3741 103.031 33.8797C103.21 34.4055 102.385 34.5493 102.166 34.9269C101.331 36.3673 99.2127 36.538 98.8414 38.4773C98.1591 40.0323 95.0987 36.7133 94.8347 35.7763C94.488 35.028 94.1725 35.1224 93.7027 35.6999C92.9667 36.601 92.5372 37.4122 93.7139 38.3222C94.1255 38.6413 94.4097 39.1447 94.6938 39.6031C95.5148 40.9289 95.1143 42.5918 93.8012 43.4097C92.318 44.0479 91.3269 42.2435 89.828 42.1086C89.6804 42.958 90.2285 43.5176 90.4567 44.1692C91.1882 46.1355 88.5507 44.367 87.8549 44.0839C85.7699 43.2232 84.4702 45.6928 84.2576 40.7514C84.2465 39.6705 83.6648 39.3492 82.6917 39.4166C81.204 39.4458 80.1011 40.7739 78.6089 40.621C77.1906 40.5649 76.3651 39.4009 77.5709 38.32C78.5657 37.0167 79.7909 36.7747 81.2465 37.5942C81.8885 37.9155 82.6111 38.6436 83.3046 38.0099C84.5731 36.938 82.1011 35.365 84.7789 34.9988C90.5797 33.7988 87.4701 30.3607 85.4724 27.0777C83.752 24.7834 83.8661 30.3383 80.8438 28.0866C77.562 25.5204 73.8886 27.3316 75.4434 24.4913C76.3875 22.5205 77.9624 21.6397 79.8528 20.9408C81.1615 20.397 85.0227 16.2601 84.9153 19.9319C83.1503 19.8667 81.3807 20.815 80.9512 22.5565C82.5418 22.1363 83.6849 20.9026 85.0608 20.1004V20.0959ZM89.4254 36.019C90.0048 35.8212 90.9824 36.2437 90.9981 35.1111C91.0092 34.3763 90.4522 34.1741 89.8012 34.1921C88.9824 34.2145 88.1927 34.4415 88.1592 35.3673C88.1301 36.1223 88.9243 35.8909 89.4254 36.019Z" fill="url(#paint10_linear_6_892)"/>
<path d="M59.1573 22.0554C59.8843 21.5341 60.6091 21.0128 61.3362 20.4914C61.58 20.4375 61.929 20.6128 62.0006 20.1836L61.9648 20.1971C63.7903 20.2487 65.3205 18.7769 67.2466 19.3948C68.2533 19.6825 69.1258 19.0443 70.005 18.6061C70.4927 18.3634 71.0542 17.7365 71.5374 18.2106C72.0587 18.705 71.4122 19.5746 71.43 20.233L71.4591 20.2083C71.1482 20.0577 70.9781 20.1971 70.8887 20.4937L70.9177 20.4757C70.6471 20.406 70.4591 20.5049 70.3473 20.7611L70.3741 20.7431C70.1885 20.7543 70.0162 20.7768 70.0855 21.0375L70.1079 21.0217C69.5665 20.8532 69.2399 21.1206 69.0028 21.5723L69.0162 21.5498C67.1348 22.9947 65.0543 24.1542 63.9514 26.5025C63.1773 28.1496 61.3832 28.9181 59.8687 29.8462C59.466 30.0933 59.0924 29.7113 58.8731 29.363C57.8687 27.4665 55.3139 30.7001 54.0947 29.9495C53.7725 29.6304 54.164 29.1046 54.2535 28.6867C54.4683 26.3452 58.7926 27.2755 57.2669 25.3924C56.4392 23.9407 59.8619 23.7632 59.1573 22.0622V22.0554Z" fill="url(#paint11_linear_6_892)"/>
<path d="M158.832 39.2188C159.83 38.3784 162.668 39.3626 161.118 37.2863C160.315 36.374 159.317 37.6391 158.503 37.929C157.711 38.3941 157.082 37.3515 157.984 36.9605C158.501 36.6684 158.995 36.4459 158.903 35.6706C158.984 34.4684 161.214 35.8189 161.682 36.2751C163.89 38.4436 163.753 34.0977 165.944 35.3246C167.854 36.6481 169.167 33.3898 170.134 35.2931C170.494 36.0324 171.319 36.0122 172.017 36.1493C172.738 36.2908 173.903 36.0437 173.988 36.8863C174.082 37.8279 173.733 38.9896 172.856 39.6278C172.122 40.1604 171.427 40.6772 170.854 41.3918C168.883 43.0659 164.908 41.6637 162.454 41.6772C160.375 41.5626 162.601 40.0637 158.832 39.2211V39.2188Z" fill="url(#paint12_linear_6_892)"/>
<path d="M69.1974 15.7119C70.3875 14.9973 71.5687 14.267 72.8596 13.7389C74.0766 14.5007 75.8282 13.5726 76.8618 14.4445C75.383 17.3747 71.4636 16.8826 68.6963 17.9635C69.1459 17.177 69.3943 16.4759 69.1996 15.7119H69.1974Z" fill="url(#paint13_linear_6_892)"/>
<path d="M71.4278 20.2285C72.6493 20.0689 74.204 17.9567 75.3159 18.5432C75.638 18.9589 75.1526 19.215 74.9132 19.3768C73.6604 20.215 72.9446 21.5768 71.7924 22.5003C70.9669 23.1025 69.6113 24.1182 68.6493 23.3587C68.0498 22.7677 68.8551 22.361 69.0855 21.8824C69.1258 21.8015 69.0408 21.6599 69.0117 21.5453L68.9983 21.5678C69.6381 21.9341 69.8372 21.4082 70.1034 21.0172L70.081 21.033C70.2913 21.0464 70.4703 21.0307 70.3696 20.7386L70.3428 20.7566C70.6985 20.9948 70.835 20.7925 70.9133 20.4712L70.8842 20.4892C71.175 20.5993 71.3517 20.4757 71.4546 20.2038L71.4256 20.2285H71.4278Z" fill="url(#paint14_linear_6_892)"/>
<path d="M86.799 31.3495C85.1748 31.6978 83.5328 34.9134 82.544 33.4663C81.4031 30.9023 84.8326 29.9406 86.799 31.3495Z" fill="url(#paint15_linear_6_892)"/>
<path d="M77.6403 16.523C76.5038 16.3792 77.4859 14.6984 78.1481 14.5299C78.9311 14.3883 81.7566 12.9119 82.1436 13.6782C82.0944 14.4827 81.0004 15.0242 80.3002 15.2175C79.0698 15.3478 78.5374 15.7118 77.6403 16.523Z" fill="url(#paint16_linear_6_892)"/>
<path d="M68.9871 42.6726C71.034 42.6322 68.2779 45.3242 67.5173 45.3153C65.8999 44.8141 67.6269 42.5693 68.9871 42.6726Z" fill="url(#paint17_linear_6_892)"/>
<path d="M75.7052 42.8166C75.2443 42.693 74.4434 42.7289 74.5508 42.3379C74.7499 41.6121 75.6783 41.6683 76.3047 41.4413C76.6537 41.3155 76.8595 41.6773 76.8483 42.0233C76.8192 42.8233 76.1213 42.6368 75.7052 42.8166Z" fill="url(#paint18_linear_6_892)"/>
<path d="M70.401 46.8996C70.3741 45.958 71.3204 45.3423 71.0251 44.403C70.9826 44.2637 71.4882 44.2592 71.694 44.4435C72.8998 45.0974 71.3786 46.6636 70.401 46.8996Z" fill="url(#paint19_linear_6_892)"/>
<path d="M84.3091 33.1292C85.0116 32.5045 85.6603 31.8192 86.799 31.3518C81.2264 28.3653 81.4255 36.1201 84.3091 33.1292Z" fill="url(#paint20_linear_6_892)"/>
<path d="M71.6918 44.4434C71.486 44.2592 70.9804 44.2659 71.0229 44.403C71.3182 45.3423 70.3719 45.958 70.3988 46.8995C71.3741 46.6658 72.8976 45.0973 71.6918 44.4434Z" fill="url(#paint21_linear_6_892)"/>
<path d="M68.9871 42.6726C67.6269 42.5693 65.8999 44.8141 67.5173 45.3153C68.2779 45.322 71.0318 42.6322 68.9871 42.6726Z" fill="url(#paint22_linear_6_892)"/>
<path d="M147.834 31.4843C149.503 32.6798 149.928 30.3068 151.293 30.3113C154.382 30.7787 155.977 28.4687 158.391 26.9024C155.792 26.6957 153.427 27.3991 151.038 26.862C151.968 26.298 152.532 25.507 153.136 24.7295C154.865 22.8981 153.792 26.489 157.147 25.9519C158.832 25.6778 157.55 23.6913 156.474 23.4644C155.056 22.7902 153.633 22.0824 152.469 20.997C151.375 20.206 152.959 18.3297 153.689 19.5139C154.704 20.9049 155.691 20.4555 156.736 19.5903C157.25 19.0578 158.413 18.851 158.507 18.0488C158.451 17.4893 157.861 17.4848 157.456 17.4129C153.646 16.8039 157.447 13.4917 152.514 13.8962C152.098 13.831 151.499 13.804 151.554 13.1883C151.546 11.6693 157.809 14.04 155.948 11.8535C155.25 11.0176 154.409 10.4963 153.273 10.5277C152.507 10.4985 149.024 10.7704 150.758 9.35024C152.718 8.21544 149.711 7.784 152.941 5.56385C154.899 3.23809 148.431 3.06955 147.481 5.57733C147.188 6.03125 146.716 6.4964 146.15 6.04248C145.501 5.31891 147.622 4.69646 146.827 3.92121C146.06 3.16843 144.584 5.30768 144.082 4.54815C143.329 3.56167 145.59 3.23584 143.968 2.54373C141.326 1.83364 138.49 0.70334 135.778 2.07633C132.416 1.32354 131.566 4.93241 128.347 3.46729C126.834 2.98641 124.861 3.89424 123.403 3.41111C120.49 2.38643 117.532 2.08307 114.481 1.97071C111.291 1.42466 108.707 3.91222 105.51 3.692C101.365 3.32123 102.103 7.47839 99.0338 8.92104C98.9443 8.8379 98.8548 8.75475 98.7653 8.67161C99.1344 7.82669 100.734 6.34809 100.199 5.48969C99.7586 5.00432 99.1232 5.35037 98.7228 5.64924C97.1523 6.81999 95.3895 7.58401 93.5998 8.32106C91.488 9.30754 94.8078 9.76146 94.5215 10.8895C94.3403 11.5232 93.573 11.4063 93.0182 11.5569C90.573 12.2198 88.1368 12.0917 85.6871 11.5929C85.28 11.5097 84.6961 11.3771 84.497 11.9187C84.1502 13.1142 86.5708 13.0467 85.2979 14.3456C84.2218 15.977 82.4344 15.8938 80.6984 15.9837C79.3225 16.0489 79.6134 17.7792 80.8975 17.0084C81.7811 16.6017 82.5596 16.4242 83.2912 17.3297C83.9623 18.1275 84.7654 16.8916 85.5529 17.2331C87.5149 18.0915 89.5171 17.3792 91.4857 17.2668C92.356 17.2174 93.6065 16.55 93.3761 15.5568C92.8459 13.5119 87.5081 16.6938 87.1032 15.2579C87.1502 13.2557 93.3649 14.4422 94.9018 14.2018C96.7855 14.4332 98.3805 13.022 99.734 11.8108C101.611 9.57495 102.479 11.9457 103.273 10.8019C103.595 9.50529 105.036 9.74124 105.691 8.92104C105.835 8.74127 106.179 8.58172 106.416 8.80868C106.736 9.11429 106.481 9.45136 106.253 9.61315C105.333 10.2603 104.951 11.2895 104.331 12.1501C103.839 12.8355 104.181 13.4714 104.443 14.0534C104.72 14.6759 105.309 14.3253 105.763 14.2332C107.074 14.0108 113.613 13.3816 113.906 14.8017C114.47 16.3815 115.347 17.8196 115.955 19.3948C116.727 20.9633 115.398 21.4869 114.537 22.4195C114.239 22.7475 113.492 22.97 113.913 23.5565C114.329 24.134 114.969 24.6306 115.774 24.2216C116.371 23.9183 116.951 23.5475 117.463 23.1161C119.161 21.7273 120.725 26.2553 117.53 25.7924C116.217 25.525 114.067 25.107 114.331 27.1429C114.376 29.0439 116.991 28.2125 118.069 27.6687C120.763 26.7496 119.736 30.4012 116.557 30.4192C113.613 30.6821 113.682 34.8348 114.506 36.9044C114.805 37.6796 115.192 38.3155 114.902 39.1627C114.658 39.8099 115.403 40.1986 115.832 39.6279C116.349 39.3492 116.727 38.5582 117.385 38.729C117.702 39.1402 117.591 40.129 116.861 40.1806C115.671 40.4278 115.626 41.2525 116.257 41.9716C117.217 43.0615 117.289 44.812 118.866 45.4299C119.029 45.4951 119.119 45.7872 119.213 45.9872C121.069 49.677 124.143 46.4568 124.951 49.3534C126.031 51.9623 128.458 48.6433 129.407 47.4725C130.418 46.1782 130.463 45.2569 129.423 43.9693C132.038 43.8772 131.358 42.7671 132.608 41.4907C135.174 40.5155 130.503 38.4234 133.449 38.0526C134.664 38.1111 134.555 36.6414 135.159 36.7965C136.651 37.7246 136.798 36.2999 137.42 35.2864C137.487 37.7066 140.056 36.8976 141.228 35.9875C142.561 34.8325 143.731 33.5314 144.821 32.1472C145.964 30.6911 146.293 30.6012 147.839 31.4866L147.834 31.4843Z" fill="url(#paint23_linear_6_892)"/>
<path d="M101.687 33.5674C101.045 33.482 99.8235 34.0056 100.284 32.6618C100.432 32.2303 100.011 32.127 99.6937 32.1652C98.215 32.3382 97.2016 31.2506 95.9533 30.8057C94.3694 30.0664 95.7363 28.7855 97.0159 29.0911C98.7295 29.3653 99.5125 26.7047 98.0383 26.0081C96.4387 25.2868 95.13 23.8778 93.1815 23.934C92.4343 23.9565 91.611 23.6958 91.6714 22.77C91.7587 20.5364 89.7386 21.9363 88.5529 21.0734C89.4791 20.642 91.9444 20.6128 91.837 19.4128C91.6893 18.9252 91.1233 19.1319 90.7743 19.2173C88.8929 19.6712 86.9892 19.9521 85.063 20.0959C85.0183 20.0353 84.9713 19.9791 84.9176 19.9274C85.0227 16.2399 81.1592 20.4083 79.855 20.9363C77.9669 21.6352 76.3897 22.5161 75.4457 24.4868C73.8864 27.3226 77.5664 25.5205 80.846 28.0822C83.8751 30.3338 83.7498 24.7812 85.4746 27.0732C87.4746 30.363 90.582 33.7921 84.7811 34.9943C82.1011 35.3628 84.5775 36.9291 83.3069 38.0054C82.6134 38.6369 81.8908 37.911 81.2487 37.5897C79.7931 36.7688 78.5679 37.0107 77.5731 38.3155C76.3785 39.3852 77.1816 40.5649 78.6112 40.6166C80.1056 40.7694 81.2062 39.4391 82.6939 39.4121C83.667 39.3447 84.2487 39.666 84.2599 40.7469C84.4724 45.6906 85.7722 43.2165 87.8549 44.0794C88.5618 44.3782 91.1815 46.122 90.4567 44.1648C90.2263 43.5131 89.6804 42.9536 89.828 42.1042C91.3247 42.239 92.318 44.0434 93.8012 43.4052C95.7743 42.2412 95.2642 39.6121 93.7139 38.32C92.5394 37.4099 92.969 36.5987 93.7027 35.6976C94.1725 35.1224 94.488 35.0258 94.8347 35.774C95.0964 36.7088 98.1568 40.0301 98.8414 38.4773C99.2127 36.5358 101.331 36.3673 102.166 34.9269C102.385 34.5471 103.21 34.4056 103.031 33.8797C102.859 33.3741 102.163 33.6078 101.687 33.5696V33.5674Z" fill="url(#paint24_linear_6_892)"/>
<path d="M81.8863 14.2557C83.2576 12.3748 78.7409 14.3928 78.1481 14.5276C77.4837 14.6984 76.5083 16.377 77.6403 16.523C79.0206 14.9253 80.5709 15.7096 81.8863 14.2557Z" fill="url(#paint25_linear_6_892)"/>
<path d="M76.307 41.4435C75.6783 41.6705 74.7499 41.6121 74.5531 42.3401C74.4457 42.7311 75.2466 42.6952 75.7074 42.8188C76.1213 42.639 76.8193 42.8255 76.8506 42.0255C76.864 41.6795 76.656 41.3177 76.307 41.4435Z" fill="url(#paint26_linear_6_892)"/>
<path d="M157.984 36.9605C157.089 37.3515 157.702 38.3942 158.503 37.929C159.317 37.6392 160.315 36.374 161.118 37.2864C162.666 39.3649 159.841 38.3785 158.832 39.2189C162.592 40.057 160.373 41.5559 162.454 41.675C164.912 41.6637 168.874 43.0637 170.854 41.3896C172.026 39.9829 174.375 39.0503 173.988 36.8819C173.668 35.5403 170.753 36.747 170.131 35.2887C169.677 34.3561 169.131 34.5808 168.539 35.0347C166.941 36.7133 165.183 33.9044 163.991 35.9066C163.353 37.0819 162.689 37.1875 161.682 36.2729C161.194 35.81 159.002 34.473 158.903 35.6684C158.995 36.4437 158.501 36.6662 157.984 36.9583V36.9605Z" fill="url(#paint27_linear_6_892)"/>
<path d="M117.293 67.5437C117.293 67.5437 117.588 66.3033 115.367 64.1708C119.893 64.6427 120.356 66.3999 120.356 66.3999C120.356 66.3999 121.096 65.0607 120.651 64.591C121.501 64.7663 122.141 65.0382 122.508 66.2157L123.242 64.9146L123.702 66.2157L124.863 65.3595L125.309 66.2157L126.282 65.3101L126.038 66.2157L128.306 65.3595L127.353 66.2157L129.394 65.8562V66.2157H130.825L129.986 64.6427L131.765 66.2157L132.456 64.6427L132.951 65.8562L134.382 65.0135L134.087 66.2157L136.062 65.2112L135.767 66.2157L138.284 63.7731C138.284 63.7731 137.738 66.1752 138.284 66.7617C138.83 67.346 117.295 67.5437 117.295 67.5437H117.293Z" fill="#F15A24"/>
<path d="M126.378 72.0941C126.378 72.0941 126.029 70.8672 123.049 70.1054C127.224 68.283 128.485 69.5864 128.485 69.5864C128.485 69.5864 128.476 68.0561 127.859 67.8651C128.684 67.5977 129.376 67.519 130.271 68.3639V66.8696L131.311 67.7752L131.904 66.4561L132.711 66.9819L133.116 65.7146L133.347 66.6224L134.904 64.7573L134.492 65.973L136.094 64.6539L136.271 64.9663L137.519 64.2584L136.018 63.3034L138.335 63.7955L138.168 62.0832L139.192 62.8967L140.027 61.4563L140.358 62.6495L141.588 60.8001L141.821 61.8203L142.819 58.4519C142.819 58.4519 143.519 60.8136 144.279 61.0541C145.04 61.2945 126.38 72.0941 126.38 72.0941H126.378Z" fill="#F15A24"/>
<path d="M140.624 83.5455C140.624 83.5455 140.895 82.4152 138.868 80.4692C142.995 80.9007 143.416 82.5029 143.416 82.5029C143.416 82.5029 144.091 81.2827 143.687 80.8535C144.461 81.013 145.044 81.2602 145.38 82.3366L146.049 81.1501L146.47 82.3366L147.53 81.5568L147.937 82.3366L148.825 81.5119L148.604 82.3366L150.673 81.5568L149.803 82.3366L151.664 82.0085V82.3366H152.971L152.205 80.9029L153.827 82.3366L154.458 80.9029L154.908 82.0107L156.212 81.2422L155.944 82.3388L157.745 81.4243L157.474 82.3388L159.769 80.1119C159.769 80.1119 159.27 82.3029 159.769 82.8354C160.266 83.368 140.628 83.55 140.628 83.55L140.624 83.5455Z" fill="#F15A24"/>
</g>
<defs>
<linearGradient id="paint0_linear_6_892" x1="138.602" y1="381.32" x2="216.864" y2="155.118" gradientUnits="userSpaceOnUse">
<stop stop-color="#C1272D"/>
<stop offset="0.28" stop-color="#C42A2C"/>
<stop offset="0.56" stop-color="#CF362A"/>
<stop offset="0.83" stop-color="#E24A26"/>
<stop offset="1" stop-color="#F15A24"/>
</linearGradient>
<linearGradient id="paint1_linear_6_892" x1="95.8728" y1="366.226" x2="174.068" y2="140.219" gradientUnits="userSpaceOnUse">
<stop stop-color="#C1272D"/>
<stop offset="0.28" stop-color="#C42A2C"/>
<stop offset="0.56" stop-color="#CF362A"/>
<stop offset="0.83" stop-color="#E24A26"/>
<stop offset="1" stop-color="#F15A24"/>
</linearGradient>
<linearGradient id="paint2_linear_6_892" x1="89.8908" y1="363.819" x2="168.011" y2="138.026" gradientUnits="userSpaceOnUse">
<stop stop-color="#C1272D"/>
<stop offset="0.28" stop-color="#C42A2C"/>
<stop offset="0.56" stop-color="#CF362A"/>
<stop offset="0.83" stop-color="#E24A26"/>
<stop offset="1" stop-color="#F15A24"/>
</linearGradient>
<linearGradient id="paint3_linear_6_892" x1="65.8514" y1="356.203" x2="144.137" y2="129.937" gradientUnits="userSpaceOnUse">
<stop stop-color="#C1272D"/>
<stop offset="0.28" stop-color="#C42A2C"/>
<stop offset="0.56" stop-color="#CF362A"/>
<stop offset="0.83" stop-color="#E24A26"/>
<stop offset="1" stop-color="#F15A24"/>
</linearGradient>
<linearGradient id="paint4_linear_6_892" x1="51.7202" y1="357.829" x2="131.338" y2="127.794" gradientUnits="userSpaceOnUse">
<stop stop-color="#C1272D"/>
<stop offset="0.28" stop-color="#C42A2C"/>
<stop offset="0.56" stop-color="#CF362A"/>
<stop offset="0.83" stop-color="#E24A26"/>
<stop offset="1" stop-color="#F15A24"/>
</linearGradient>
<linearGradient id="paint5_linear_6_892" x1="89.2173" y1="365.767" x2="167.838" y2="138.528" gradientUnits="userSpaceOnUse">
<stop stop-color="#C1272D"/>
<stop offset="0.28" stop-color="#C42A2C"/>
<stop offset="0.56" stop-color="#CF362A"/>
<stop offset="0.83" stop-color="#E24A26"/>
<stop offset="1" stop-color="#F15A24"/>
</linearGradient>
<linearGradient id="paint6_linear_6_892" x1="95.8727" y1="366.226" x2="174.068" y2="140.219" gradientUnits="userSpaceOnUse">
<stop stop-color="#C1272D"/>
<stop offset="0.28" stop-color="#C42A2C"/>
<stop offset="0.56" stop-color="#CF362A"/>
<stop offset="0.83" stop-color="#E24A26"/>
<stop offset="1" stop-color="#F15A24"/>
</linearGradient>
<linearGradient id="paint7_linear_6_892" x1="65.8514" y1="356.203" x2="144.137" y2="129.937" gradientUnits="userSpaceOnUse">
<stop stop-color="#C1272D"/>
<stop offset="0.28" stop-color="#C42A2C"/>
<stop offset="0.56" stop-color="#CF362A"/>
<stop offset="0.83" stop-color="#E24A26"/>
<stop offset="1" stop-color="#F15A24"/>
</linearGradient>
<linearGradient id="paint8_linear_6_892" x1="9.67005" y1="336.847" x2="87.962" y2="110.555" gradientUnits="userSpaceOnUse">
<stop stop-color="#C1272D"/>
<stop offset="0.28" stop-color="#C42A2C"/>
<stop offset="0.56" stop-color="#CF362A"/>
<stop offset="0.83" stop-color="#E24A26"/>
<stop offset="1" stop-color="#F15A24"/>
</linearGradient>
<linearGradient id="paint9_linear_6_892" x1="10.8781" y1="337.317" x2="89.1926" y2="110.964" gradientUnits="userSpaceOnUse">
<stop stop-color="#C1272D"/>
<stop offset="0.28" stop-color="#C42A2C"/>
<stop offset="0.56" stop-color="#CF362A"/>
<stop offset="0.83" stop-color="#E24A26"/>
<stop offset="1" stop-color="#F15A24"/>
</linearGradient>
<linearGradient id="paint10_linear_6_892" x1="-13.5288" y1="328.906" x2="64.7902" y2="102.537" gradientUnits="userSpaceOnUse">
<stop stop-color="#C1272D"/>
<stop offset="0.28" stop-color="#C42A2C"/>
<stop offset="0.56" stop-color="#CF362A"/>
<stop offset="0.83" stop-color="#E24A26"/>
<stop offset="1" stop-color="#F15A24"/>
</linearGradient>
<linearGradient id="paint11_linear_6_892" x1="-38.3317" y1="319.441" x2="39.7866" y2="93.6608" gradientUnits="userSpaceOnUse">
<stop stop-color="#C1272D"/>
<stop offset="0.28" stop-color="#C42A2C"/>
<stop offset="0.56" stop-color="#CF362A"/>
<stop offset="0.83" stop-color="#E24A26"/>
<stop offset="1" stop-color="#F15A24"/>
</linearGradient>
<linearGradient id="paint12_linear_6_892" x1="57.9537" y1="352.008" x2="135.91" y2="126.691" gradientUnits="userSpaceOnUse">
<stop stop-color="#C1272D"/>
<stop offset="0.28" stop-color="#C42A2C"/>
<stop offset="0.56" stop-color="#CF362A"/>
<stop offset="0.83" stop-color="#E24A26"/>
<stop offset="1" stop-color="#F15A24"/>
</linearGradient>
<linearGradient id="paint13_linear_6_892" x1="-31.3944" y1="319.596" x2="46.2053" y2="95.3134" gradientUnits="userSpaceOnUse">
<stop stop-color="#C1272D"/>
<stop offset="0.28" stop-color="#C42A2C"/>
<stop offset="0.56" stop-color="#CF362A"/>
<stop offset="0.83" stop-color="#E24A26"/>
<stop offset="1" stop-color="#F15A24"/>
</linearGradient>
<linearGradient id="paint14_linear_6_892" x1="-30.2758" y1="318.899" x2="47.0623" y2="95.371" gradientUnits="userSpaceOnUse">
<stop stop-color="#C1272D"/>
<stop offset="0.28" stop-color="#C42A2C"/>
<stop offset="0.56" stop-color="#CF362A"/>
<stop offset="0.83" stop-color="#E24A26"/>
<stop offset="1" stop-color="#F15A24"/>
</linearGradient>
<linearGradient id="paint15_linear_6_892" x1="-18.0479" y1="331.005" x2="61.1483" y2="102.104" gradientUnits="userSpaceOnUse">
<stop stop-color="#C1272D"/>
<stop offset="0.28" stop-color="#C42A2C"/>
<stop offset="0.56" stop-color="#CF362A"/>
<stop offset="0.83" stop-color="#E24A26"/>
<stop offset="1" stop-color="#F15A24"/>
</linearGradient>
<linearGradient id="paint16_linear_6_892" x1="-24.5466" y1="318.605" x2="52.2999" y2="96.491" gradientUnits="userSpaceOnUse">
<stop stop-color="#C1272D"/>
<stop offset="0.28" stop-color="#C42A2C"/>
<stop offset="0.56" stop-color="#CF362A"/>
<stop offset="0.83" stop-color="#E24A26"/>
<stop offset="1" stop-color="#F15A24"/>
</linearGradient>
<linearGradient id="paint17_linear_6_892" x1="-26.07" y1="318.985" x2="50.8601" y2="96.6374" gradientUnits="userSpaceOnUse">
<stop stop-color="#C1272D"/>
<stop offset="0.28" stop-color="#C42A2C"/>
<stop offset="0.56" stop-color="#CF362A"/>
<stop offset="0.83" stop-color="#E24A26"/>
<stop offset="1" stop-color="#F15A24"/>
</linearGradient>
<linearGradient id="paint18_linear_6_892" x1="-21.6159" y1="326.038" x2="56.6896" y2="99.7151" gradientUnits="userSpaceOnUse">
<stop stop-color="#C1272D"/>
<stop offset="0.28" stop-color="#C42A2C"/>
<stop offset="0.56" stop-color="#CF362A"/>
<stop offset="0.83" stop-color="#E24A26"/>
<stop offset="1" stop-color="#F15A24"/>
</linearGradient>
<linearGradient id="paint19_linear_6_892" x1="-24.5108" y1="325.036" x2="53.7925" y2="98.7129" gradientUnits="userSpaceOnUse">
<stop stop-color="#C1272D"/>
<stop offset="0.28" stop-color="#C42A2C"/>
<stop offset="0.56" stop-color="#CF362A"/>
<stop offset="0.83" stop-color="#E24A26"/>
<stop offset="1" stop-color="#F15A24"/>
</linearGradient>
<linearGradient id="paint20_linear_6_892" x1="-17.0724" y1="328.252" x2="61.3841" y2="101.484" gradientUnits="userSpaceOnUse">
<stop stop-color="#C1272D"/>
<stop offset="0.28" stop-color="#C42A2C"/>
<stop offset="0.56" stop-color="#CF362A"/>
<stop offset="0.83" stop-color="#E24A26"/>
<stop offset="1" stop-color="#F15A24"/>
</linearGradient>
<linearGradient id="paint21_linear_6_892" x1="-24.5108" y1="325.036" x2="53.7925" y2="98.7129" gradientUnits="userSpaceOnUse">
<stop stop-color="#C1272D"/>
<stop offset="0.28" stop-color="#C42A2C"/>
<stop offset="0.56" stop-color="#CF362A"/>
<stop offset="0.83" stop-color="#E24A26"/>
<stop offset="1" stop-color="#F15A24"/>
</linearGradient>
<linearGradient id="paint22_linear_6_892" x1="-26.0767" y1="319.005" x2="50.8579" y2="96.6419" gradientUnits="userSpaceOnUse">
<stop stop-color="#C1272D"/>
<stop offset="0.28" stop-color="#C42A2C"/>
<stop offset="0.56" stop-color="#CF362A"/>
<stop offset="0.83" stop-color="#E24A26"/>
<stop offset="1" stop-color="#F15A24"/>
</linearGradient>
<linearGradient id="paint23_linear_6_892" x1="10.8758" y1="337.337" x2="89.1926" y2="110.973" gradientUnits="userSpaceOnUse">
<stop stop-color="#C1272D"/>
<stop offset="0.28" stop-color="#C42A2C"/>
<stop offset="0.56" stop-color="#CF362A"/>
<stop offset="0.83" stop-color="#E24A26"/>
<stop offset="1" stop-color="#F15A24"/>
</linearGradient>
<linearGradient id="paint24_linear_6_892" x1="-13.531" y1="328.908" x2="64.7902" y2="102.538" gradientUnits="userSpaceOnUse">
<stop stop-color="#C1272D"/>
<stop offset="0.28" stop-color="#C42A2C"/>
<stop offset="0.56" stop-color="#CF362A"/>
<stop offset="0.83" stop-color="#E24A26"/>
<stop offset="1" stop-color="#F15A24"/>
</linearGradient>
<linearGradient id="paint25_linear_6_892" x1="-25.1505" y1="320.362" x2="52.1447" y2="96.9529" gradientUnits="userSpaceOnUse">
<stop stop-color="#C1272D"/>
<stop offset="0.28" stop-color="#C42A2C"/>
<stop offset="0.56" stop-color="#CF362A"/>
<stop offset="0.83" stop-color="#E24A26"/>
<stop offset="1" stop-color="#F15A24"/>
</linearGradient>
<linearGradient id="paint26_linear_6_892" x1="-21.6161" y1="326.039" x2="56.6895" y2="99.7152" gradientUnits="userSpaceOnUse">
<stop stop-color="#C1272D"/>
<stop offset="0.28" stop-color="#C42A2C"/>
<stop offset="0.56" stop-color="#CF362A"/>
<stop offset="0.83" stop-color="#E24A26"/>
<stop offset="1" stop-color="#F15A24"/>
</linearGradient>
<linearGradient id="paint27_linear_6_892" x1="57.6472" y1="352.941" x2="135.838" y2="126.948" gradientUnits="userSpaceOnUse">
<stop stop-color="#C1272D"/>
<stop offset="0.28" stop-color="#C42A2C"/>
<stop offset="0.56" stop-color="#CF362A"/>
<stop offset="0.83" stop-color="#E24A26"/>
<stop offset="1" stop-color="#F15A24"/>
</linearGradient>
<clipPath id="clip0_6_892">
<rect width="270.673" height="265" fill="white" transform="translate(0.171265)"/>
</clipPath>
</defs>
</svg>
