<svg width="65" height="65" viewBox="0 0 65 65" fill="none" xmlns="http://www.w3.org/2000/svg">
<g clip-path="url(#clip0_3_11326)">
<path d="M62.9412 21.0344C62.7954 20.655 62.4441 20.3917 62.0506 20.3619C61.2901 20.318 60.7507 21.0485 61.0125 21.7649C62.1807 24.8766 62.8393 28.1624 62.9412 31.4936C62.9992 32.6035 64.5186 32.8668 64.9435 31.829C64.9874 31.6974 65.0015 31.5657 65.0015 31.4199C64.8996 27.8708 64.183 24.3499 62.9412 21.0344ZM18.1449 59.3612C17.4299 58.9819 16.5518 59.5509 16.6412 60.3692C16.6851 60.7188 16.8607 61.012 17.1822 61.1718C20.3527 62.8665 23.669 63.9904 27.2048 64.5752C28.2131 64.7351 28.812 63.5233 28.0813 62.8084C27.9355 62.6627 27.7599 62.5749 27.5404 62.5451C24.2241 61.9902 21.1116 60.9383 18.1449 59.3612ZM33.5004 62.9401C33.1507 62.9542 32.8575 63.1298 32.6678 63.4073C32.2146 64.108 32.7556 65.0282 33.5741 65C37.1381 64.8683 40.6301 64.1958 43.9621 62.9401C44.8668 62.6047 44.8386 61.2894 43.9323 60.9978C43.7128 60.9101 43.4635 60.9242 43.2455 61.012C40.1048 62.1814 36.8465 62.8226 33.5004 62.9401ZM48.594 58.3689C48.3744 58.4991 48.2145 58.7185 48.1549 58.9678C47.9072 59.8739 48.8856 60.6028 49.6884 60.1074C52.7131 58.2373 55.3866 55.8576 57.6507 53.1252C58.2199 52.4386 57.6947 51.4024 56.8025 51.4447C56.5249 51.4447 56.2333 51.5905 56.0577 51.81C53.9252 54.3809 51.4258 56.6007 48.5924 58.3689H48.594ZM59.3756 46.8579C59.156 47.2811 59.2438 47.7781 59.5951 48.0994C60.1062 48.5525 60.8667 48.4051 61.2023 47.822C62.8816 44.6663 64.0074 41.3226 64.5923 37.7876C64.7679 36.7075 63.3645 36.1369 62.7373 37.0289C62.6495 37.1605 62.5774 37.3063 62.5617 37.4521C62.0208 40.7535 60.9545 43.8935 59.3771 46.8579H59.3756Z" fill="white"/>
<path d="M61.392 15.5853L58.2513 5.52117C58.1776 5.25781 58.0177 5.03835 57.7684 4.90823C57.2713 4.63076 56.6441 4.80634 56.365 5.30328L54.5226 8.58745C48.3055 2.85935 40.4137 0 32.5078 0C24.1943 0 15.8666 3.16974 9.52719 9.52332C3.1705 15.8628 0 24.1885 0 32.5C0 40.8115 3.1705 49.1372 9.52562 55.4908C9.87528 55.8419 10.2406 56.1915 10.6358 56.5568C11.0293 56.9063 11.4245 57.2434 11.8039 57.5648C12.2414 57.93 12.9 57.872 13.2496 57.4331C13.615 56.9941 13.557 56.353 13.1179 55.9862C12.7385 55.6789 12.3731 55.3575 12.0219 55.0362C11.6863 54.7305 11.3351 54.3934 10.9697 54.0282C5.03799 48.0838 2.05722 40.2974 2.05722 32.4984C2.05722 24.6995 5.03799 16.9272 10.9697 10.9828C16.9188 5.03991 24.7196 2.05986 32.5078 2.05986C39.8822 2.05986 47.2439 4.72325 53.0487 10.0359L49.8202 11.8465C49.6006 11.9782 49.4266 12.182 49.3372 12.4454C49.1773 12.9862 49.4689 13.5553 50.0099 13.7308L60.0906 16.8708C60.296 16.9288 60.4998 16.9288 60.7193 16.8708C61.2603 16.6952 61.552 16.1262 61.392 15.5853Z" fill="white"/>
<path fill-rule="evenodd" clip-rule="evenodd" d="M32.5078 9.84473C45.0283 9.84473 55.1686 19.9967 55.1686 32.5C55.1686 45.0034 45.0283 55.1695 32.5078 55.1695C19.9873 55.1695 9.84705 45.0175 9.84705 32.5C9.84705 19.9826 20.0014 9.84473 32.5078 9.84473ZM43.8445 37.598C43.8445 38.1686 43.3913 38.6357 42.8222 38.6357C42.253 38.6357 41.7841 38.1686 41.7841 37.598V33.0111H33.0033C32.4341 33.0111 31.9653 32.5439 31.9653 31.9733V30.9073C31.9653 30.702 32.0249 30.4841 32.155 30.3085L40.8041 18.0387C40.9939 17.733 41.3153 17.5418 41.6948 17.5418H42.8206C43.3898 17.5418 43.8429 18.0089 43.8429 18.5795V30.9512H44.8512C45.4203 30.9512 45.8892 31.4043 45.8892 31.9733C45.8892 32.5424 45.4219 33.0111 44.8512 33.0111H43.8429V37.598H43.8445ZM41.7841 30.9512V20.2302L34.2311 30.9512H41.7841ZM31.5874 36.5759C32.1566 36.5759 32.6254 37.0289 32.6254 37.598C32.6254 38.167 32.1582 38.6357 31.5874 38.6357H20.1614C19.5922 38.6357 19.139 38.1686 19.139 37.598V37.5258C19.0951 34.3263 22.1198 32.268 25.1884 30.1925C27.8618 28.3819 30.5651 26.5556 30.5651 24.234C30.5651 22.7729 30.1558 21.5894 29.3969 20.8009C28.6662 20.0421 27.5702 19.6032 26.1684 19.6032C24.8528 19.6032 23.6988 20.1722 22.8521 20.9905C21.814 21.9687 21.201 23.2401 21.201 24.234C21.201 24.803 20.7337 25.256 20.1629 25.256C19.5922 25.256 19.1406 24.803 19.1406 24.234C19.1547 22.7149 20.003 20.8447 21.4346 19.4872C22.6482 18.3475 24.2695 17.5449 26.1684 17.5449C28.0672 17.5449 29.7623 18.2033 30.8724 19.3712C32.0123 20.5547 32.6254 22.2337 32.6254 24.2355C32.6254 27.6388 29.469 29.7708 26.3424 31.8887C24.1363 33.3936 21.9599 34.8687 21.3609 36.5774H31.5874V36.5759ZM45.4815 42.768C45.4815 43.1191 45.1898 43.4107 44.8386 43.4107C44.4874 43.4107 44.1957 43.1191 44.1957 42.768C44.1957 42.6943 44.1377 42.6222 44.0499 42.5626C43.8445 42.4168 43.567 42.3588 43.3051 42.3588C42.9993 42.3588 42.7641 42.4168 42.6183 42.5344C42.5164 42.6081 42.4584 42.71 42.4584 42.826C42.4584 43.0298 42.9554 43.2054 43.4368 43.3809L43.6861 43.4828C44.5783 43.8042 45.4972 44.1397 45.4972 45.2354C45.4972 45.7763 45.2635 46.2434 44.8245 46.5648C44.4591 46.8422 43.9621 47.0021 43.3631 47.0021C42.8802 47.0021 42.3251 46.8563 41.9017 46.5648C41.4784 46.2716 41.2008 45.8499 41.2008 45.2934C41.2008 44.9438 41.4784 44.6507 41.8437 44.6507C42.2091 44.6507 42.4866 44.9438 42.4866 45.2934C42.4866 45.3671 42.5446 45.4392 42.6324 45.4988C42.8222 45.6446 43.1154 45.7026 43.3631 45.7026C43.6704 45.7026 43.9041 45.6446 44.064 45.527C44.1518 45.4533 44.2098 45.3514 44.2098 45.2339C44.2098 45.0442 43.7269 44.8545 43.2455 44.6789L42.9821 44.5911C42.0915 44.2557 41.171 43.9186 41.171 42.8244C41.171 42.2836 41.4188 41.8164 41.8437 41.4951C42.2232 41.2317 42.7202 41.0718 43.3051 41.0718C43.788 41.0718 44.3572 41.2035 44.7806 41.4951C45.1898 41.7867 45.4815 42.2099 45.4815 42.7664V42.768ZM30.6074 41.7161C30.6074 41.3508 30.9006 41.0734 31.2503 41.0734C31.6 41.0734 31.8932 41.3508 31.8932 41.7161V44.5206C31.8932 44.8419 32.039 45.1492 32.2428 45.353C32.4624 45.5725 32.7681 45.7041 33.0911 45.7041C33.4141 45.7041 33.7199 45.5725 33.9378 45.353C34.1574 45.1492 34.2891 44.8419 34.2891 44.5206V41.7161C34.2891 41.3508 34.5807 41.0734 34.932 41.0734C35.2832 41.0734 35.5748 41.3508 35.5748 41.7161V44.5206C35.5748 45.1931 35.2973 45.8217 34.8442 46.2732C34.391 46.7262 33.7779 47.0037 33.0911 47.0037C32.4043 47.0037 31.7913 46.7262 31.3381 46.2732C30.8849 45.8201 30.6074 45.1915 30.6074 44.5206V41.7161ZM20.8043 46.3625C20.8043 46.7121 20.5267 47.0053 20.1614 47.0053C19.796 47.0053 19.5185 46.7137 19.5185 46.3625V41.7177C19.5185 41.3524 19.8101 41.0749 20.1614 41.0749C20.5126 41.0749 20.8043 41.3524 20.8043 41.7177V43.3825H22.4554V41.7177C22.4554 41.3524 22.747 41.0749 23.0982 41.0749C23.4495 41.0749 23.7411 41.3524 23.7411 41.7177V46.3625C23.7411 46.7121 23.4636 47.0053 23.0982 47.0053C22.7329 47.0053 22.4554 46.7137 22.4554 46.3625V44.6821H20.8043V46.3625ZM37.2259 41.0749H38.4976C39.0668 41.0749 39.5795 41.2944 39.9433 41.6738H39.9574C40.3228 42.0531 40.5564 42.5642 40.5564 43.1348C40.5564 43.7054 40.3228 44.2165 39.9574 44.5817H39.9433C39.8116 44.7275 39.636 44.8451 39.4604 44.947L40.1471 46.1149C40.3228 46.4221 40.2193 46.8156 39.9135 46.9912C39.6077 47.1667 39.2126 47.0633 39.037 46.7576L38.1307 45.1947H37.8673V46.3641C37.8673 46.7137 37.5756 47.0068 37.2244 47.0068C36.8731 47.0068 36.5815 46.7153 36.5815 46.3641V41.7192C36.5815 41.354 36.859 41.0765 37.2244 41.0765L37.2259 41.0749ZM38.4976 42.3588H37.8688V43.892H38.4976C38.7014 43.892 38.9068 43.8183 39.0386 43.6725C39.1844 43.5267 39.2722 43.337 39.2722 43.1317C39.2722 42.9122 39.1844 42.7225 39.0386 42.5767C38.9068 42.4451 38.703 42.3573 38.4976 42.3573V42.3588ZM27.2487 41.0749C27.9935 41.0749 28.6662 41.4104 29.1476 41.981C29.6007 42.5062 29.8783 43.2367 29.8783 44.0409C29.8783 44.8451 29.6007 45.5599 29.1476 46.1007C28.6647 46.6557 27.9935 47.0053 27.2487 47.0053C26.5039 47.0053 25.8313 46.6557 25.3499 46.1007C24.8811 45.5599 24.6051 44.8294 24.6051 44.0409C24.6051 43.2524 24.8826 42.5078 25.3499 41.981C25.8313 41.4104 26.5039 41.0749 27.2487 41.0749ZM28.1692 42.8119C27.9198 42.5344 27.6 42.3588 27.2487 42.3588C26.8975 42.3588 26.562 42.5344 26.3142 42.8119C26.0524 43.1191 25.8909 43.5424 25.8909 44.0393C25.8909 44.5363 26.0508 44.9454 26.3142 45.2527C26.5635 45.5442 26.8834 45.7057 27.2487 45.7057C27.6141 45.7057 27.9214 45.5458 28.1692 45.2527C28.4326 44.9454 28.5925 44.5222 28.5925 44.0393C28.5925 43.5565 28.4326 43.1191 28.1692 42.8119Z" fill="white"/>
</g>
<defs>
<clipPath id="clip0_3_11326">
<rect width="65" height="65" fill="white"/>
</clipPath>
</defs>
</svg>
