<svg width="76" height="65" viewBox="0 0 76 65" fill="none" xmlns="http://www.w3.org/2000/svg">
<g clip-path="url(#clip0_3_11369)">
<path d="M21.6961 4.32268C16.8799 7.10934 12.8406 11.1167 10.015 15.9112C7.10281 20.8524 5.56372 26.5117 5.56372 32.2769H9.86771C9.86771 22.3231 15.2259 13.039 23.8521 8.04767L21.6966 4.32268H21.6961Z" fill="white"/>
<path d="M47.7392 58.4445C46.2254 59.0149 44.6443 59.4582 43.0404 59.7619C38.2086 60.6765 33.2173 60.3045 28.6056 58.6869L27.1808 62.7485C32.5057 64.6155 38.2663 65.0452 43.8406 63.9905C45.6884 63.6408 47.5109 63.1301 49.257 62.4716L47.7392 58.444V58.4445Z" fill="white"/>
<path d="M70.1154 32.2769H65.8115C65.8115 42.2327 60.4517 51.5174 51.8235 56.5081L53.9785 60.2336C58.7957 57.447 62.836 53.4396 65.6627 48.6447C68.5759 43.703 70.1154 38.0431 70.1154 32.2764V32.2769Z" fill="white"/>
<path fill-rule="evenodd" clip-rule="evenodd" d="M21.9679 60.3758L24.0718 56.6326C22.6567 55.834 21.3104 54.9128 20.0512 53.8778C18.8042 52.8525 17.6401 51.7147 16.5773 50.4722C15.8085 49.5693 14.4536 49.46 13.5502 50.2288C12.6473 50.9975 12.538 52.3529 13.3067 53.2558C14.5346 54.6912 15.8788 56.0055 17.3187 57.1893C18.7789 58.3898 20.3352 59.4552 21.9674 60.3763L21.9679 60.3758Z" fill="white"/>
<path fill-rule="evenodd" clip-rule="evenodd" d="M51.6034 7.91923C53.0205 8.71838 54.3678 9.64001 55.628 10.676C56.8761 11.7019 58.0412 12.8412 59.105 14.0852C59.8738 14.9881 61.2292 15.0969 62.1321 14.3287C63.035 13.5599 63.1443 12.205 62.3755 11.3016C61.1467 9.86473 59.8014 8.54985 58.3605 7.36504C56.8994 6.16352 55.3416 5.09764 53.7078 4.17601L51.6039 7.91923H51.6034Z" fill="white"/>
<path d="M37.8563 2.28882e-05C35.8455 2.28882e-05 33.8302 0.187286 31.8386 0.564341C29.9908 0.914065 28.1688 1.42473 26.4222 2.08319L27.94 6.11084C29.4538 5.54045 31.0349 5.09709 32.6388 4.79342C37.4722 3.87888 42.465 4.25087 47.0777 5.86993L48.5029 1.80887C45.0796 0.607359 41.475 0.000529289 37.8563 0.000529289V2.28882e-05Z" fill="white"/>
<path fill-rule="evenodd" clip-rule="evenodd" d="M7.66155 45.5472L15.3231 32.2769H7.66155H0L7.66155 45.5472Z" fill="white"/>
<path fill-rule="evenodd" clip-rule="evenodd" d="M68.0004 19.0355L75.662 32.3058H68.0004H60.3389L68.0004 19.0355Z" fill="white"/>
<path fill-rule="evenodd" clip-rule="evenodd" d="M57.6312 33.778L57.0036 37.2712C57.0026 37.2813 57.0016 37.2914 56.9995 37.3016C56.9596 37.5263 56.8386 37.6943 56.6716 37.8102C56.5086 37.9236 56.3026 37.9798 56.0936 37.9853L52.9476 38.0648C52.6505 38.8022 52.2978 39.5199 51.8903 40.2112C51.4875 40.8955 51.033 41.5514 50.5294 42.1729L52.0305 44.9732C52.1282 45.1559 52.1808 45.3624 52.1631 45.5613C52.1449 45.7633 52.0584 45.951 51.8827 46.0968L49.133 48.389C48.9584 48.5348 48.758 48.5859 48.5566 48.5671C48.3572 48.5489 48.1633 48.4604 48.0014 48.3318L45.4622 46.3084C44.7648 46.6728 44.0486 46.9815 43.3198 47.2356C42.5783 47.4942 41.8273 47.6956 41.0732 47.8404L40.3975 51.0704C40.355 51.2738 40.2624 51.4662 40.1207 51.6069C39.9769 51.7496 39.7907 51.8382 39.5629 51.8371L35.9837 51.8255C35.7549 51.8255 35.5687 51.7359 35.4259 51.5922C35.2858 51.451 35.1941 51.2576 35.1526 51.0532L34.48 47.7295C33.7451 47.5635 33.0219 47.3459 32.3164 47.0787C31.6169 46.8135 30.9337 46.4987 30.2732 46.1358L27.5665 48.265V48.264C27.4015 48.3936 27.2067 48.4816 27.0093 48.4983C26.8078 48.5155 26.6084 48.4629 26.4338 48.3146L23.6983 46.0047C23.5237 45.8574 23.4386 45.6686 23.4219 45.4667C23.4057 45.2693 23.4599 45.0628 23.5601 44.8796L25.2379 41.7959C25.1564 41.6891 25.079 41.5853 25.0066 41.4851C24.8927 41.3277 24.7748 41.1581 24.6528 40.9759C24.3112 40.4648 24.0035 39.9425 23.7291 39.4121C23.4847 38.9393 23.2671 38.4611 23.0747 37.9787L19.54 37.8669C19.3315 37.8603 19.126 37.8021 18.9641 37.6877C18.7981 37.5703 18.6781 37.4018 18.6397 37.1766L18.0293 33.6489C17.9908 33.4242 18.0465 33.2258 18.1634 33.0603C18.2788 32.8969 18.4529 32.7734 18.6468 32.6969L21.9537 31.3983C21.9831 30.6654 22.062 29.9406 22.1885 29.229C22.3156 28.5129 22.4922 27.8028 22.7169 27.1049L20.076 24.7429C19.9206 24.6037 19.8007 24.4275 19.7496 24.2352C19.698 24.0394 19.7147 23.8339 19.829 23.6375L21.6293 20.5426C21.7447 20.3447 21.9157 20.2283 22.1116 20.1762C22.3039 20.1251 22.5165 20.1428 22.7129 20.2086L26.0264 21.3205C26.45 20.8463 26.903 20.3953 27.3838 19.9717C27.9127 19.5056 28.4826 19.0668 29.0919 18.6594C29.1699 18.6072 29.2569 18.5506 29.3511 18.4913L29.4133 18.4519L28.9214 15.0331C28.8915 14.8286 28.9128 14.617 28.9983 14.4364C29.0848 14.2526 29.2301 14.1054 29.4452 14.0279L32.8129 12.8143C33.027 12.7373 33.2319 12.7576 33.4152 12.8436C33.5968 12.9291 33.7492 13.079 33.857 13.2561L35.6127 16.1278C36.3693 16.0134 37.1331 15.9537 37.8973 15.9481C38.6706 15.9426 39.4384 15.9916 40.1951 16.0944L41.928 13.3011L41.9396 13.2814C42.049 13.1053 42.2018 12.9565 42.3835 12.8725C42.5672 12.7874 42.7727 12.7682 42.9868 12.8467L46.3469 14.0821C46.561 14.1605 46.7057 14.3088 46.7907 14.4935C46.8747 14.6752 46.895 14.8873 46.8636 15.0918L46.3838 18.2833C47.0534 18.6892 47.6977 19.1473 48.3096 19.6554C48.9124 20.1559 49.4833 20.7046 50.0152 21.2998L53.0392 20.3058C53.2366 20.241 53.4492 20.2253 53.641 20.2774C53.8242 20.327 53.9856 20.4348 54.0995 20.6135C54.1071 20.6241 54.1142 20.6347 54.1208 20.6464L55.8998 23.7529H55.8988C56.0126 23.9513 56.0283 24.1563 55.9762 24.3506C55.9241 24.5429 55.8026 24.7191 55.6467 24.8577L53.2933 26.9348C53.5504 27.7026 53.7468 28.4815 53.8834 29.2645C54.0211 30.0555 54.0985 30.8562 54.1162 31.6589L57.0233 32.8225C57.2167 32.8999 57.3903 33.0244 57.5036 33.1879C57.619 33.3539 57.6732 33.5528 57.6322 33.778H57.6312ZM37.9818 20.1888C31.4312 20.1888 26.1205 25.4995 26.1205 32.0501C26.1205 38.6008 31.4312 43.9114 37.9818 43.9114C44.5325 43.9114 49.8431 38.6008 49.8431 32.0501C49.8431 25.4995 44.5325 20.1888 37.9818 20.1888Z" fill="white"/>
</g>
<defs>
<clipPath id="clip0_3_11369">
<rect width="75.662" height="64.5548" fill="white" transform="matrix(1 0 0 -1 0 64.5548)"/>
</clipPath>
</defs>
</svg>
