<svg width="65" height="65" viewBox="0 0 65 65" fill="none" xmlns="http://www.w3.org/2000/svg">
<g clip-path="url(#clip0_3_11339)">
<path d="M40.17 6.89001C38.62 5.34001 36.9 4.05001 35.06 3.02001C35.02 3.00001 34.98 2.98001 34.94 2.96001C34.39 2.66001 33.83 2.37001 33.26 2.11001C33.07 2.02001 32.87 1.95001 32.68 1.87001C32.26 1.69001 31.83 1.51001 31.4 1.36001C31.11 1.26001 30.82 1.18001 30.52 1.09001C30.18 0.98001 29.83 0.87001 29.48 0.78001C29.14 0.69001 28.8 0.62001 28.46 0.55001C28.15 0.48001 27.84 0.41001 27.52 0.35001C27.17 0.29001 26.82 0.25001 26.47 0.21001C26.15 0.17001 25.84 0.12001 25.52 0.10001C25.19 0.0700098 24.85 0.0600098 24.52 0.0500098C24.18 0.0300098 23.84 0.0100098 23.5 0.0100098C23.19 0.0100098 22.89 0.0300098 22.58 0.0400098C22.21 0.0500098 21.85 0.0600098 21.48 0.0900098C21.2 0.12001 20.91 0.16001 20.63 0.19001C20.25 0.24001 19.87 0.28001 19.49 0.34001C19.21 0.39001 18.93 0.46001 18.65 0.52001C18.28 0.60001 17.9 0.67001 17.53 0.77001C17.21 0.85001 16.9 0.96001 16.59 1.05001C16.27 1.15001 15.94 1.24001 15.62 1.35001C15.22 1.49001 14.83 1.66001 14.43 1.82001C14.21 1.91001 13.98 2.00001 13.76 2.10001C13.22 2.35001 12.69 2.62001 12.16 2.91001C12.09 2.95001 12.02 2.98001 11.96 3.01001C10.13 4.04001 8.41001 5.33001 6.86001 6.88001C6.75001 6.99001 6.66001 7.11001 6.56001 7.22001C6.20001 7.59001 5.86001 7.97001 5.53001 8.36001C5.35001 8.57001 5.17001 8.79001 5.00001 9.01001C4.65001 9.45001 4.32001 9.90001 4.01001 10.37C3.90001 10.53 3.80001 10.69 3.69001 10.86C3.35001 11.39 3.03001 11.93 2.73001 12.49C2.68001 12.58 2.64001 12.68 2.59001 12.77C2.28001 13.38 1.99001 13.99 1.73001 14.62C1.71001 14.67 1.69001 14.71 1.68001 14.76C1.41001 15.43 1.17001 16.11 0.960005 16.81C0.960005 16.82 0.960005 16.84 0.950005 16.85C0.740005 17.56 0.560005 18.28 0.420005 19.02C0.420005 19.02 0.420005 19.04 0.420005 19.05C0.280005 19.78 0.170006 20.51 0.100005 21.26C0.100005 21.28 0.100005 21.3 0.100005 21.32C0.0300055 22.04 5.49294e-06 22.77 -0.00999451 23.51V23.55C-0.00999451 24.29 0.0300055 25.02 0.100005 25.74C0.100005 25.76 0.100005 25.78 0.100005 25.8C0.170006 26.55 0.280005 27.28 0.420005 28.02C0.560005 28.77 0.740005 29.5 0.950005 30.21C0.950005 30.22 0.950005 30.23 0.950005 30.24C1.16001 30.94 1.40001 31.63 1.67001 32.31C1.69001 32.35 1.70001 32.39 1.72001 32.43C1.98001 33.07 2.27001 33.69 2.59001 34.31C2.63001 34.4 2.67001 34.48 2.72001 34.57C3.02001 35.13 3.35001 35.68 3.70001 36.22C3.80001 36.37 3.89001 36.51 3.99001 36.66C4.31001 37.14 4.66001 37.61 5.02001 38.06C5.18001 38.27 5.35001 38.47 5.52001 38.67C5.86001 39.07 6.22001 39.47 6.59001 39.85C6.69001 39.95 6.78001 40.07 6.88001 40.17C11.47 44.76 17.49 47.05 23.52 47.05H23.54C29.56 47.05 35.59 44.76 40.18 40.17C49.35 31 49.35 16.07 40.18 6.90001M23.6 41.42C19.03 41.42 14.46 39.68 10.99 36.21C8.84001 34.06 7.36001 31.5 6.54001 28.78C6.54001 28.76 6.52001 28.74 6.52001 28.72C6.45001 28.5 6.41001 28.27 6.35001 28.04C5.97001 26.59 5.76001 25.08 5.76001 23.54C5.76001 18.78 7.61001 14.32 10.96 10.97C14.31 7.62001 18.78 5.77001 23.53 5.77001C24.13 5.77001 24.73 5.80001 25.32 5.86001C29.44 6.25001 33.25 8.04001 36.21 10.99C43.16 17.94 43.16 29.26 36.21 36.21C32.73 39.69 28.16 41.42 23.6 41.42Z" fill="white"/>
<path d="M62.71 52.66L52.42 42.37L49.38 39.33C48.67 38.62 47.51 38.62 46.8 39.33L45.07 41.06L42.77 38.76C42.19 39.5 41.56 40.2 40.88 40.88C40.2 41.56 39.49 42.19 38.75 42.77L41.06 45.08L39.33 46.81C38.62 47.52 38.62 48.68 39.33 49.39L52.66 62.73C54.05 64.12 55.87 64.81 57.69 64.81C59.51 64.81 61.33 64.12 62.72 62.73C64.06 61.39 64.8 59.6 64.8 57.7C64.8 55.8 64.06 54.02 62.72 52.67" fill="white"/>
</g>
<defs>
<clipPath id="clip0_3_11339">
<rect width="64.8" height="64.79" fill="white"/>
</clipPath>
</defs>
</svg>
