<svg width="67" height="67" viewBox="0 0 67 67" fill="none" xmlns="http://www.w3.org/2000/svg">
<circle cx="33.5" cy="33.5" r="33.5" fill="#F6B637"/>
<path d="M20.1407 21.4242L20.285 38.5066C20.778 40.7773 22.1477 42.9226 24.3944 44.9423C26.6807 46.9998 29.8617 48.9229 33.9312 50.7027C37.1138 49.3847 39.8473 47.7012 42.1339 45.6583C44.4466 43.5918 46.3003 41.1487 47.7012 38.3342L47.4188 21.4329C43.1461 19.2262 38.4586 18.1246 33.771 18.1246C29.0835 18.1246 24.4091 19.2238 20.1407 21.4242ZM18.1574 38.6322L18.0059 20.799L18 20.1647L18.5603 19.8608C23.3024 17.2861 28.5372 16 33.7707 16C39.0043 16 44.2375 17.2861 48.978 19.8608L49.5252 20.1592L49.534 20.7757L49.8313 38.5567L49.8372 38.8108L49.7312 39.0359C48.1951 42.1952 46.1414 44.9309 43.5637 47.2338C40.9976 49.5308 37.9138 51.3954 34.3167 52.8363L33.9091 53L33.4974 52.8245C29.0143 50.8986 25.5008 48.7941 22.9646 46.5116C20.342 44.1502 18.7461 41.5929 18.1764 38.8371L18.1574 38.7378V38.6322Z" fill="#4A2016"/>
<path fill-rule="evenodd" clip-rule="evenodd" d="M6.91939 2.67296C7.4975 2.67296 7.96528 3.13787 7.96528 3.7105C7.96528 4.12868 7.71659 4.49083 7.35913 4.65457L8.01702 7.7087H5.82176L6.46781 4.64869C6.11751 4.48216 5.87318 4.12558 5.87318 3.7105C5.87318 3.13787 6.34408 2.67296 6.91939 2.67296ZM1.41503 0.791016H12.4262C12.7821 0.791016 13.0735 1.08043 13.0735 1.43701V8.94218C13.0735 9.29876 12.7821 9.59096 12.4262 9.59096H1.41503C1.05913 9.59096 0.766174 9.29876 0.766174 8.94218V1.43701C0.766174 1.08043 1.05881 0.791016 1.41503 0.791016Z" fill="#4A2016"/>
</svg>


