<svg width="66" height="66" viewBox="0 0 66 66" fill="none" xmlns="http://www.w3.org/2000/svg">
<g clip-path="url(#clip0_3_11335)">
<path d="M33.0008 0C23.8887 0 15.6374 3.69351 9.66547 9.66548C3.69516 15.6383 0 23.8895 0 33.0008C0 42.1121 3.69598 50.3617 9.66547 56.3337C15.6374 62.3057 23.8895 65.9992 33.0008 65.9992C42.1121 65.9992 50.3617 62.3057 56.3337 56.3337C62.3065 50.3617 66 42.113 66 33.0017C66 23.8903 62.3065 15.6383 56.3345 9.66548C50.3617 3.69351 42.113 0 33.0008 0ZM11.7369 11.7369C17.1787 6.29522 24.696 2.92908 33.0016 2.92908C41.3073 2.92908 48.8246 6.29522 54.2639 11.7369C59.7056 17.1787 63.0717 24.696 63.0717 33.0017C63.0717 41.3073 59.7056 48.8222 54.2639 54.2639C48.8246 59.7056 41.3048 63.0717 33.0016 63.0717C24.6985 63.0717 17.1787 59.7056 11.7369 54.2639C6.29522 48.8222 2.92908 41.3048 2.92908 33.0017C2.92908 24.6985 6.29522 17.1787 11.7369 11.7369Z" fill="white"/>
<path fill-rule="evenodd" clip-rule="evenodd" d="M13.8612 33.0017C13.8612 32.1927 13.2048 31.5363 12.3958 31.5363H6.76195C7.0984 25.3813 9.55579 19.7928 13.4126 15.4824L17.3955 19.4679C17.9678 20.0385 18.8939 20.0385 19.467 19.4679C20.0377 18.8948 20.0377 17.9671 19.467 17.3964L15.484 13.4134C19.7919 9.55666 25.3837 7.10009 31.5363 6.76282V12.3967C31.5363 13.2056 32.1935 13.8596 33.0016 13.8596C33.8098 13.8596 34.4654 13.2048 34.4654 12.3967V6.76282C40.6204 7.09927 46.2089 9.55584 50.5192 13.4134L46.5363 17.3964C45.9632 17.9671 45.9632 18.8948 46.5363 19.4679C47.1069 20.0385 48.0346 20.0385 48.6053 19.4679L52.5907 15.4824C56.445 19.7928 58.9024 25.3821 59.2413 31.5363H53.6058C52.7993 31.5363 52.1421 32.1927 52.1421 33.0017C52.1421 33.8106 52.7993 34.4654 53.6058 34.4654H59.2413C58.9024 40.6204 56.4483 46.2089 52.5907 50.5193L48.6053 46.5363C48.0346 45.9632 47.1069 45.9632 46.5363 46.5363C45.9632 47.107 45.9632 48.0347 46.5363 48.6053L50.5192 52.5883C46.2089 56.4451 40.6196 58.9016 34.4654 59.2406V53.605C34.4654 52.7961 33.8106 52.1421 33.0016 52.1421C32.1927 52.1421 31.5363 52.7969 31.5363 53.605V59.2406C25.3837 58.9016 19.7927 56.4451 15.484 52.5883L19.467 48.6053C20.0377 48.0347 20.0377 47.107 19.467 46.5363C18.8947 45.9632 17.9687 45.9632 17.3955 46.5363L13.4126 50.5193C9.55579 46.2089 7.09922 40.6196 6.76195 34.4654H12.3958C13.2048 34.4654 13.8612 33.809 13.8612 33.0017ZM21.2878 34.4646H33.0008C33.8098 34.4646 34.4645 33.8082 34.4645 33.0009V17.5523C34.4645 16.7433 33.8098 16.0869 33.0008 16.0869C32.1919 16.0869 31.5354 16.7441 31.5354 17.5523V31.5355H21.2878C20.4788 31.5355 19.8241 32.1903 19.8241 32.9992C19.8241 33.8082 20.4788 34.4646 21.2878 34.4646Z" fill="white"/>
</g>
<defs>
<clipPath id="clip0_3_11335">
<rect width="66" height="66" fill="white" transform="matrix(-1 0 0 1 66 0)"/>
</clipPath>
</defs>
</svg>
