<svg width="67" height="67" viewBox="0 0 67 67" fill="none" xmlns="http://www.w3.org/2000/svg">
<circle cx="33.5" cy="33.5" r="33.5" fill="#F6B637"/>
<g clip-path="url(#clip0_70_713)">
<path d="M42.8744 31.2535C42.8744 31.4398 42.8023 31.6156 42.6681 31.7505L33.9131 40.3962C33.7796 40.5305 33.604 40.6036 33.4187 40.6036H33.4082C33.2229 40.593 33.0376 40.5206 32.9138 40.3758L27.6709 34.7847C27.4031 34.495 27.4136 34.0494 27.7017 33.7801L30.7095 30.9224C30.8536 30.7979 31.0186 30.7255 31.2144 30.7361C31.3998 30.7361 31.5851 30.819 31.7089 30.9533L33.5523 32.9204L38.7742 27.7743C39.0526 27.4945 39.4952 27.4945 39.7736 27.7743L42.6779 30.7459C42.8115 30.8802 42.8842 31.0665 42.8737 31.2535H42.8744Z" fill="#4A2016"/>
<path d="M35.8824 21.5813V19.7044C35.8824 19.3134 35.5667 18.9961 35.1777 18.9961C34.7887 18.9961 34.4731 19.3134 34.4731 19.7044V21.5813C34.4731 21.9723 34.7887 22.2897 35.1777 22.2897C35.5667 22.2897 35.8824 21.9723 35.8824 21.5813Z" fill="#4A2016"/>
<path d="M34.4731 46.5853V48.4628C34.4731 48.8539 34.7887 49.1712 35.1777 49.1712C35.5667 49.1712 35.8824 48.8539 35.8824 48.4628V46.5853C35.8824 46.1943 35.5667 45.877 35.1777 45.877C34.7887 45.877 34.4731 46.1943 34.4731 46.5853Z" fill="#4A2016"/>
<path d="M49.4807 34.7917C49.8697 34.7917 50.1854 34.4744 50.1854 34.0833C50.1854 33.6923 49.8697 33.375 49.4807 33.375H47.6137C47.2247 33.375 46.9091 33.6923 46.9091 34.0833C46.9091 34.4744 47.2247 34.7917 47.6137 34.7917H49.4807Z" fill="#4A2016"/>
<path d="M52 34.0813C52 43.4103 44.45 51 35.1803 51C29.9892 51 25.2204 48.6498 22.007 44.5702H13.3346C12.9429 44.5702 12.624 44.2595 12.624 43.8658C12.624 43.4722 12.9436 43.1516 13.3346 43.1516H23.7476C24.1392 43.1516 24.4582 43.4722 24.4582 43.8658C24.4582 44.218 24.1798 44.5077 23.8406 44.5492C26.7554 47.7591 30.8032 49.5813 35.181 49.5813C43.6786 49.5813 50.5894 42.6236 50.5894 34.0813C50.5894 25.539 43.6779 18.5917 35.181 18.5917C30.8137 18.5917 26.7659 20.4034 23.8616 23.593H28.1772C28.5681 23.593 28.8877 23.9136 28.8877 24.3072C28.8877 24.7009 28.5681 25.011 28.1772 25.011H14.4053C14.0143 25.011 13.6947 24.6897 13.6947 24.3072C13.6947 23.9248 14.0143 23.593 14.4053 23.593H22.007C24.798 20.0414 28.7842 17.8051 33.1928 17.2876V14.4187H32.7501C32.3585 14.4187 32.0501 14.0974 32.0501 13.7143C32.0501 13.3311 32.3592 13 32.7501 13H37.6119C37.993 13 38.3126 13.3213 38.3126 13.7143C38.3126 14.1073 37.9937 14.4187 37.6119 14.4187H37.1692V17.2968C38.8378 17.5035 40.4343 17.9387 41.9176 18.6016L43.0813 16.6135C43.6373 15.6714 44.8527 15.3502 45.8003 15.9091C46.4081 16.2613 46.7787 16.9236 46.7787 17.628C46.7787 17.9802 46.6857 18.3324 46.5109 18.6326L45.3367 20.6411C49.3746 23.7266 52.0006 28.5929 52.0006 34.0806L52 34.0813Z" fill="#4A2016"/>
<path d="M10.7485 31.5319H21.8079C22.1969 31.5319 22.5125 31.2146 22.5125 30.8236C22.5125 30.4325 22.1969 30.1152 21.8079 30.1152H10.7485C10.3595 30.1152 10.0438 30.4325 10.0438 30.8236C10.0438 31.2146 10.3595 31.5319 10.7485 31.5319Z" fill="#4A2016"/>
<path d="M8.70464 38.0515H20.0974C20.4864 38.0515 20.802 37.7342 20.802 37.3431C20.802 36.9521 20.4864 36.6348 20.0974 36.6348H8.70464C8.31565 36.6348 8 36.9521 8 37.3431C8 37.7342 8.31565 38.0515 8.70464 38.0515Z" fill="#4A2016"/>
</g>
<defs>
<clipPath id="clip0_70_713">
<rect width="44" height="38" fill="white" transform="translate(8 13)"/>
</clipPath>
</defs>
</svg>
