<svg width="67" height="67" viewBox="0 0 67 67" fill="none" xmlns="http://www.w3.org/2000/svg">
<circle cx="33.5" cy="33.5" r="33.5" fill="#F6B637"/>
<g clip-path="url(#clip0_3_5420)">
<path d="M47.6563 48.8065L43.1744 37.9388C43.0567 37.6532 42.7782 37.4668 42.4692 37.4668H40.671C40.3442 37.9659 40.0013 38.4745 39.6429 38.9925H41.9588L45.8112 48.3346H19.9026L23.7552 38.9925H25.54C25.2151 38.4745 24.9043 37.9659 24.608 37.4668H23.2446C22.9357 37.4668 22.6572 37.6532 22.5394 37.9388L18.0576 48.8065C17.9605 49.0418 17.9872 49.31 18.1288 49.5216C18.2705 49.7333 18.5082 49.8603 18.7627 49.8603H46.9511C47.2056 49.8603 47.4435 49.7333 47.585 49.5216C47.7267 49.31 47.7533 49.0418 47.6563 48.8065Z" fill="#4A2016"/>
<path d="M27.348 38.9924C27.6842 39.5149 28.0189 40.0222 28.3464 40.5091C28.6275 40.9273 28.9035 41.3302 29.1705 41.7151C30.092 43.0421 30.9086 44.1502 31.4767 44.904C31.8981 45.463 32.7306 45.4835 33.179 44.946C33.8248 44.1721 34.7739 43.008 35.8453 41.6086C36.1418 41.2213 36.4477 40.816 36.7591 40.3957C37.0941 39.9436 37.4356 39.4746 37.7786 38.9925C38.1318 38.4961 38.4865 37.9862 38.8377 37.4668C41.4852 33.5524 43.9296 29.1113 43.9296 26.0581C43.9296 19.3985 38.9723 14 32.8569 14C26.7415 14 21.7844 19.3985 21.7844 26.0578C21.7844 29.1111 23.9954 33.5523 26.3899 37.4665C26.7075 37.986 27.0284 38.4958 27.3478 38.9922L27.348 38.9924ZM26.3763 24.7475C26.3763 21.1692 29.2773 18.2682 32.8556 18.2682C36.434 18.2682 39.335 21.1692 39.335 24.7475C39.335 28.3259 36.4341 31.227 32.8556 31.227C29.2771 31.227 26.3763 28.326 26.3763 24.7475Z" fill="#4A2016"/>
</g>
<defs>
<clipPath id="clip0_3_5420">
<rect width="29.7139" height="35.8601" fill="white" transform="translate(18 14)"/>
</clipPath>
</defs>
</svg>
