<svg width="59" height="65" viewBox="0 0 59 65" fill="none" xmlns="http://www.w3.org/2000/svg">
<g clip-path="url(#clip0_3_11331)">
<path d="M57.1335 64.9999H1.86651C0.759269 64.9999 -0.126522 64.0606 0.031655 62.9648C0.601092 58.644 1.86651 48.8752 1.86651 48.8752C2.11959 47.5915 2.91048 46.5582 3.95444 46.0573L11.4837 42.6758C11.4837 46.3391 12.2113 51.2861 15.3432 55.6069C15.1534 55.9513 15.0268 56.3583 15.0268 56.7967C15.0268 58.1743 16.1341 59.2702 17.526 59.2702C18.918 59.2702 20.0252 58.1743 20.0252 56.7967C20.0252 55.419 18.918 54.3232 17.526 54.3232C17.3362 54.3232 17.1148 54.3232 16.925 54.3858C13.888 50.1902 13.3818 45.1806 13.5083 41.7678L23.0306 37.4783L20.3416 44.0534L24.2327 51.2235L27.4912 41.5173L26.0992 40.2023C25.4981 39.6387 25.9094 38.6367 26.7319 38.6367H32.5212C33.3437 38.6367 33.755 39.5761 33.1855 40.1709L31.8885 41.5173L34.8939 51.2235L38.5636 44.0534L36.0644 37.4783L47.0418 42.394L44.9855 48.1864C42.7078 47.748 40.3668 48.8126 39.2279 50.879L36.7603 55.4816C36.4756 56.0139 36.444 56.6088 36.6338 57.1724C36.8552 57.736 37.2665 58.1743 37.8359 58.3622L38.9432 58.8005C39.4494 58.9884 40.0504 58.7379 40.2402 58.2369C40.43 57.736 40.177 57.1411 39.6708 56.9532L38.5636 56.5462C38.5636 56.5462 38.5636 56.5462 38.5319 56.5149C38.5003 56.4836 38.5319 56.4523 38.5319 56.4523L40.9995 51.8497C41.7904 50.3781 43.562 49.7206 45.1437 50.3155C46.7255 50.9103 47.5796 52.6011 47.1684 54.1979L45.8713 59.2389C45.8713 59.2389 45.8713 59.2702 45.8397 59.3015H45.7764L44.2579 58.7379C43.7518 58.55 43.1507 58.8005 42.9609 59.3015C42.7711 59.8025 43.0242 60.3973 43.5303 60.5852L45.0488 61.1488C45.3019 61.2427 45.555 61.274 45.8081 61.274C46.1244 61.274 46.4724 61.1801 46.7571 61.0549C47.2949 60.7731 47.6745 60.3034 47.8327 59.7398L49.1298 54.6989C49.6992 52.4759 48.7502 50.1902 46.8837 48.9691L48.9083 43.2394L55.1721 46.0573C56.2161 46.5269 57.007 47.5915 57.2601 48.8752C57.2601 48.8752 58.5255 58.644 59.0633 62.9648C59.1898 64.0293 58.3357 64.9999 57.2284 64.9999H57.1335Z" fill="white"/>
<path d="M43.3088 15.9368C43.1507 15.6864 42.9925 15.4985 42.8027 15.3419C42.8027 15.1228 42.8343 14.9349 42.8343 14.747C42.8976 14.0269 42.8976 13.3068 42.8976 12.6493C42.8976 12.524 42.8976 12.3675 42.8976 12.2422C42.771 9.6748 42.1383 7.70225 40.9994 6.38722C40.6198 5.94888 40.1769 5.57316 39.6708 5.29137C39.1962 4.44599 38.4053 3.35013 37.2348 2.37952C35.1469 0.563523 32.4579 -0.219232 29.4842 0.0625597C26.5104 -0.219232 23.8214 0.563523 21.7335 2.34821C20.563 3.31882 19.7721 4.41468 19.2976 5.26006C18.823 5.54185 18.3801 5.91757 17.9689 6.38722C17.0515 7.45177 16.482 8.92335 16.2289 10.802C16.1657 11.2403 16.134 11.6786 16.1024 12.1483C16.1024 12.618 16.0708 13.0876 16.1024 13.6199C16.1024 14.1835 16.134 14.747 16.1973 15.3733C16.0391 15.5298 15.8493 15.7177 15.6911 15.9681C14.8686 17.2519 14.6788 19.4123 15.185 21.7605C15.6911 24.0149 16.8933 26.3944 18.57 27.0833C20.0568 31.5293 23.6 36.0067 29.4842 36.0693C35.3684 36.0067 38.9115 31.5293 40.3984 27.0833C42.0751 26.3944 43.2772 24.0149 43.7834 21.7605C44.2895 19.4123 44.0997 17.2519 43.2772 15.9681L43.3088 15.9368ZM41.0944 21.1343C40.6198 23.2321 39.7024 24.328 39.3544 24.4845C38.7217 24.4845 38.1523 24.8916 37.9625 25.4865C37.4563 27.3024 35.3367 33.1888 29.4842 33.2514C23.6 33.1888 21.512 27.3024 21.0059 25.4865C20.8477 24.8916 20.2783 24.4845 19.6772 24.4845H19.6456C19.2976 24.328 18.3801 23.2008 17.9056 21.1343C17.4627 19.0992 17.8107 17.7215 18.0322 17.4084C18.6965 17.2206 19.1078 16.5944 19.0445 15.9368C19.0445 15.8116 19.0445 15.6864 19.0129 15.5611C19.0129 15.5611 19.519 10.9585 21.9549 9.92528C21.9549 9.92528 30.8761 14.9349 40.1453 14.1208C40.1453 14.6844 40.082 15.3106 39.9871 15.9368C39.9238 16.6257 40.3351 17.2519 40.9994 17.4084C41.1576 17.5963 41.3474 18.2538 41.3474 19.2244C41.3474 19.7567 41.2842 20.4142 41.126 21.1343H41.0944Z" fill="white"/>
</g>
<defs>
<clipPath id="clip0_3_11331">
<rect width="59" height="65" fill="white"/>
</clipPath>
</defs>
</svg>
