<svg width="187" height="448" viewBox="0 0 187 448" fill="none" xmlns="http://www.w3.org/2000/svg">
<path d="M88.7921 54.0524C80.0944 54.2183 71.5948 59.81 69.9882 68.6532C68.1916 78.575 79.6175 91.2342 81.0713 104.44C86.1125 150.046 17.3603 151.692 39.6884 205.275C53.7106 238.938 90.3618 221.86 108.526 243.918C131.843 272.251 100.72 295.012 100.995 324.42C101.487 377.171 161.811 406.171 203.557 373.622C221.701 359.465 231.399 326.792 263.678 340.725C286.361 350.534 286.567 386.47 324.818 380.887C388.058 371.651 365.718 275.293 303.499 297.275C281.921 304.893 281.728 330.896 250.325 325.32C218.614 319.688 223.184 269.927 174.712 262.356C156.117 259.443 135.525 265.156 121.9 247.084C102.648 221.542 124.892 205.987 122.44 183.324C118.869 150.375 79.6425 143.741 90.0326 103.376C93.514 89.8706 108.308 81.3122 105.352 68.0826C103.808 61.1742 95.94 53.9285 88.7767 54.0573L88.7921 54.0524Z" fill="url(#paint0_linear_3_5787)"/>
<defs>
<linearGradient id="paint0_linear_3_5787" x1="236.889" y1="247.314" x2="104.122" y2="58.4239" gradientUnits="userSpaceOnUse">
<stop stop-color="#F15922"/>
<stop offset="1" stop-color="#F5821F"/>
</linearGradient>
</defs>
</svg>
