<svg width="118" height="118" viewBox="0 0 118 118" fill="none" xmlns="http://www.w3.org/2000/svg">
<g clip-path="url(#clip0_25_576)">
<path d="M52.4682 93.833C36.8435 93.833 24.1355 81.1026 24.1355 65.4584C24.1355 49.8142 36.8471 37.0801 52.4682 37.0801C68.0893 37.0801 80.801 49.8105 80.801 65.4584C80.801 81.1062 68.0893 93.833 52.4682 93.833ZM52.4682 40.9857C38.9947 40.9857 28.0353 51.9613 28.0353 65.4547C28.0353 78.9481 38.9947 89.9238 52.4682 89.9238C65.9417 89.9238 76.9012 78.9481 76.9012 65.4547C76.9012 51.9613 65.9417 40.9857 52.4682 40.9857Z" fill="#F15922"/>
<path d="M52.4682 118C23.5369 118 0 94.4281 0 65.454C0 36.4799 23.5369 12.9082 52.4682 12.9082C57.9498 12.9082 63.3551 13.7511 68.5283 15.4151C69.555 15.7457 70.1209 16.8465 69.7908 17.871C69.4606 18.8992 68.3651 19.466 67.3384 19.1354C62.5498 17.5949 57.5507 16.8138 52.4719 16.8138C25.6881 16.8174 3.90347 38.6343 3.90347 65.454C3.90347 92.2736 25.6918 114.091 52.4682 114.091C79.2447 114.091 101.033 92.27 101.033 65.454C101.033 60.1169 100.177 54.8743 98.4863 49.8679C98.1417 48.8434 98.6895 47.7353 99.7089 47.3901C100.732 47.0377 101.838 47.5936 102.183 48.6145C104.008 54.0242 104.936 59.6882 104.936 65.454C104.936 94.4281 81.3996 118 52.4682 118Z" fill="#F15922"/>
<path d="M94.9891 41.4071C94.8803 41.4071 94.7679 41.3962 94.6554 41.378L80.6994 38.9511C79.8868 38.8094 79.252 38.1736 79.1105 37.3598L76.6871 23.3832C76.5783 22.7583 76.7814 22.1189 77.2313 21.6684L98.2904 0.574518C98.8346 0.0295501 99.6472 -0.144839 100.369 0.131277C101.087 0.407394 101.577 1.07952 101.621 1.84974L102.361 15.6665L116.157 16.4113C116.926 16.4512 117.597 16.9453 117.873 17.6647C118.149 18.3841 117.975 19.2015 117.43 19.7465L96.3677 40.8403C95.9977 41.2109 95.5007 41.4144 94.9891 41.4144V41.4071ZM82.7201 35.3362L94.3253 37.3562L111.579 20.0771L100.402 19.474C99.4078 19.4195 98.6133 18.6238 98.5589 17.6284L97.9567 6.43473L80.7031 23.7138L82.7165 35.3362H82.7201Z" fill="#F15922"/>
<path d="M50.0231 70.0319C49.5225 70.0319 49.0255 69.8394 48.6446 69.4579C47.8828 68.6949 47.8828 67.4597 48.6446 66.6967L79.651 35.6445C80.4128 34.8815 81.6463 34.8815 82.4081 35.6445C83.1699 36.4074 83.1699 37.6427 82.4081 38.4056L51.4017 69.4579C51.0208 69.8394 50.5201 70.0319 50.0231 70.0319Z" fill="#F15922"/>
<path d="M52.4682 73.3602C56.828 73.3602 60.3622 69.8207 60.3622 65.4545C60.3622 61.0883 56.828 57.5488 52.4682 57.5488C48.1085 57.5488 44.5742 61.0883 44.5742 65.4545C44.5742 69.8207 48.1085 73.3602 52.4682 73.3602Z" fill="#F6B637"/>
<path d="M52.4682 74.8278C51.7717 74.8278 51.0643 74.7478 50.3569 74.5843C47.9226 74.0212 45.8512 72.5389 44.5271 70.4135C43.2029 68.2918 42.7857 65.7777 43.3517 63.3398C43.914 60.902 45.3941 58.8275 47.5127 57.505C49.635 56.179 52.1417 55.7612 54.576 56.3243C59.6004 57.4905 62.7457 62.5333 61.5812 67.5651C60.5835 71.8922 56.7236 74.8241 52.4682 74.8241V74.8278ZM52.4537 59.0128C51.2638 59.0128 50.0957 59.347 49.0618 59.9901C47.6034 60.902 46.5876 62.3262 46.1995 64.0011C45.8113 65.6759 46.0979 67.4053 47.0085 68.8622C47.919 70.3227 49.3411 71.34 51.0135 71.7287C52.6823 72.1138 54.4091 71.8268 55.8674 70.9185C57.3258 70.0066 58.3416 68.5824 58.7297 66.9076C59.5278 63.4488 57.3693 59.9828 53.9157 59.1799C53.4296 59.0673 52.9398 59.0128 52.4537 59.0128Z" fill="#F15922"/>
</g>
<defs>
<clipPath id="clip0_25_576">
<rect width="118" height="118" fill="white"/>
</clipPath>
</defs>
</svg>
