<svg width="606" height="764" viewBox="0 0 606 764" fill="none" xmlns="http://www.w3.org/2000/svg">
<g filter="url(#filter0_d_3_6048)">
<path d="M425.351 98.9292L153.572 98.9292C118.152 98.9292 89.4388 127.792 89.4388 163.395L89.4388 859.463C89.4388 895.067 118.152 923.929 153.572 923.929H425.351C460.771 923.929 489.485 895.067 489.485 859.463L489.485 163.395C489.485 127.792 460.771 98.9292 425.351 98.9292Z" fill="#E0E1E3"/>
<g style="mix-blend-mode:overlay">
<path d="M424.855 100.85L154.069 100.85C119.433 100.85 91.3492 129.079 91.3492 163.895L91.3492 858.945C91.3492 893.761 119.433 921.99 154.069 921.99H424.855C459.491 921.99 487.574 893.761 487.574 858.945L487.574 163.895C487.574 129.079 459.491 100.85 424.855 100.85ZM485.664 858.445C485.664 892.493 458.211 920.089 424.339 920.089H154.585C120.713 920.089 93.2597 892.493 93.2597 858.445L93.2597 164.413C93.2597 130.365 120.713 102.77 154.585 102.77L424.358 102.77C458.23 102.77 485.683 130.365 485.683 164.413L485.683 858.465L485.664 858.445Z" fill="black"/>
</g>
<path d="M423.747 105.228L155.196 105.228C122.625 105.228 96.2208 131.769 96.2208 164.509L96.2208 858.349C96.2208 891.089 122.625 917.63 155.196 917.63H423.747C456.318 917.63 482.722 891.089 482.722 858.349L482.722 164.509C482.722 131.769 456.318 105.228 423.747 105.228Z" fill="#1D1D1B"/>
<path d="M491.835 309.706H489.485V409.142H491.835V309.706Z" fill="url(#paint0_linear_3_6048)"/>
<path d="M491.835 409.161V309.745L493 311.031C492.408 321.612 492.446 397.293 493 407.855L491.835 409.142V409.161Z" fill="url(#paint1_linear_3_6048)"/>
<path d="M88.006 368.027H86.6687V431.015H88.006V368.027Z" fill="url(#paint2_linear_3_6048)"/>
<path d="M86.6687 431.015V368.047L86 368.872C86.3439 375.574 86.3057 423.525 86 430.208L86.6687 431.034V431.015Z" fill="url(#paint3_linear_3_6048)"/>
<path d="M89.4388 368.047H88.006V431.034H89.4388V368.047Z" fill="url(#paint4_linear_3_6048)"/>
<path d="M88.006 288.794H86.6687V351.781H88.006V288.794Z" fill="url(#paint5_linear_3_6048)"/>
<path d="M86.6687 351.781V288.813L86 289.639C86.3439 296.341 86.3057 344.292 86 350.975L86.6687 351.8V351.781Z" fill="url(#paint6_linear_3_6048)"/>
<path d="M89.4388 288.794H88.006V351.781H89.4388V288.794Z" fill="url(#paint7_linear_3_6048)"/>
<path d="M88.006 229.282H86.6687V261.621H88.006V229.282Z" fill="url(#paint8_linear_3_6048)"/>
<path d="M86.6687 261.602V229.282L86 230.05C86.3439 236.388 86.3057 254.496 86 260.814L86.6687 261.582V261.602Z" fill="url(#paint9_linear_3_6048)"/>
<path d="M89.4388 229.282H88.006V261.621H89.4388V229.282Z" fill="url(#paint10_linear_3_6048)"/>
<mask id="mask0_3_6048" style="mask-type:alpha" maskUnits="userSpaceOnUse" x="108" y="118" width="362" height="787">
<path d="M392.817 118.382H424.052C449.442 118.382 469.998 139.064 469.998 164.567L469.998 858.273C469.998 883.794 449.423 904.457 424.052 904.457H154.89C129.501 904.457 108.944 883.775 108.944 858.273L108.944 164.567C108.944 139.045 129.52 118.382 154.89 118.382L392.817 118.382Z" fill="white"/>
</mask>
<g mask="url(#mask0_3_6048)">
<path d="M392.817 118.382H424.052C449.442 118.382 469.998 139.064 469.998 164.567L469.998 858.273C469.998 883.794 449.423 904.457 424.052 904.457H154.89C129.501 904.457 108.944 883.775 108.944 858.273L108.944 164.567C108.944 139.045 129.52 118.382 154.89 118.382L392.817 118.382Z" fill="white"/>
</g>
<path d="M319.685 156.635H255.781C248.598 156.635 242.771 150.778 242.771 143.558C242.771 136.337 248.598 130.461 255.781 130.461H319.685C326.868 130.461 332.695 136.318 332.695 143.558C332.695 150.778 326.868 156.635 319.685 156.635Z" fill="#1D1D1B"/>
<path d="M316.074 149.28C319.218 149.28 321.767 146.718 321.767 143.558C321.767 140.397 319.218 137.835 316.074 137.835C312.93 137.835 310.381 140.397 310.381 143.558C310.381 146.718 312.93 149.28 316.074 149.28Z" fill="url(#paint11_linear_3_6048)"/>
<path d="M316.074 146.822C317.868 146.822 319.322 145.361 319.322 143.558C319.322 141.755 317.868 140.293 316.074 140.293C314.281 140.293 312.826 141.755 312.826 143.558C312.826 145.361 314.281 146.822 316.074 146.822Z" fill="url(#paint12_linear_3_6048)"/>
<path d="M318.921 143.558C318.921 145.133 317.641 146.419 316.074 146.419C314.508 146.419 313.228 145.133 313.228 143.558C313.228 141.983 314.489 140.697 316.074 140.697C317.66 140.697 318.921 141.964 318.921 143.558Z" fill="url(#paint13_linear_3_6048)"/>
<path style="mix-blend-mode:multiply" d="M318.921 143.558C318.921 145.133 317.641 146.419 316.074 146.419C314.508 146.419 313.228 145.133 313.228 143.558C313.228 141.983 314.489 140.697 316.074 140.697C317.66 140.697 318.921 141.964 318.921 143.558Z" fill="url(#paint14_radial_3_6048)"/>
<path style="mix-blend-mode:screen" d="M318.653 145.056C318.653 144.499 318.195 144.038 317.641 144.038C317.087 144.038 316.628 144.499 316.628 145.056C316.628 145.613 317.087 146.073 317.641 146.073C318.195 146.073 318.653 145.613 318.653 145.056Z" fill="url(#paint15_radial_3_6048)"/>
</g>
<defs>
<filter id="filter0_d_3_6048" x="-6.1" y="0.829201" width="611.2" height="1029.2" filterUnits="userSpaceOnUse" color-interpolation-filters="sRGB">
<feFlood flood-opacity="0" result="BackgroundImageFix"/>
<feColorMatrix in="SourceAlpha" type="matrix" values="0 0 0 0 0 0 0 0 0 0 0 0 0 0 0 0 0 0 127 0" result="hardAlpha"/>
<feOffset dx="10" dy="4"/>
<feGaussianBlur stdDeviation="51.05"/>
<feComposite in2="hardAlpha" operator="out"/>
<feColorMatrix type="matrix" values="0 0 0 0 0.0660307 0 0 0 0 0.02037 0 0 0 0 0.00841132 0 0 0 1 0"/>
<feBlend mode="normal" in2="BackgroundImageFix" result="effect1_dropShadow_3_6048"/>
<feBlend mode="normal" in="SourceGraphic" in2="effect1_dropShadow_3_6048" result="shape"/>
</filter>
<linearGradient id="paint0_linear_3_6048" x1="490.65" y1="309.706" x2="490.65" y2="409.142" gradientUnits="userSpaceOnUse">
<stop stop-color="#58595A"/>
<stop offset="0.02" stop-color="#E0E1E3"/>
<stop offset="0.04" stop-color="#A7A8A9"/>
<stop offset="0.08" stop-color="#2B1D2A"/>
<stop offset="0.11" stop-color="#8C8C8C"/>
<stop offset="0.9" stop-color="#696969"/>
<stop offset="0.94" stop-color="#2B1D2A"/>
<stop offset="0.96" stop-color="#A7A8A9"/>
<stop offset="0.98" stop-color="#8C8C8C"/>
<stop offset="1" stop-color="#A7A8A9"/>
</linearGradient>
<linearGradient id="paint1_linear_3_6048" x1="492.408" y1="309.725" x2="492.408" y2="409.142" gradientUnits="userSpaceOnUse">
<stop stop-color="#676067"/>
<stop offset="0.06" stop-color="#707070"/>
<stop offset="0.19" stop-color="#8A8A8A"/>
<stop offset="0.81" stop-color="#8A8A8A"/>
<stop offset="0.92" stop-color="#707070"/>
<stop offset="1" stop-color="#676067"/>
</linearGradient>
<linearGradient id="paint2_linear_3_6048" x1="-1589.26" y1="368.027" x2="-1589.26" y2="431.015" gradientUnits="userSpaceOnUse">
<stop stop-color="#58595A"/>
<stop offset="0.02" stop-color="#E0E1E3"/>
<stop offset="0.04" stop-color="#A7A8A9"/>
<stop offset="0.08" stop-color="#2D1E2C"/>
<stop offset="0.11" stop-color="#8C8C8C"/>
<stop offset="0.9" stop-color="#696969"/>
<stop offset="0.94" stop-color="#2D1E2C"/>
<stop offset="0.96" stop-color="#A7A8A9"/>
<stop offset="0.98" stop-color="#8C8C8C"/>
<stop offset="1" stop-color="#A7A8A9"/>
</linearGradient>
<linearGradient id="paint3_linear_3_6048" x1="86.3439" y1="368.047" x2="86.3439" y2="431.015" gradientUnits="userSpaceOnUse">
<stop stop-color="#676067"/>
<stop offset="0.06" stop-color="#707070"/>
<stop offset="0.19" stop-color="#8A8A8A"/>
<stop offset="0.81" stop-color="#8A8A8A"/>
<stop offset="0.92" stop-color="#707070"/>
<stop offset="1" stop-color="#676067"/>
</linearGradient>
<linearGradient id="paint4_linear_3_6048" x1="86" y1="431.034" x2="87.9303" y2="368.047" gradientUnits="userSpaceOnUse">
<stop stop-color="#58595A"/>
<stop offset="0.05" stop-color="#2D1E2C"/>
<stop offset="0.52" stop-color="#A7A8A9"/>
<stop offset="0.96" stop-color="#2D1E2C"/>
<stop offset="1" stop-color="#A7A8A9"/>
</linearGradient>
<linearGradient id="paint5_linear_3_6048" x1="87.3373" y1="288.774" x2="87.3373" y2="351.762" gradientUnits="userSpaceOnUse">
<stop stop-color="#58595A"/>
<stop offset="0.02" stop-color="#E0E1E3"/>
<stop offset="0.04" stop-color="#A7A8A9"/>
<stop offset="0.08" stop-color="#2D1E2C"/>
<stop offset="0.11" stop-color="#8C8C8C"/>
<stop offset="0.9" stop-color="#696969"/>
<stop offset="0.94" stop-color="#2D1E2C"/>
<stop offset="0.96" stop-color="#A7A8A9"/>
<stop offset="0.98" stop-color="#8C8C8C"/>
<stop offset="1" stop-color="#A7A8A9"/>
</linearGradient>
<linearGradient id="paint6_linear_3_6048" x1="86.3439" y1="288.794" x2="86.3439" y2="351.762" gradientUnits="userSpaceOnUse">
<stop stop-color="#676067"/>
<stop offset="0.06" stop-color="#707070"/>
<stop offset="0.19" stop-color="#8A8A8A"/>
<stop offset="0.81" stop-color="#8A8A8A"/>
<stop offset="0.92" stop-color="#707070"/>
<stop offset="1" stop-color="#676067"/>
</linearGradient>
<linearGradient id="paint7_linear_3_6048" x1="88.7128" y1="351.8" x2="88.7128" y2="288.794" gradientUnits="userSpaceOnUse">
<stop stop-color="#58595A"/>
<stop offset="0.05" stop-color="#2D1E2C"/>
<stop offset="0.52" stop-color="#A7A8A9"/>
<stop offset="0.96" stop-color="#2D1E2C"/>
<stop offset="1" stop-color="#A7A8A9"/>
</linearGradient>
<linearGradient id="paint8_linear_3_6048" x1="-1589.26" y1="229.263" x2="-1589.26" y2="261.602" gradientUnits="userSpaceOnUse">
<stop stop-color="#58595A"/>
<stop offset="0.02" stop-color="#E0E1E3"/>
<stop offset="0.04" stop-color="#A7A8A9"/>
<stop offset="0.08" stop-color="#2D1E2C"/>
<stop offset="0.11" stop-color="#8C8C8C"/>
<stop offset="0.9" stop-color="#696969"/>
<stop offset="0.94" stop-color="#2D1E2C"/>
<stop offset="0.96" stop-color="#A7A8A9"/>
<stop offset="0.98" stop-color="#8C8C8C"/>
<stop offset="1" stop-color="#A7A8A9"/>
</linearGradient>
<linearGradient id="paint9_linear_3_6048" x1="86.3439" y1="229.282" x2="86.3439" y2="261.602" gradientUnits="userSpaceOnUse">
<stop stop-color="#676067"/>
<stop offset="0.06" stop-color="#707070"/>
<stop offset="0.19" stop-color="#8A8A8A"/>
<stop offset="0.81" stop-color="#8A8A8A"/>
<stop offset="0.92" stop-color="#707070"/>
<stop offset="1" stop-color="#676067"/>
</linearGradient>
<linearGradient id="paint10_linear_3_6048" x1="86" y1="261.621" x2="88.7408" y2="229.285" gradientUnits="userSpaceOnUse">
<stop stop-color="#58595A"/>
<stop offset="0.05" stop-color="#2D1E2C"/>
<stop offset="0.52" stop-color="#A7A8A9"/>
<stop offset="0.96" stop-color="#2D1E2C"/>
<stop offset="1" stop-color="#A7A8A9"/>
</linearGradient>
<linearGradient id="paint11_linear_3_6048" x1="316.074" y1="148.916" x2="316.074" y2="137.662" gradientUnits="userSpaceOnUse">
<stop stop-color="#666666"/>
<stop offset="1" stop-color="#010104"/>
</linearGradient>
<linearGradient id="paint12_linear_3_6048" x1="316.093" y1="140.504" x2="316.093" y2="146.938" gradientUnits="userSpaceOnUse">
<stop stop-color="#0B131C"/>
<stop offset="1" stop-color="#354039"/>
</linearGradient>
<linearGradient id="paint13_linear_3_6048" x1="318.08" y1="145.574" x2="314.048" y2="141.562" gradientUnits="userSpaceOnUse">
<stop stop-color="#231F20"/>
<stop offset="0.08" stop-color="#212226"/>
<stop offset="0.2" stop-color="#1F2C37"/>
<stop offset="0.33" stop-color="#1A3C53"/>
<stop offset="0.47" stop-color="#13537B"/>
<stop offset="0.62" stop-color="#0A70AE"/>
<stop offset="0.78" stop-color="#0095EE"/>
<stop offset="0.8" stop-color="#0387D6"/>
<stop offset="0.84" stop-color="#0D689F"/>
<stop offset="0.88" stop-color="#154D71"/>
<stop offset="0.91" stop-color="#1B394E"/>
<stop offset="0.95" stop-color="#1F2A34"/>
<stop offset="0.98" stop-color="#222225"/>
<stop offset="1" stop-color="#231F20"/>
</linearGradient>
<radialGradient id="paint14_radial_3_6048" cx="0" cy="0" r="1" gradientUnits="userSpaceOnUse" gradientTransform="translate(316.074 143.558) scale(2.84656 2.86131)">
<stop stop-color="#231F20"/>
<stop offset="0.2" stop-color="#165068"/>
<stop offset="0.38" stop-color="#0C78A1"/>
<stop offset="0.54" stop-color="#0594CB"/>
<stop offset="0.66" stop-color="#01A6E4"/>
<stop offset="0.73" stop-color="#00ADEE"/>
<stop offset="0.76" stop-color="#01A5E3"/>
<stop offset="0.81" stop-color="#0693C8"/>
<stop offset="0.87" stop-color="#0D749B"/>
<stop offset="0.94" stop-color="#184A5E"/>
<stop offset="1" stop-color="#231F20"/>
</radialGradient>
<radialGradient id="paint15_radial_3_6048" cx="0" cy="0" r="1" gradientUnits="userSpaceOnUse" gradientTransform="translate(317.641 145.056) scale(1.01253 1.01778)">
<stop stop-color="#CCCCCC"/>
<stop offset="0.02" stop-color="#C4C4C4"/>
<stop offset="0.22" stop-color="#898989"/>
<stop offset="0.41" stop-color="#585858"/>
<stop offset="0.59" stop-color="#313131"/>
<stop offset="0.75" stop-color="#161616"/>
<stop offset="0.89" stop-color="#050505"/>
<stop offset="1"/>
</radialGradient>
</defs>
</svg>
