<svg width="69" height="184" viewBox="0 0 69 184" fill="none" xmlns="http://www.w3.org/2000/svg">
<path d="M32.4494 182.326V26.5244" stroke="#4A2016" stroke-width="2" stroke-linecap="round"/>
<path d="M34.6842 68.3585C53.5185 68.3585 68.7868 53.0903 68.7868 34.2559C68.7868 15.4216 53.5185 0.15332 34.6842 0.15332C15.8498 0.15332 0.581543 15.4216 0.581543 34.2559C0.581543 53.0903 15.8498 68.3585 34.6842 68.3585Z" fill="#F58220"/>
<path d="M20.1412 42.5021C19.281 42.5021 18.4798 42.3623 17.7379 42.0827C17.0066 41.7924 16.3668 41.3892 15.8184 40.873C15.2807 40.3461 14.8613 39.7278 14.5602 39.018C14.2591 38.3083 14.1086 37.5341 14.1086 36.6953C14.1086 35.8566 14.2591 35.0823 14.5602 34.3726C14.8613 33.6629 15.2861 33.0499 15.8345 32.5338C16.3829 32.0069 17.0228 31.6036 17.754 31.324C18.4852 31.0337 19.2863 30.8885 20.1574 30.8885C21.0821 30.8885 21.9263 31.0498 22.6898 31.3724C23.4532 31.6843 24.0984 32.152 24.6254 32.7757L23.2704 34.05C22.8618 33.6091 22.4048 33.2811 21.8994 33.0661C21.394 32.8403 20.8456 32.7273 20.2541 32.7273C19.6627 32.7273 19.1197 32.8241 18.625 33.0177C18.1411 33.2112 17.7163 33.4855 17.3507 33.8403C16.9959 34.1952 16.7163 34.6146 16.512 35.0985C16.3184 35.5824 16.2216 36.1146 16.2216 36.6953C16.2216 37.276 16.3184 37.8083 16.512 38.2922C16.7163 38.7761 16.9959 39.1955 17.3507 39.5503C17.7163 39.9052 18.1411 40.1794 18.625 40.373C19.1197 40.5665 19.6627 40.6633 20.2541 40.6633C20.8456 40.6633 21.394 40.5558 21.8994 40.3407C22.4048 40.1149 22.8618 39.7762 23.2704 39.3245L24.6254 40.6149C24.0984 41.2279 23.4532 41.6956 22.6898 42.0182C21.9263 42.3408 21.0768 42.5021 20.1412 42.5021ZM31.3284 33.6306C32.0166 33.6306 32.6295 33.765 33.1672 34.0339C33.7156 34.3027 34.1458 34.7167 34.4576 35.2759C34.7695 35.8243 34.9254 36.534 34.9254 37.405V42.3408H32.9091V37.6631C32.9091 36.8996 32.7263 36.3297 32.3607 35.9533C32.0058 35.577 31.5058 35.3888 30.8606 35.3888C30.3875 35.3888 29.9681 35.4856 29.6025 35.6791C29.2369 35.8727 28.9519 36.163 28.7476 36.5502C28.554 36.9265 28.4572 37.405 28.4572 37.9857V42.3408H26.441V30.3724H28.4572V36.0501L28.0217 35.3404C28.3228 34.792 28.7583 34.3726 29.3283 34.0823C29.9089 33.7812 30.5757 33.6306 31.3284 33.6306ZM37.4831 42.3408V33.7274H39.4994V42.3408H37.4831ZM38.4993 32.308C38.1229 32.308 37.8111 32.1897 37.5638 31.9531C37.3272 31.7165 37.2089 31.4316 37.2089 31.0982C37.2089 30.7541 37.3272 30.4691 37.5638 30.2433C37.8111 30.0067 38.1229 29.8885 38.4993 29.8885C38.8757 29.8885 39.1821 30.0014 39.4187 30.2272C39.666 30.4423 39.7897 30.7165 39.7897 31.0498C39.7897 31.4047 39.6714 31.7058 39.4348 31.9531C39.1983 32.1897 38.8864 32.308 38.4993 32.308ZM42.1457 42.3408V30.3724H44.1619V42.3408H42.1457ZM50.8569 42.4537C49.8999 42.4537 49.0611 42.2655 48.3406 41.8892C47.6309 41.5021 47.0771 40.9751 46.6792 40.3084C46.2921 39.6417 46.0986 38.8836 46.0986 38.0341C46.0986 37.1738 46.2867 36.4157 46.6631 35.7598C47.0502 35.0931 47.5771 34.5715 48.2438 34.1952C48.9213 33.8188 49.6902 33.6306 50.5504 33.6306C51.3892 33.6306 52.1365 33.8134 52.7925 34.179C53.4485 34.5447 53.9646 35.0608 54.341 35.7275C54.7173 36.3942 54.9055 37.1792 54.9055 38.0825C54.9055 38.1685 54.9002 38.2653 54.8894 38.3728C54.8894 38.4804 54.884 38.5825 54.8733 38.6793H47.6954V37.3405H53.8087L53.0183 37.7599C53.0291 37.2652 52.9269 36.8297 52.7119 36.4534C52.4968 36.077 52.2011 35.7813 51.8247 35.5662C51.4591 35.3512 51.0343 35.2436 50.5504 35.2436C50.0558 35.2436 49.6203 35.3512 49.2439 35.5662C48.8783 35.7813 48.5879 36.0824 48.3729 36.4695C48.1686 36.8459 48.0664 37.2921 48.0664 37.8083V38.1309C48.0664 38.6471 48.1847 39.1041 48.4213 39.5019C48.6578 39.8998 48.9912 40.2063 49.4213 40.4214C49.8515 40.6364 50.3461 40.744 50.9053 40.744C51.3892 40.744 51.8247 40.6687 52.2118 40.5181C52.5989 40.3676 52.943 40.131 53.2441 39.8084L54.3249 41.0504C53.9377 41.5021 53.4485 41.8515 52.857 42.0989C52.2763 42.3354 51.6096 42.4537 50.8569 42.4537Z" fill="white"/>
</svg>
