<svg width="72" height="326" viewBox="0 0 72 326" fill="none" xmlns="http://www.w3.org/2000/svg">
<path d="M34.5181 325L34.5181 22" stroke="#4A2016" stroke-width="2" stroke-linecap="round"/>
<path d="M36.9874 68.2052C55.8217 68.2052 71.09 52.937 71.09 34.1026C71.09 15.2683 55.8217 0 36.9874 0C18.153 0 2.88477 15.2683 2.88477 34.1026C2.88477 52.937 18.153 68.2052 36.9874 68.2052Z" fill="#FFCC00"/>
<path d="M7.15689 41.9453V30.6543H8.8828L13.8186 38.8967H12.9153L17.7704 30.6543H19.4963L19.5125 41.9453H17.5285L17.5124 33.7674H17.9317L13.8025 40.6549H12.8669L8.67311 33.7674H9.15701V41.9453H7.15689ZM26.4174 42.0582C25.4603 42.0582 24.6216 41.87 23.9011 41.4937C23.1914 41.1066 22.6376 40.5796 22.2397 39.9129C21.8526 39.2462 21.659 38.4881 21.659 37.6386C21.659 36.7783 21.8472 36.0202 22.2236 35.3643C22.6107 34.6976 23.1376 34.176 23.8043 33.7997C24.4818 33.4233 25.2506 33.2351 26.1109 33.2351C26.9497 33.2351 27.697 33.4179 28.353 33.7835C29.0089 34.1491 29.5251 34.6653 29.9015 35.332C30.2778 35.9987 30.466 36.7837 30.466 37.687C30.466 37.773 30.4606 37.8698 30.4499 37.9773C30.4499 38.0849 30.4445 38.187 30.4337 38.2838H23.2559V36.945H29.3692L28.5788 37.3644C28.5895 36.8697 28.4874 36.4342 28.2723 36.0579C28.0573 35.6815 27.7615 35.3858 27.3852 35.1707C27.0196 34.9556 26.5948 34.8481 26.1109 34.8481C25.6163 34.8481 25.1807 34.9556 24.8044 35.1707C24.4388 35.3858 24.1484 35.6869 23.9334 36.074C23.729 36.4504 23.6269 36.8966 23.6269 37.4128V37.7354C23.6269 38.2515 23.7452 38.7086 23.9817 39.1064C24.2183 39.5043 24.5517 39.8108 24.9818 40.0258C25.4119 40.2409 25.9066 40.3484 26.4658 40.3484C26.9497 40.3484 27.3852 40.2732 27.7723 40.1226C28.1594 39.9721 28.5035 39.7355 28.8046 39.4129L29.8853 40.6549C29.4982 41.1066 29.0089 41.456 28.4175 41.7034C27.8368 41.9399 27.1701 42.0582 26.4174 42.0582ZM30.989 41.9453L34.7795 37.0095L34.7473 38.0902L31.1341 33.3319H33.3762L35.9086 36.7192H35.0537L37.6023 33.3319H39.7798L36.1344 38.0902L36.1506 37.0095L39.925 41.9453H37.6507L34.9892 38.3483L35.828 38.4612L33.2149 41.9453H30.989ZM41.4129 41.9453V33.3319H43.4291V41.9453H41.4129ZM42.429 31.9125C42.0527 31.9125 41.7408 31.7942 41.4935 31.5576C41.2569 31.321 41.1386 31.0361 41.1386 30.7027C41.1386 30.3586 41.2569 30.0736 41.4935 29.8478C41.7408 29.6112 42.0527 29.493 42.429 29.493C42.8054 29.493 43.1119 29.6059 43.3485 29.8317C43.5958 30.0467 43.7194 30.321 43.7194 30.6543C43.7194 31.0092 43.6012 31.3103 43.3646 31.5576C43.128 31.7942 42.8162 31.9125 42.429 31.9125ZM50.0273 42.0582C49.124 42.0582 48.3175 41.87 47.6078 41.4937C46.9088 41.1066 46.3604 40.5796 45.9625 39.9129C45.5646 39.2462 45.3657 38.4881 45.3657 37.6386C45.3657 36.7783 45.5646 36.0202 45.9625 35.3643C46.3604 34.6976 46.9088 34.176 47.6078 33.7997C48.3175 33.4233 49.124 33.2351 50.0273 33.2351C50.866 33.2351 51.6026 33.4072 52.2371 33.7513C52.8823 34.0846 53.3716 34.5793 53.7049 35.2352L52.1564 36.1385C51.8984 35.7299 51.5811 35.4288 51.2048 35.2352C50.8392 35.0417 50.4413 34.9449 50.0112 34.9449C49.5165 34.9449 49.0702 35.0524 48.6724 35.2675C48.2745 35.4826 47.9626 35.7944 47.7368 36.203C47.511 36.6009 47.3981 37.0794 47.3981 37.6386C47.3981 38.1978 47.511 38.6817 47.7368 39.0903C47.9626 39.4882 48.2745 39.7946 48.6724 40.0097C49.0702 40.2248 49.5165 40.3323 50.0112 40.3323C50.4413 40.3323 50.8392 40.2355 51.2048 40.042C51.5811 39.8484 51.8984 39.5473 52.1564 39.1387L53.7049 40.042C53.3716 40.6872 52.8823 41.1872 52.2371 41.5421C51.6026 41.8862 50.866 42.0582 50.0273 42.0582ZM59.193 42.0582C58.3113 42.0582 57.5263 41.87 56.838 41.4937C56.1498 41.1066 55.6068 40.5796 55.2089 39.9129C54.811 39.2462 54.6121 38.4881 54.6121 37.6386C54.6121 36.7783 54.811 36.0202 55.2089 35.3643C55.6068 34.6976 56.1498 34.176 56.838 33.7997C57.5263 33.4233 58.3113 33.2351 59.193 33.2351C60.0856 33.2351 60.8759 33.4233 61.5641 33.7997C62.2631 34.176 62.8061 34.6922 63.1933 35.3481C63.5911 36.0041 63.7901 36.7676 63.7901 37.6386C63.7901 38.4881 63.5911 39.2462 63.1933 39.9129C62.8061 40.5796 62.2631 41.1066 61.5641 41.4937C60.8759 41.87 60.0856 42.0582 59.193 42.0582ZM59.193 40.3323C59.6877 40.3323 60.1286 40.2248 60.5157 40.0097C60.9028 39.7946 61.2039 39.4828 61.419 39.0742C61.6448 38.6655 61.7577 38.187 61.7577 37.6386C61.7577 37.0794 61.6448 36.6009 61.419 36.203C61.2039 35.7944 60.9028 35.4826 60.5157 35.2675C60.1286 35.0524 59.6931 34.9449 59.2092 34.9449C58.7145 34.9449 58.2736 35.0524 57.8865 35.2675C57.5101 35.4826 57.209 35.7944 56.9832 36.203C56.7574 36.6009 56.6445 37.0794 56.6445 37.6386C56.6445 38.187 56.7574 38.6655 56.9832 39.0742C57.209 39.4828 57.5101 39.7946 57.8865 40.0097C58.2736 40.2248 58.7091 40.3323 59.193 40.3323Z" fill="white"/>
</svg>
