<svg width="69" height="253" viewBox="0 0 69 253" fill="none" xmlns="http://www.w3.org/2000/svg">
<path d="M32.1113 251.176V67.5811" stroke="#4A2016" stroke-width="2" stroke-linecap="round"/>
<path d="M34.3472 68.2052C53.1816 68.2052 68.4498 52.937 68.4498 34.1026C68.4498 15.2683 53.1816 0 34.3472 0C15.5129 0 0.244629 15.2683 0.244629 34.1026C0.244629 52.937 15.5129 68.2052 34.3472 68.2052Z" fill="#C42A2C"/>
<path d="M16.5345 40.592C15.6527 40.592 14.8086 40.4683 14.0021 40.221C13.1956 39.9629 12.5558 39.6349 12.0826 39.237L12.8085 37.6079C13.2601 37.9628 13.8193 38.2585 14.486 38.4951C15.1527 38.7316 15.8355 38.8499 16.5345 38.8499C17.1259 38.8499 17.6045 38.7854 17.9701 38.6564C18.3357 38.5273 18.6045 38.3553 18.7766 38.1402C18.9486 37.9144 19.0346 37.6617 19.0346 37.3821C19.0346 37.038 18.911 36.7638 18.6637 36.5595C18.4163 36.3444 18.0937 36.1777 17.6959 36.0594C17.3087 35.9304 16.8732 35.8121 16.3893 35.7046C15.9162 35.597 15.4377 35.4734 14.9538 35.3336C14.4806 35.183 14.0451 34.9949 13.6472 34.769C13.2601 34.5325 12.9429 34.2206 12.6956 33.8335C12.4482 33.4464 12.3246 32.9517 12.3246 32.3495C12.3246 31.7366 12.4859 31.1774 12.8085 30.672C13.1418 30.1559 13.6418 29.7472 14.3086 29.4461C14.986 29.1343 15.8409 28.9784 16.8732 28.9784C17.5507 28.9784 18.2228 29.0644 18.8895 29.2364C19.5562 29.4085 20.1369 29.6558 20.6315 29.9784L19.9702 31.6076C19.4648 31.3065 18.9432 31.086 18.4056 30.9462C17.8679 30.7957 17.3517 30.7204 16.8571 30.7204C16.2764 30.7204 15.8033 30.7903 15.4377 30.9301C15.0828 31.0699 14.8193 31.2527 14.6473 31.4785C14.486 31.7043 14.4053 31.9624 14.4053 32.2528C14.4053 32.5969 14.5236 32.8764 14.7602 33.0915C15.0075 33.2958 15.3247 33.4571 15.7119 33.5754C16.1097 33.6937 16.5506 33.812 17.0345 33.9303C17.5184 34.0378 17.9969 34.1615 18.4701 34.3013C18.954 34.4411 19.3895 34.6239 19.7766 34.8497C20.1745 35.0755 20.4917 35.382 20.7283 35.7691C20.9756 36.1562 21.0993 36.6455 21.0993 37.2369C21.0993 37.8391 20.9326 38.3983 20.5993 38.9144C20.2767 39.4199 19.7766 39.8285 19.0992 40.1403C18.4217 40.4414 17.5668 40.592 16.5345 40.592ZM27.7595 40.5436C27.0605 40.5436 26.4207 40.3823 25.84 40.0597C25.2701 39.7371 24.8131 39.2532 24.4689 38.608C24.1356 37.952 23.9689 37.124 23.9689 36.124C23.9689 35.1131 24.1302 34.2851 24.4528 33.6399C24.7862 32.9947 25.2378 32.5162 25.8077 32.2044C26.3777 31.8818 27.0282 31.7205 27.7595 31.7205C28.609 31.7205 29.3563 31.9033 30.0015 32.2689C30.6575 32.6345 31.1736 33.1453 31.55 33.8012C31.9371 34.4572 32.1307 35.2314 32.1307 36.124C32.1307 37.0165 31.9371 37.7961 31.55 38.4628C31.1736 39.1188 30.6575 39.6295 30.0015 39.9952C29.3563 40.3608 28.609 40.5436 27.7595 40.5436ZM22.985 43.5599V31.8172H24.9045V33.8496L24.8399 36.1401L25.0012 38.4305V43.5599H22.985ZM27.5336 38.8177C28.0175 38.8177 28.4477 38.7101 28.824 38.4951C29.2112 38.28 29.5176 37.9682 29.7435 37.5595C29.9693 37.1509 30.0822 36.6724 30.0822 36.124C30.0822 35.5648 29.9693 35.0863 29.7435 34.6884C29.5176 34.2798 29.2112 33.9679 28.824 33.7528C28.4477 33.5378 28.0175 33.4302 27.5336 33.4302C27.0497 33.4302 26.6142 33.5378 26.2271 33.7528C25.84 33.9679 25.5335 34.2798 25.3077 34.6884C25.0819 35.0863 24.969 35.5648 24.969 36.124C24.969 36.6724 25.0819 37.1509 25.3077 37.5595C25.5335 37.9682 25.84 38.28 26.2271 38.4951C26.6142 38.7101 27.0497 38.8177 27.5336 38.8177ZM39.2394 40.4307V38.6886L39.1265 38.3176V35.2691C39.1265 34.6776 38.949 34.2206 38.5942 33.898C38.2393 33.5647 37.7016 33.398 36.9812 33.398C36.4973 33.398 36.0187 33.4733 35.5456 33.6238C35.0832 33.7744 34.6907 33.984 34.3681 34.2529L33.5777 32.785C34.0401 32.4302 34.5885 32.1667 35.223 31.9947C35.8682 31.8119 36.5349 31.7205 37.2231 31.7205C38.4705 31.7205 39.4329 32.0216 40.1104 32.6237C40.7986 33.2152 41.1427 34.1346 41.1427 35.382V40.4307H39.2394ZM36.5295 40.5436C35.8843 40.5436 35.3198 40.436 34.8359 40.221C34.352 39.9952 33.9756 39.6887 33.7068 39.3016C33.4487 38.9037 33.3197 38.4574 33.3197 37.9628C33.3197 37.4789 33.4326 37.0434 33.6584 36.6562C33.895 36.2691 34.2767 35.9627 34.8036 35.7368C35.3305 35.511 36.0295 35.3981 36.9005 35.3981H39.4007V36.7369H37.0457C36.3575 36.7369 35.8951 36.8498 35.6585 37.0756C35.4219 37.2907 35.3036 37.5595 35.3036 37.8821C35.3036 38.2477 35.4488 38.5381 35.7392 38.7531C36.0295 38.9682 36.4327 39.0757 36.9489 39.0757C37.4436 39.0757 37.8844 38.9628 38.2716 38.737C38.6694 38.5112 38.9544 38.1778 39.1265 37.737L39.4652 38.9467C39.2716 39.4521 38.9221 39.8446 38.4167 40.1242C37.9221 40.4038 37.293 40.5436 36.5295 40.5436ZM43.7303 40.4307V31.8172H45.7466V40.4307H43.7303ZM44.7465 30.3978C44.3701 30.3978 44.0583 30.2795 43.811 30.0429C43.5744 29.8064 43.4561 29.5214 43.4561 29.1881C43.4561 28.8439 43.5744 28.559 43.811 28.3332C44.0583 28.0966 44.3701 27.9783 44.7465 27.9783C45.1229 27.9783 45.4293 28.0912 45.6659 28.317C45.9132 28.5321 46.0369 28.8063 46.0369 29.1397C46.0369 29.4945 45.9186 29.7956 45.682 30.0429C45.4455 30.2795 45.1336 30.3978 44.7465 30.3978ZM53.2803 31.7205C53.9685 31.7205 54.5814 31.8549 55.1191 32.1237C55.6675 32.3925 56.0976 32.8066 56.4095 33.3657C56.7213 33.9141 56.8773 34.6239 56.8773 35.4949V40.4307H54.861V35.753C54.861 34.9895 54.6782 34.4196 54.3126 34.0432C53.9577 33.6668 53.4577 33.4786 52.8125 33.4786C52.3394 33.4786 51.92 33.5754 51.5544 33.769C51.1888 33.9625 50.9038 34.2529 50.6995 34.64C50.5059 35.0164 50.4091 35.4949 50.4091 36.0756V40.4307H48.3929V31.8172H50.3124V34.14L49.9736 33.4302C50.2747 32.8818 50.7102 32.4624 51.2802 32.1721C51.8608 31.871 52.5275 31.7205 53.2803 31.7205Z" fill="white"/>
</svg>
