<svg width="69" height="290" viewBox="0 0 69 290" fill="none" xmlns="http://www.w3.org/2000/svg">
<path d="M34.5181 289L34.5181 39" stroke="#4A2016" stroke-width="2" stroke-linecap="round"/>
<path d="M34.3527 68.2052C53.1871 68.2052 68.4553 52.937 68.4553 34.1026C68.4553 15.2683 53.1871 0 34.3527 0C15.5184 0 0.250122 15.2683 0.250122 34.1026C0.250122 52.937 15.5184 68.2052 34.3527 68.2052Z" fill="#4A2015"/>
<path d="M13.8791 40.2607V28.2207H16.1151V40.2607H13.8791ZM24.3769 30.9727C25.1108 30.9727 25.7644 31.1161 26.3377 31.4027C26.9225 31.6894 27.3812 32.1309 27.7137 32.7271C28.0462 33.3119 28.2125 34.0687 28.2125 34.9975V40.2607H26.0625V35.2727C26.0625 34.4586 25.8676 33.8509 25.4777 33.4495C25.0993 33.0482 24.5661 32.8475 23.8781 32.8475C23.3736 32.8475 22.9264 32.9507 22.5365 33.1571C22.1466 33.3635 21.8428 33.6731 21.6249 34.0859C21.4185 34.4873 21.3153 34.9975 21.3153 35.6167V40.2607H19.1653V31.0759H21.2121V33.5527L20.8509 32.7959C21.172 32.2111 21.6364 31.7639 22.2441 31.4543C22.8633 31.1333 23.5742 30.9727 24.3769 30.9727ZM34.8439 40.3811C33.961 40.3811 33.164 40.1862 32.4531 39.7963C31.7536 39.395 31.2032 38.8446 30.8019 38.1451C30.4006 37.4457 30.1999 36.6201 30.1999 35.6683C30.1999 34.7166 30.4006 33.891 30.8019 33.1915C31.2032 32.4921 31.7536 31.9474 32.4531 31.5575C33.164 31.1677 33.961 30.9727 34.8439 30.9727C35.6122 30.9727 36.3002 31.1447 36.9079 31.4887C37.5156 31.8213 37.9972 32.3315 38.3527 33.0195C38.7082 33.7075 38.8859 34.5905 38.8859 35.6683C38.8859 36.7347 38.7139 37.6177 38.3699 38.3171C38.0259 39.0051 37.55 39.5211 36.9423 39.8651C36.3346 40.2091 35.6351 40.3811 34.8439 40.3811ZM35.1019 38.5407C35.6179 38.5407 36.0766 38.4261 36.4779 38.1967C36.8907 37.9674 37.2175 37.6349 37.4583 37.1991C37.7106 36.7634 37.8367 36.2531 37.8367 35.6683C37.8367 35.0721 37.7106 34.5618 37.4583 34.1375C37.2175 33.7018 36.8907 33.3693 36.4779 33.1399C36.0766 32.9106 35.6179 32.7959 35.1019 32.7959C34.5859 32.7959 34.1215 32.9106 33.7087 33.1399C33.3074 33.3693 32.9806 33.7018 32.7283 34.1375C32.4875 34.5618 32.3671 35.0721 32.3671 35.6683C32.3671 36.2531 32.4875 36.7634 32.7283 37.1991C32.9806 37.6349 33.3074 37.9674 33.7087 38.1967C34.1215 38.4261 34.5859 38.5407 35.1019 38.5407ZM37.8883 40.2607V38.0935L37.9743 35.6511L37.8023 33.2087V27.4983H39.9351V40.2607H37.8883ZM42.7649 40.2607V31.0759H44.9149V40.2607H42.7649ZM43.8485 29.5623C43.4472 29.5623 43.1147 29.4362 42.8509 29.1839C42.5987 28.9317 42.4725 28.6278 42.4725 28.2723C42.4725 27.9054 42.5987 27.6015 42.8509 27.3607C43.1147 27.1085 43.4472 26.9823 43.8485 26.9823C44.2499 26.9823 44.5767 27.1027 44.8289 27.3435C45.0927 27.5729 45.2245 27.8653 45.2245 28.2207C45.2245 28.5991 45.0984 28.9202 44.8461 29.1839C44.5939 29.4362 44.2613 29.5623 43.8485 29.5623ZM53.3956 40.2607V38.4031L53.2752 38.0075V34.7567C53.2752 34.1261 53.086 33.6387 52.7076 33.2947C52.3292 32.9393 51.7559 32.7615 50.9876 32.7615C50.4716 32.7615 49.9613 32.8418 49.4568 33.0023C48.9637 33.1629 48.5452 33.3865 48.2012 33.6731L47.3584 32.1079C47.8515 31.7295 48.4363 31.4486 49.1128 31.2651C49.8008 31.0702 50.5117 30.9727 51.2456 30.9727C52.5757 30.9727 53.602 31.2938 54.3244 31.9359C55.0583 32.5666 55.4252 33.547 55.4252 34.8771V40.2607H53.3956ZM50.506 40.3811C49.818 40.3811 49.216 40.2665 48.7 40.0371C48.184 39.7963 47.7827 39.4695 47.496 39.0567C47.2208 38.6325 47.0832 38.1566 47.0832 37.6291C47.0832 37.1131 47.2036 36.6487 47.4444 36.2359C47.6967 35.8231 48.1037 35.4963 48.6656 35.2555C49.2275 35.0147 49.9728 34.8943 50.9016 34.8943H53.5676V36.3219H51.0564C50.3225 36.3219 49.8295 36.4423 49.5772 36.6831C49.3249 36.9125 49.1988 37.1991 49.1988 37.5431C49.1988 37.933 49.3536 38.2426 49.6632 38.4719C49.9728 38.7013 50.4028 38.8159 50.9532 38.8159C51.4807 38.8159 51.9508 38.6955 52.3636 38.4547C52.7879 38.2139 53.0917 37.8585 53.2752 37.3883L53.6364 38.6783C53.43 39.2173 53.0573 39.6358 52.5184 39.9339C51.9909 40.2321 51.3201 40.3811 50.506 40.3811Z" fill="white"/>
</svg>
