<svg width="69" height="290" viewBox="0 0 69 290" fill="none" xmlns="http://www.w3.org/2000/svg">
<path d="M35.5181 289L35.5181 16" stroke="#4A2016" stroke-width="2" stroke-linecap="round"/>
<path d="M34.3848 68.2052C53.2191 68.2052 68.4873 52.9369 68.4873 34.1026C68.4873 15.2682 53.2191 0 34.3848 0C15.5504 0 0.282166 15.2682 0.282166 34.1026C0.282166 52.9369 15.5504 68.2052 34.3848 68.2052Z" fill="#F4701F"/>
<path d="M9.19362 37.6377L13.7202 27.5787H15.5595L20.1005 37.6377H18.1461L14.2519 28.5702H14.9991L11.1192 37.6377H9.19362ZM11.2773 35.3098L11.7802 33.844H17.2121L17.715 35.3098H11.2773ZM24.3146 37.7383C23.6631 37.7383 23.0883 37.6185 22.5902 37.379C22.092 37.13 21.704 36.7563 21.4262 36.2582C21.1484 35.7504 21.0095 35.1134 21.0095 34.347V29.9641H22.8057V34.1027C22.8057 34.7924 22.959 35.3098 23.2656 35.6546C23.5817 35.9899 24.0272 36.1576 24.602 36.1576C25.0235 36.1576 25.3875 36.0714 25.6941 35.8989C26.0102 35.7265 26.2545 35.4678 26.427 35.1229C26.609 34.7781 26.7 34.3518 26.7 33.844V29.9641H28.4962V37.6377H26.7862V35.5684L27.088 36.2007C26.8293 36.6989 26.4509 37.0821 25.9527 37.3503C25.4546 37.609 24.9085 37.7383 24.3146 37.7383ZM33.2191 37.7383C32.5773 37.7383 31.9594 37.6569 31.3654 37.494C30.781 37.3216 30.3164 37.1156 29.9715 36.8761L30.6613 35.5109C31.0062 35.7313 31.4181 35.9133 31.8971 36.057C32.3761 36.2007 32.8551 36.2725 33.3341 36.2725C33.8993 36.2725 34.3065 36.1959 34.5555 36.0426C34.8142 35.8893 34.9435 35.6834 34.9435 35.4247C34.9435 35.214 34.8573 35.0559 34.6849 34.9505C34.5124 34.8355 34.2873 34.7493 34.0095 34.6918C33.7317 34.6344 33.4203 34.5817 33.0754 34.5338C32.7401 34.4859 32.4 34.4236 32.0552 34.347C31.7199 34.2607 31.4133 34.141 31.1355 33.9877C30.8577 33.8249 30.6325 33.6093 30.4601 33.3411C30.2877 33.0728 30.2014 32.7184 30.2014 32.2777C30.2014 31.7891 30.3403 31.3676 30.6182 31.0131C30.896 30.6491 31.284 30.3713 31.7821 30.1797C32.2899 29.9785 32.8886 29.8779 33.5784 29.8779C34.0957 29.8779 34.6178 29.9354 35.1447 30.0503C35.6716 30.1653 36.1075 30.3282 36.4524 30.5389L35.7626 31.9041C35.3986 31.6837 35.0298 31.5352 34.6561 31.4586C34.2921 31.3724 33.9281 31.3293 33.564 31.3293C33.018 31.3293 32.6108 31.4107 32.3426 31.5736C32.0839 31.7364 31.9546 31.9424 31.9546 32.1915C31.9546 32.4214 32.0408 32.5938 32.2132 32.7088C32.3857 32.8237 32.6108 32.9148 32.8886 32.9818C33.1664 33.0489 33.473 33.1064 33.8083 33.1543C34.1532 33.1926 34.4933 33.2548 34.8286 33.3411C35.1639 33.4273 35.4704 33.547 35.7483 33.7003C36.0357 33.844 36.2656 34.05 36.438 34.3182C36.6105 34.5865 36.6967 34.9361 36.6967 35.3672C36.6967 35.8462 36.553 36.263 36.2656 36.6174C35.9878 36.9719 35.5902 37.2497 35.0729 37.4509C34.5555 37.6425 33.9376 37.7383 33.2191 37.7383ZM41.132 37.7383C40.2889 37.7383 39.6375 37.5227 39.1776 37.0916C38.7178 36.651 38.4879 36.0043 38.4879 35.1517V28.2685H40.2841V35.1086C40.2841 35.4726 40.3751 35.7552 40.5572 35.9564C40.7488 36.1576 41.0122 36.2582 41.3475 36.2582C41.7499 36.2582 42.0852 36.1528 42.3534 35.942L42.8564 37.221C42.6456 37.3934 42.3869 37.5227 42.0804 37.609C41.7738 37.6952 41.4577 37.7383 41.132 37.7383ZM37.2233 31.4586V30.0216H42.339V31.4586H37.2233ZM44.334 37.6377V29.9641H46.044V32.0765L45.8428 31.4586C46.0728 30.9413 46.432 30.5485 46.9206 30.2803C47.4188 30.012 48.0367 29.8779 48.7743 29.8779V31.5879C48.6977 31.5688 48.6258 31.5592 48.5588 31.5592C48.4917 31.5496 48.4247 31.5448 48.3576 31.5448C47.6774 31.5448 47.1361 31.746 46.7338 32.1484C46.3314 32.5411 46.1302 33.1303 46.1302 33.9159V37.6377H44.334ZM50.2981 37.6377V29.9641H52.0944V37.6377H50.2981ZM51.2034 28.6996C50.8681 28.6996 50.5903 28.5942 50.37 28.3834C50.1592 28.1727 50.0538 27.9188 50.0538 27.6218C50.0538 27.3152 50.1592 27.0614 50.37 26.8602C50.5903 26.6494 50.8681 26.5441 51.2034 26.5441C51.5387 26.5441 51.8117 26.6446 52.0225 26.8458C52.2428 27.0374 52.353 27.2817 52.353 27.5787C52.353 27.8948 52.2476 28.1631 52.0369 28.3834C51.8261 28.5942 51.5483 28.6996 51.2034 28.6996ZM59.1797 37.6377V36.0857L59.0791 35.7552V33.0393C59.0791 32.5124 58.921 32.1052 58.6049 31.8178C58.2887 31.5209 57.8097 31.3724 57.1679 31.3724C56.7368 31.3724 56.3105 31.4394 55.8889 31.5736C55.477 31.7077 55.1273 31.8945 54.8399 32.134L54.1358 30.8263C54.5477 30.5102 55.0363 30.2755 55.6015 30.1222C56.1763 29.9593 56.7703 29.8779 57.3834 29.8779C58.4947 29.8779 59.3521 30.1461 59.9556 30.6826C60.5688 31.2095 60.8753 32.0286 60.8753 33.1399V37.6377H59.1797ZM56.7655 37.7383C56.1907 37.7383 55.6878 37.6425 55.2567 37.4509C54.8256 37.2497 54.4903 36.9767 54.2508 36.6318C54.0208 36.2773 53.9059 35.8798 53.9059 35.4391C53.9059 35.008 54.0065 34.62 54.2076 34.2751C54.4184 33.9302 54.7585 33.6572 55.2279 33.456C55.6973 33.2548 56.32 33.1543 57.096 33.1543H59.3234V34.347H57.2253C56.6122 34.347 56.2003 34.4476 55.9895 34.6487C55.7788 34.8403 55.6734 35.0798 55.6734 35.3672C55.6734 35.693 55.8027 35.9516 56.0614 36.1432C56.32 36.3348 56.6793 36.4306 57.1391 36.4306C57.5798 36.4306 57.9726 36.33 58.3175 36.1288C58.6719 35.9277 58.9258 35.6307 59.0791 35.2379L59.3808 36.3157C59.2084 36.7659 58.8971 37.1156 58.4468 37.3647C58.0061 37.6137 57.4457 37.7383 56.7655 37.7383Z" fill="white"/>
</svg>
