<svg width="245" height="303" viewBox="0 0 245 303" fill="none" xmlns="http://www.w3.org/2000/svg">
<path d="M181.672 274.216C187.713 274.562 193.905 271.134 195.488 265.086C197.26 258.3 190.006 248.914 189.698 239.677C188.619 207.778 236.391 210.281 223.745 171.934C215.804 147.842 189.478 157.745 178.048 141.483C163.378 120.595 186.171 106.459 187.539 86.0474C189.994 49.4338 149.691 26.1226 119.012 46.4849C105.677 55.3422 97.2188 77.4897 75.5694 66.1152C60.3563 58.1099 62.1185 33.1741 35.2924 35.0189C-9.05962 38.0729 1.32791 106.089 45.6471 94.1405C61.0169 90.001 62.529 71.976 84.0144 77.5074C105.709 83.0948 99.9025 117.366 133.121 125.186C145.863 128.192 160.449 125.321 168.941 138.578C180.939 157.314 164.687 166.923 165.186 182.772C165.917 205.815 192.772 212.495 183.426 239.94C180.295 249.123 169.581 254.275 170.93 263.607C171.635 268.481 176.708 273.923 181.683 274.214L181.672 274.216Z" fill="url(#paint0_linear_3_5962)"/>
<defs>
<linearGradient id="paint0_linear_3_5962" x1="21.6802" y1="167.635" x2="219.465" y2="138.282" gradientUnits="userSpaceOnUse">
<stop stop-color="#F5B636"/>
<stop offset="0.26" stop-color="#F5B133"/>
<stop offset="0.56" stop-color="#F5A32E"/>
<stop offset="0.88" stop-color="#F58C24"/>
<stop offset="1" stop-color="#F58220"/>
</linearGradient>
</defs>
</svg>
