<svg width="224" height="288" viewBox="0 0 224 288" fill="none" xmlns="http://www.w3.org/2000/svg">
<path d="M64.6228 0.342957C58.0484 -1.02756 50.6844 1.73802 47.9598 8.12829C44.8996 15.3 51.3431 26.7959 50.1771 36.9909C46.1597 72.207 -5.91165 61.6683 1.72641 105.86C6.52525 133.626 37.0652 127.032 46.9615 146.767C59.6726 172.107 32.3277 183.922 27.4962 206.125C18.8231 245.947 59.3125 278.132 96.3369 260.757C112.431 253.205 125.33 230.242 147.263 246.275C162.682 257.541 156.68 284.653 186.459 286.997C235.679 290.871 235.352 214.458 184.713 220.366C167.145 222.415 162.555 241.967 139.846 232.381C116.923 222.706 128.886 186.005 93.6736 171.989C80.1607 166.609 63.6695 167.378 56.5061 151.431C46.3765 128.889 65.8051 120.981 67.8384 103.492C70.7962 78.0531 42.3714 66.3445 57.1197 37.715C62.0536 28.1337 74.6746 24.2226 74.7114 13.7494C74.7318 8.27557 70.0516 1.47619 64.6228 0.342957Z" fill="url(#paint0_linear_3_5964)"/>
<defs>
<linearGradient id="paint0_linear_3_5964" x1="223.034" y1="143.568" x2="0.961376" y2="143.568" gradientUnits="userSpaceOnUse">
<stop stop-color="#F5B636"/>
<stop offset="0.26" stop-color="#F5B133"/>
<stop offset="0.56" stop-color="#F5A32E"/>
<stop offset="0.88" stop-color="#F58C24"/>
<stop offset="1" stop-color="#F58220"/>
</linearGradient>
</defs>
</svg>
