<svg width="127" height="122" viewBox="0 0 127 122" fill="none" xmlns="http://www.w3.org/2000/svg">
<g clip-path="url(#clip0_25_584)">
<path d="M71.6561 105.92H55.4585C50.3611 105.92 46.0907 102.241 45.3139 97.1709C44.2758 90.4229 41.7415 86.7758 39.0532 82.9131C35.6848 78.073 32.2019 73.0641 32.2019 62.342C32.2019 44.9868 46.2661 30.8691 63.5555 30.8691C80.8449 30.8691 94.909 44.9868 94.909 62.342C94.909 73.0641 91.4261 78.0694 88.0577 82.9131C85.373 86.7758 82.8387 90.4193 81.8006 97.1709C81.0238 102.241 76.7534 105.92 71.6561 105.92ZM63.559 34.7354C48.3924 34.7354 36.0535 47.1212 36.0535 62.342C36.0535 71.8496 39.0461 76.1471 42.2104 80.6997C45.0311 84.7528 47.9449 88.9425 49.119 96.578C49.6058 99.7508 52.2726 102.054 55.4585 102.054H71.6561C74.8419 102.054 77.5087 99.7508 77.9955 96.578C79.1696 88.9425 82.0834 84.7492 84.9041 80.6997C88.0685 76.1471 91.061 71.8496 91.061 62.342C91.061 47.1212 78.7222 34.7354 63.559 34.7354Z" fill="#F15922"/>
<path d="M63.3228 21.588C62.2596 21.588 61.397 20.722 61.397 19.6548V1.93314C61.397 0.865962 62.2596 0 63.3228 0C64.3859 0 65.2486 0.865962 65.2486 1.93314V19.6584C65.2486 20.7256 64.3859 21.5916 63.3228 21.5916V21.588Z" fill="#F15922"/>
<path d="M94.3721 34.3038C93.8781 34.3038 93.3877 34.1134 93.0118 33.7361C92.2601 32.9815 92.2601 31.7562 93.0118 31.0053L105.497 18.4722C106.249 17.7176 107.466 17.7176 108.218 18.4722C108.97 19.2268 108.97 20.452 108.218 21.203L95.7323 33.7361C95.3565 34.1134 94.8625 34.3038 94.3721 34.3038Z" fill="#F15922"/>
<path d="M19.9275 109.028C19.4335 109.028 18.9431 108.838 18.5673 108.461C17.8156 107.706 17.8156 106.484 18.5673 105.73L31.0528 93.1968C31.8046 92.4422 33.0216 92.4422 33.7733 93.1968C34.525 93.9514 34.525 95.1731 33.7733 95.9276L21.2877 108.461C20.9119 108.838 20.4179 109.028 19.9275 109.028Z" fill="#F15922"/>
<path d="M124.859 65.3995H107.201C106.138 65.3995 105.276 64.5335 105.276 63.4663C105.276 62.3992 106.138 61.5332 107.201 61.5332H124.859C125.923 61.5332 126.785 62.3992 126.785 63.4663C126.785 64.5335 125.923 65.3995 124.859 65.3995Z" fill="#F15922"/>
<path d="M19.5803 65.3995H1.92582C0.862679 65.3995 0 64.5335 0 63.4663C0 62.3992 0.862679 61.5332 1.92582 61.5332H19.5839C20.647 61.5332 21.5097 62.3992 21.5097 63.4663C21.5097 64.5335 20.647 65.3995 19.5839 65.3995H19.5803Z" fill="#F15922"/>
<path d="M107.022 109.1C106.528 109.1 106.038 108.909 105.662 108.532L93.1765 95.9989C92.4248 95.2443 92.4248 94.0227 93.1765 93.2681C93.9282 92.5135 95.1453 92.5135 95.897 93.2681L108.383 105.801C109.134 106.556 109.134 107.777 108.383 108.532C108.007 108.909 107.513 109.1 107.022 109.1Z" fill="#F15922"/>
<path d="M32.5778 34.3722C32.0838 34.3722 31.5934 34.1817 31.2175 33.8045L18.7319 21.2714C17.9802 20.5168 17.9802 19.2951 18.7319 18.5405C19.4836 17.786 20.7007 17.786 21.4524 18.5405L33.938 31.0736C34.6897 31.8282 34.6897 33.0499 33.938 33.8045C33.5621 34.1817 33.0682 34.3722 32.5778 34.3722Z" fill="#F15922"/>
<path d="M73.4351 114.293H53.6794C52.6163 114.293 51.7536 113.427 51.7536 112.36C51.7536 111.293 52.6163 110.427 53.6794 110.427H73.4351C74.4983 110.427 75.3609 111.293 75.3609 112.36C75.3609 113.427 74.4983 114.293 73.4351 114.293Z" fill="#F15922"/>
<path d="M70.2386 122H56.876C55.8129 122 54.9502 121.134 54.9502 120.067C54.9502 119 55.8129 118.134 56.876 118.134H70.2386C71.3017 118.134 72.1644 119 72.1644 120.067C72.1644 121.134 71.3017 122 70.2386 122Z" fill="#F15922"/>
<path d="M65.739 80.5958H61.7549C60.7562 80.5958 59.9437 79.7801 59.9437 78.7776V75.4216C59.2815 75.2096 58.6371 74.9401 58.0214 74.6203L55.6553 76.9954C54.9609 77.6853 53.7689 77.6817 53.0924 76.9954L50.2752 74.1676C49.57 73.4561 49.57 72.3063 50.2752 71.5948L52.6413 69.2197C52.3227 68.5981 52.0543 67.9549 51.8431 67.2902H48.4997C47.501 67.2902 46.6885 66.4745 46.6885 65.472V61.4692C46.6885 60.4667 47.501 59.651 48.4997 59.651H51.8431C52.0543 58.9863 52.3227 58.3395 52.6413 57.7215L50.2752 55.3464C49.5736 54.6349 49.5736 53.4851 50.2752 52.7736L53.0959 49.9422C53.7725 49.2559 54.9681 49.2523 55.6553 49.9422L58.0214 52.3173C58.6371 51.9975 59.2815 51.728 59.9437 51.516V48.16C59.9437 47.1575 60.7562 46.3418 61.7549 46.3418H65.739C66.7377 46.3418 67.5503 47.1575 67.5503 48.16V51.516C68.2125 51.728 68.8533 51.9975 69.4725 52.3173L71.8386 49.9422C72.5474 49.2343 73.6928 49.2343 74.4016 49.9422L77.2223 52.7736C77.9239 53.4851 77.9239 54.6349 77.2223 55.3464L74.8562 57.7215C75.1748 58.3431 75.4433 58.9863 75.6545 59.651H78.9978C79.9965 59.651 80.8091 60.4667 80.8091 61.4692V65.472C80.8091 66.4745 79.9965 67.2902 78.9978 67.2902H75.6545C75.4433 67.9549 75.1784 68.5981 74.8562 69.2197L77.2223 71.5948C77.9239 72.3063 77.9239 73.4561 77.2223 74.1676L74.4052 76.999C73.6964 77.7033 72.551 77.7069 71.8422 76.999L69.4761 74.6239C68.8604 74.9437 68.2161 75.2132 67.5539 75.4252V78.7812C67.5539 79.7837 66.7413 80.5994 65.7426 80.5994L65.739 80.5958ZM62.3491 78.1812H65.1448V74.9688C65.1448 74.1604 65.6925 73.4453 66.4728 73.2261C67.2424 73.0105 67.9906 72.6979 68.685 72.3027C69.3902 71.9038 70.2851 72.0224 70.8542 72.5937L73.1201 74.8682L75.0996 72.8812L72.8337 70.6067C72.2646 70.0354 72.1465 69.1371 72.5474 68.4292C72.9411 67.7285 73.249 66.9812 73.4673 66.205C73.6821 65.4217 74.398 64.8719 75.2034 64.8719H78.4036V62.0656H75.2034C74.398 62.0656 73.6857 61.5159 73.4673 60.729C73.2526 59.9564 72.9411 59.2091 72.5474 58.5048C72.15 57.8005 72.2682 56.9022 72.8373 56.3309L75.1032 54.0564L73.1237 52.0694L70.8578 54.3439C70.2887 54.9152 69.3973 55.0338 68.6886 54.6349C67.9906 54.2397 67.246 53.927 66.4728 53.7115C65.6925 53.4923 65.1448 52.7772 65.1448 51.9688V48.7564H62.3491V51.9688C62.3491 52.7772 61.8015 53.4923 61.0211 53.7115C60.2515 53.927 59.5034 54.2397 58.8089 54.6349C58.1038 55.0338 57.2089 54.9152 56.6397 54.3439L54.3774 52.0694L52.3979 54.0564L54.6638 56.3309C55.2329 56.9022 55.3511 57.8005 54.9502 58.5084C54.5564 59.2091 54.2486 59.9564 54.0302 60.7326C53.8154 61.5159 53.0995 62.0656 52.2941 62.0656H49.094V64.8719H52.2941C53.0995 64.8719 53.8118 65.4217 54.0302 66.205C54.245 66.9776 54.5564 67.7249 54.9502 68.4292C55.3475 69.1335 55.2294 70.0318 54.6602 70.6031L52.3943 72.8776L54.3738 74.8646L56.6361 72.5901C57.2053 72.0188 58.0966 71.9002 58.8054 72.2991C59.5034 72.6943 60.2479 73.0034 61.0211 73.2225C61.8015 73.4417 62.3491 74.1568 62.3491 74.9653V78.1776V78.1812ZM75.7833 66.8554C75.7833 66.8554 75.7833 66.8554 75.7833 66.859C75.7833 66.859 75.7833 66.859 75.7833 66.8554ZM51.7106 60.0786C51.7106 60.0786 51.7106 60.0786 51.7106 60.0822C51.7106 60.0822 51.7106 60.0822 51.7106 60.0786Z" fill="#214052"/>
<path d="M79.6063 65.4681V61.4653C79.6063 61.1275 79.3343 60.8545 78.9978 60.8545H75.2034C74.9314 60.8545 74.6987 60.6676 74.6271 60.4053C74.3801 59.525 74.0329 58.6913 73.5962 57.9116C73.4602 57.6709 73.496 57.3762 73.6893 57.1822L76.374 54.4873C76.6102 54.2501 76.6102 53.8621 76.374 53.6213L73.5568 50.7935C73.3206 50.5563 72.934 50.5563 72.6942 50.7935L70.0095 53.4884C69.8162 53.6824 69.5227 53.7148 69.2828 53.5818C68.5061 53.1434 67.6756 52.7949 66.7986 52.547C66.5373 52.4715 66.3511 52.2416 66.3511 51.9685V48.1597C66.3511 47.8219 66.0791 47.5488 65.7426 47.5488H61.755C61.4185 47.5488 61.1464 47.8219 61.1464 48.1597V51.9685C61.1464 52.2416 60.9603 52.4751 60.699 52.547C59.822 52.7949 58.9915 53.1434 58.2148 53.5818C57.9749 53.7184 57.6814 53.6824 57.4881 53.4884L54.8034 50.7935C54.5672 50.5563 54.1806 50.5563 53.9407 50.7935L51.1236 53.6213C50.8874 53.8585 50.8874 54.2466 51.1236 54.4873L53.8083 57.1822C54.0016 57.3762 54.0338 57.6709 53.9014 57.9116C53.4646 58.6913 53.1174 59.525 52.8704 60.4053C52.7953 60.6676 52.5662 60.8545 52.2941 60.8545H48.4998C48.1633 60.8545 47.8912 61.1275 47.8912 61.4653V65.4681C47.8912 65.8059 48.1633 66.079 48.4998 66.079H52.2941C52.5662 66.079 52.7988 66.2658 52.8704 66.5281C53.1174 67.4085 53.4646 68.2421 53.9014 69.0218C54.0374 69.2625 54.0016 69.5572 53.8083 69.7512L51.1236 72.4461C50.8874 72.6833 50.8874 73.0713 51.1236 73.3121L53.9407 76.1399C54.177 76.3771 54.5636 76.3771 54.8034 76.1399L57.4881 73.445C57.6814 73.251 57.9749 73.2187 58.2148 73.3516C58.9915 73.79 59.822 74.1385 60.699 74.3865C60.9603 74.4619 61.1464 74.6919 61.1464 74.965V78.7738C61.1464 79.1115 61.4185 79.3846 61.755 79.3846H65.7426C66.0791 79.3846 66.3511 79.1115 66.3511 78.7738V74.965C66.3511 74.6919 66.5373 74.4583 66.7986 74.3865C67.6756 74.1385 68.5061 73.79 69.2828 73.3516C69.5227 73.2151 69.8162 73.251 70.0095 73.445L72.6942 76.1399C72.9304 76.3771 73.317 76.3771 73.5568 76.1399L76.374 73.3121C76.6102 73.0749 76.6102 72.6869 76.374 72.4461L73.6893 69.7512C73.496 69.5572 73.4638 69.2625 73.5962 69.0218C74.0329 68.2421 74.3801 67.4085 74.6271 66.5281C74.7023 66.2658 74.9314 66.079 75.2034 66.079H78.9978C79.3343 66.079 79.6063 65.8059 79.6063 65.4681Z" fill="#F6B637"/>
<path d="M65.739 80.3552H61.755C60.8887 80.3552 60.1835 79.6473 60.1835 78.7778V75.2421C59.4175 75.0085 58.6765 74.6995 57.9749 74.3222L55.4835 76.8231C54.8822 77.4231 53.8512 77.416 53.2606 76.8231L50.4435 73.9952C49.8314 73.3808 49.8314 72.3783 50.4435 71.7639L52.9349 69.263C52.5554 68.5551 52.2512 67.8113 52.0185 67.046H48.4962C47.6299 67.046 46.9247 66.3381 46.9247 65.4686V61.4657C46.9247 60.5962 47.6299 59.8883 48.4962 59.8883H52.0185C52.2512 59.123 52.559 58.3792 52.9349 57.6713L50.4435 55.1704C49.8314 54.556 49.8314 53.5535 50.4435 52.9391L53.2642 50.1076C53.8512 49.5147 54.8893 49.5112 55.4835 50.1076L57.9749 52.6085C58.6765 52.2312 59.4175 51.9222 60.1835 51.6886V48.1565C60.1835 47.287 60.8887 46.5791 61.755 46.5791H65.739C66.6053 46.5791 67.3105 47.287 67.3105 48.1565V51.6886C68.0729 51.9222 68.8139 52.2276 69.5191 52.6085L72.0105 50.1076C72.6226 49.4932 73.6248 49.4932 74.2334 50.1076L77.0541 52.9391C77.6662 53.5535 77.6662 54.556 77.0541 55.1704L74.5627 57.6713C74.9421 58.3792 75.2464 59.123 75.4791 59.8883H78.9978C79.8641 59.8883 80.5692 60.5962 80.5692 61.4657V65.4686C80.5692 66.3381 79.8641 67.046 78.9978 67.046H75.4755C75.2428 67.8113 74.935 68.5551 74.5591 69.263L77.0505 71.7639C77.6626 72.3783 77.6626 73.3808 77.0505 73.9952L74.2298 76.8267C73.6177 77.4411 72.6154 77.4411 72.0069 76.8267L69.5155 74.3258C68.8139 74.7031 68.0729 75.0121 67.3069 75.2457V78.7814C67.3069 79.6509 66.6017 80.3588 65.7354 80.3588L65.739 80.3552ZM62.1093 78.4221H65.3882V74.9654C65.3882 74.2647 65.8607 73.6431 66.5409 73.4562C67.3319 73.2335 68.0944 72.9173 68.8067 72.5112C69.4224 72.1627 70.1956 72.2669 70.686 72.7628L73.1201 75.2061L75.4397 72.8778L73.0056 70.4344C72.5116 69.9385 72.4114 69.1624 72.7586 68.5479C73.1595 67.8293 73.4781 67.0639 73.7 66.2698C73.8897 65.5907 74.5054 65.1164 75.2034 65.1164H78.647V61.8251H75.2034C74.5054 61.8251 73.8862 61.3472 73.7 60.668C73.4781 59.8775 73.1595 59.1086 72.7586 58.39C72.4114 57.7791 72.5152 56.9994 73.0092 56.5035L75.4433 54.0601L73.1237 51.7318L70.6896 54.1751C70.1956 54.671 69.426 54.7752 68.8103 54.4267C68.0944 54.0206 67.3319 53.7044 66.5409 53.4816C65.8607 53.2912 65.3882 52.6696 65.3882 51.9725V48.5194H62.1093V51.9725C62.1093 52.6732 61.6368 53.2948 60.9567 53.4816C60.1656 53.7044 59.4032 54.0206 58.6908 54.4267C58.0716 54.7716 57.2984 54.671 56.8116 54.1751L54.3774 51.7318L52.0579 54.0601L54.492 56.5035C54.986 56.9994 55.0862 57.7755 54.739 58.39C54.3381 59.105 54.0195 59.8739 53.7975 60.668C53.6078 61.3472 52.9921 61.8251 52.2941 61.8251H48.8506V65.1164H52.2941C52.9921 65.1164 53.6114 65.5907 53.7975 66.2734C54.0195 67.0639 54.3381 67.8329 54.739 68.5515C55.0862 69.1624 54.9824 69.9421 54.4884 70.438L52.0543 72.8813L54.3739 75.2097L56.808 72.7664C57.2984 72.2705 58.068 72.1663 58.6873 72.5148C59.4032 72.9209 60.1656 73.2371 60.9567 73.4598C61.6368 73.6503 62.1093 74.2719 62.1093 74.969V78.4256V78.4221Z" fill="#F15922"/>
</g>
<defs>
<clipPath id="clip0_25_584">
<rect width="127" height="122" fill="white"/>
</clipPath>
</defs>
</svg>
